<?xml version="1.0" encoding="UTF-8"?>
<svg xmlns="http://www.w3.org/2000/svg" xmlns:xlink="http://www.w3.org/1999/xlink" width="1080" height="1920" viewBox="0 0 1080 1920">
<defs>
<g>
<g id="glyph-0-0">
<path d="M 1.8125 -1.769531 C 1.511719 -1.769531 1.253906 -1.875 1.039062 -2.085938 C 0.820312 -2.300781 0.710938 -2.554688 0.710938 -2.855469 C 0.710938 -3.152344 0.820312 -3.414062 1.039062 -3.628906 C 1.253906 -3.847656 1.511719 -3.957031 1.8125 -3.957031 C 2.117188 -3.957031 2.371094 -3.851562 2.582031 -3.632812 C 2.792969 -3.414062 2.898438 -3.15625 2.898438 -2.855469 C 2.898438 -2.554688 2.792969 -2.300781 2.582031 -2.085938 C 2.371094 -1.875 2.117188 -1.769531 1.8125 -1.769531 Z "/>
</g>
<g id="glyph-0-1">
</g>
<g id="glyph-0-2">
<path d="M 4.496094 -5.566406 L 2.699219 -5.566406 L 2.699219 0 L 1.96875 0 L 1.96875 -5.566406 L 0.179688 -5.566406 L 0.179688 -6.222656 L 4.496094 -6.222656 Z "/>
</g>
<g id="glyph-0-3">
<path d="M 2.578125 0.105469 C 1.921875 0.105469 1.398438 -0.101562 1.003906 -0.519531 C 0.613281 -0.933594 0.417969 -1.484375 0.417969 -2.171875 C 0.417969 -2.917969 0.621094 -3.5 1.027344 -3.917969 C 1.4375 -4.339844 1.988281 -4.550781 2.683594 -4.550781 C 3.34375 -4.550781 3.863281 -4.34375 4.234375 -3.9375 C 4.605469 -3.527344 4.792969 -2.964844 4.792969 -2.238281 C 4.792969 -1.53125 4.589844 -0.960938 4.191406 -0.535156 C 3.789062 -0.109375 3.253906 0.105469 2.578125 0.105469 M 2.628906 -3.949219 C 2.171875 -3.949219 1.8125 -3.792969 1.546875 -3.484375 C 1.277344 -3.171875 1.144531 -2.742188 1.144531 -2.195312 C 1.144531 -1.667969 1.28125 -1.253906 1.550781 -0.949219 C 1.820312 -0.648438 2.179688 -0.496094 2.628906 -0.496094 C 3.089844 -0.496094 3.445312 -0.644531 3.691406 -0.941406 C 3.9375 -1.238281 4.0625 -1.664062 4.0625 -2.214844 C 4.0625 -2.769531 3.9375 -3.199219 3.691406 -3.5 C 3.445312 -3.800781 3.089844 -3.949219 2.628906 -3.949219 M 3.59375 -5.945312 L 4.375 -7.015625 L 5.105469 -7.015625 L 4.144531 -5.945312 L 3.59375 -5.945312 M 3.878906 -5.285156 L 3.355469 -5.285156 L 2.644531 -5.929688 L 1.921875 -5.285156 L 1.433594 -5.285156 L 2.371094 -6.371094 L 2.941406 -6.371094 Z "/>
</g>
<g id="glyph-0-4">
<path d="M 3.75 -0.203125 C 3.410156 0 3.003906 0.105469 2.535156 0.105469 C 1.902344 0.105469 1.390625 -0.101562 1 -0.515625 C 0.609375 -0.925781 0.417969 -1.460938 0.417969 -2.117188 C 0.417969 -2.851562 0.625 -3.4375 1.046875 -3.882812 C 1.464844 -4.328125 2.027344 -4.550781 2.726562 -4.550781 C 3.117188 -4.550781 3.460938 -4.476562 3.757812 -4.332031 L 3.757812 -3.601562 C 3.429688 -3.835938 3.074219 -3.949219 2.699219 -3.949219 C 2.246094 -3.949219 1.871094 -3.785156 1.582031 -3.460938 C 1.292969 -3.136719 1.144531 -2.707031 1.144531 -2.179688 C 1.144531 -1.65625 1.28125 -1.246094 1.554688 -0.945312 C 1.828125 -0.644531 2.195312 -0.496094 2.65625 -0.496094 C 3.042969 -0.496094 3.410156 -0.625 3.75 -0.882812 Z "/>
</g>
<g id="glyph-0-5">
<path d="M 4.515625 0 L 3.800781 0 L 3.800781 -0.753906 L 3.785156 -0.753906 C 3.453125 -0.183594 2.945312 0.105469 2.257812 0.105469 C 1.699219 0.105469 1.253906 -0.09375 0.917969 -0.492188 C 0.582031 -0.890625 0.417969 -1.433594 0.417969 -2.117188 C 0.417969 -2.851562 0.601562 -3.441406 0.972656 -3.882812 C 1.34375 -4.328125 1.835938 -4.550781 2.453125 -4.550781 C 3.054688 -4.550781 3.5 -4.308594 3.785156 -3.828125 L 3.800781 -3.828125 L 3.800781 -5.21875 L 2.367188 -5.21875 L 2.367188 -5.800781 L 3.800781 -5.800781 L 3.800781 -6.582031 L 4.515625 -6.582031 L 4.515625 -5.800781 L 5.105469 -5.800781 L 5.105469 -5.21875 L 4.515625 -5.21875 L 4.515625 0 M 3.800781 -2.007812 L 3.800781 -2.664062 C 3.800781 -3.023438 3.683594 -3.328125 3.445312 -3.578125 C 3.210938 -3.824219 2.90625 -3.949219 2.542969 -3.949219 C 2.109375 -3.949219 1.769531 -3.789062 1.519531 -3.472656 C 1.269531 -3.152344 1.144531 -2.714844 1.144531 -2.152344 C 1.144531 -1.640625 1.265625 -1.234375 1.503906 -0.941406 C 1.742188 -0.644531 2.0625 -0.496094 2.464844 -0.496094 C 2.859375 -0.496094 3.179688 -0.636719 3.429688 -0.925781 C 3.679688 -1.210938 3.800781 -1.574219 3.800781 -2.007812 Z "/>
</g>
<g id="glyph-0-6">
<path d="M 2.578125 0.105469 C 1.921875 0.105469 1.398438 -0.101562 1.003906 -0.519531 C 0.613281 -0.933594 0.417969 -1.484375 0.417969 -2.171875 C 0.417969 -2.917969 0.621094 -3.5 1.027344 -3.917969 C 1.4375 -4.339844 1.988281 -4.550781 2.683594 -4.550781 C 3.34375 -4.550781 3.863281 -4.34375 4.234375 -3.9375 C 4.605469 -3.527344 4.792969 -2.964844 4.792969 -2.238281 C 4.792969 -1.53125 4.589844 -0.960938 4.191406 -0.535156 C 3.789062 -0.109375 3.253906 0.105469 2.578125 0.105469 M 2.628906 -3.949219 C 2.171875 -3.949219 1.8125 -3.792969 1.546875 -3.484375 C 1.277344 -3.171875 1.144531 -2.742188 1.144531 -2.195312 C 1.144531 -1.667969 1.28125 -1.253906 1.550781 -0.949219 C 1.820312 -0.648438 2.179688 -0.496094 2.628906 -0.496094 C 3.089844 -0.496094 3.445312 -0.644531 3.691406 -0.941406 C 3.9375 -1.238281 4.0625 -1.664062 4.0625 -2.214844 C 4.0625 -2.769531 3.9375 -3.199219 3.691406 -3.5 C 3.445312 -3.800781 3.089844 -3.949219 2.628906 -3.949219 M 3.917969 -5.285156 L 3.390625 -5.285156 L 2.679688 -6.285156 L 1.960938 -5.285156 L 1.472656 -5.285156 L 2.40625 -6.726562 L 2.980469 -6.726562 L 3.917969 -5.285156 M 2.582031 1.363281 C 2.464844 1.363281 2.363281 1.320312 2.277344 1.238281 C 2.195312 1.152344 2.152344 1.050781 2.152344 0.933594 C 2.152344 0.816406 2.195312 0.714844 2.28125 0.636719 C 2.371094 0.554688 2.46875 0.515625 2.582031 0.515625 C 2.703125 0.515625 2.800781 0.554688 2.886719 0.636719 C 2.96875 0.714844 3.011719 0.816406 3.011719 0.933594 C 3.011719 1.050781 2.96875 1.152344 2.886719 1.238281 C 2.800781 1.320312 2.703125 1.363281 2.582031 1.363281 Z "/>
</g>
<g id="glyph-0-7">
<path d="M 2.78125 -0.0429688 C 2.613281 0.0507812 2.394531 0.09375 2.117188 0.09375 C 1.339844 0.09375 0.949219 -0.339844 0.949219 -1.207031 L 0.949219 -3.835938 L 0.1875 -3.835938 L 0.1875 -4.445312 L 0.949219 -4.445312 L 0.949219 -5.53125 L 1.664062 -5.761719 L 1.664062 -4.445312 L 2.78125 -4.445312 L 2.78125 -3.835938 L 1.664062 -3.835938 L 1.664062 -1.332031 C 1.664062 -1.035156 1.714844 -0.820312 1.8125 -0.695312 C 1.914062 -0.566406 2.082031 -0.503906 2.316406 -0.503906 C 2.496094 -0.503906 2.652344 -0.550781 2.78125 -0.652344 Z "/>
</g>
<g id="glyph-0-8">
<path d="M 1.433594 0 L 0.71875 0 L 0.71875 -4.445312 L 1.433594 -4.445312 L 1.433594 0 M 2.070312 -6.710938 L 0.933594 -5.285156 L 0.382812 -5.285156 L 1.351562 -6.710938 Z "/>
</g>
<g id="glyph-0-9">
<path d="M 4.410156 0 L 3.699219 0 L 3.699219 -2.535156 C 3.699219 -3.476562 3.355469 -3.949219 2.664062 -3.949219 C 2.308594 -3.949219 2.015625 -3.816406 1.78125 -3.546875 C 1.550781 -3.28125 1.433594 -2.941406 1.433594 -2.535156 L 1.433594 0 L 0.71875 0 L 0.71875 -4.445312 L 1.433594 -4.445312 L 1.433594 -3.707031 L 1.449219 -3.707031 C 1.785156 -4.269531 2.273438 -4.550781 2.90625 -4.550781 C 3.394531 -4.550781 3.765625 -4.390625 4.023438 -4.078125 C 4.28125 -3.765625 4.410156 -3.308594 4.410156 -2.71875 Z "/>
</g>
<g id="glyph-0-10">
<path d="M 4.410156 0 L 3.699219 0 L 3.699219 -2.5625 C 3.699219 -3.488281 3.355469 -3.949219 2.664062 -3.949219 C 2.316406 -3.949219 2.027344 -3.816406 1.789062 -3.546875 C 1.550781 -3.28125 1.433594 -2.9375 1.433594 -2.515625 L 1.433594 0 L 0.71875 0 L 0.71875 -6.582031 L 1.433594 -6.582031 L 1.433594 -3.707031 L 1.449219 -3.707031 C 1.792969 -4.269531 2.277344 -4.550781 2.90625 -4.550781 C 3.910156 -4.550781 4.410156 -3.945312 4.410156 -2.738281 Z "/>
</g>
<g id="glyph-0-11">
<path d="M 2.578125 0.105469 C 1.921875 0.105469 1.398438 -0.101562 1.003906 -0.519531 C 0.613281 -0.933594 0.417969 -1.484375 0.417969 -2.171875 C 0.417969 -2.917969 0.621094 -3.5 1.027344 -3.917969 C 1.4375 -4.339844 1.988281 -4.550781 2.683594 -4.550781 C 3.34375 -4.550781 3.863281 -4.34375 4.234375 -3.9375 C 4.605469 -3.527344 4.792969 -2.964844 4.792969 -2.238281 C 4.792969 -1.53125 4.589844 -0.960938 4.191406 -0.535156 C 3.789062 -0.109375 3.253906 0.105469 2.578125 0.105469 M 2.628906 -3.949219 C 2.171875 -3.949219 1.8125 -3.792969 1.546875 -3.484375 C 1.277344 -3.171875 1.144531 -2.742188 1.144531 -2.195312 C 1.144531 -1.667969 1.28125 -1.253906 1.550781 -0.949219 C 1.820312 -0.648438 2.179688 -0.496094 2.628906 -0.496094 C 3.089844 -0.496094 3.445312 -0.644531 3.691406 -0.941406 C 3.9375 -1.238281 4.0625 -1.664062 4.0625 -2.214844 C 4.0625 -2.769531 3.9375 -3.199219 3.691406 -3.5 C 3.445312 -3.800781 3.089844 -3.949219 2.628906 -3.949219 Z "/>
</g>
<g id="glyph-0-12">
<path d="M 3.902344 0 L 3.191406 0 L 3.191406 -0.695312 L 3.171875 -0.695312 C 2.863281 -0.160156 2.40625 0.105469 1.804688 0.105469 C 1.363281 0.105469 1.015625 -0.0117188 0.765625 -0.246094 C 0.515625 -0.480469 0.390625 -0.792969 0.390625 -1.179688 C 0.390625 -2.011719 0.878906 -2.496094 1.859375 -2.628906 L 3.191406 -2.816406 C 3.191406 -3.570312 2.886719 -3.949219 2.273438 -3.949219 C 1.738281 -3.949219 1.253906 -3.765625 0.824219 -3.402344 L 0.824219 -4.132812 C 1.261719 -4.410156 1.765625 -4.550781 2.335938 -4.550781 C 3.378906 -4.550781 3.902344 -3.996094 3.902344 -2.890625 L 3.902344 0 M 3.191406 -2.25 L 2.117188 -2.101562 C 1.789062 -2.054688 1.539062 -1.972656 1.371094 -1.855469 C 1.203125 -1.738281 1.121094 -1.53125 1.121094 -1.234375 C 1.121094 -1.015625 1.195312 -0.839844 1.351562 -0.699219 C 1.507812 -0.5625 1.714844 -0.496094 1.96875 -0.496094 C 2.324219 -0.496094 2.613281 -0.617188 2.84375 -0.867188 C 3.074219 -1.113281 3.191406 -1.425781 3.191406 -1.804688 L 3.191406 -2.25 M 3.285156 -6.710938 L 2.148438 -5.285156 L 1.597656 -5.285156 L 2.566406 -6.710938 Z "/>
</g>
<g id="glyph-0-13">
<path d="M 3.902344 0 L 3.191406 0 L 3.191406 -0.695312 L 3.171875 -0.695312 C 2.863281 -0.160156 2.40625 0.105469 1.804688 0.105469 C 1.363281 0.105469 1.015625 -0.0117188 0.765625 -0.246094 C 0.515625 -0.480469 0.390625 -0.792969 0.390625 -1.179688 C 0.390625 -2.011719 0.878906 -2.496094 1.859375 -2.628906 L 3.191406 -2.816406 C 3.191406 -3.570312 2.886719 -3.949219 2.273438 -3.949219 C 1.738281 -3.949219 1.253906 -3.765625 0.824219 -3.402344 L 0.824219 -4.132812 C 1.261719 -4.410156 1.765625 -4.550781 2.335938 -4.550781 C 3.378906 -4.550781 3.902344 -3.996094 3.902344 -2.890625 L 3.902344 0 M 3.191406 -2.25 L 2.117188 -2.101562 C 1.789062 -2.054688 1.539062 -1.972656 1.371094 -1.855469 C 1.203125 -1.738281 1.121094 -1.53125 1.121094 -1.234375 C 1.121094 -1.015625 1.195312 -0.839844 1.351562 -0.699219 C 1.507812 -0.5625 1.714844 -0.496094 1.96875 -0.496094 C 2.324219 -0.496094 2.613281 -0.617188 2.84375 -0.867188 C 3.074219 -1.113281 3.191406 -1.425781 3.191406 -1.804688 Z "/>
</g>
</g>
</defs>
<g fill="rgb(100%, 100%, 100%)" fill-opacity="1">
<use xlink:href="#glyph-0-0" x="30" y="29.591797"/>
<use xlink:href="#glyph-0-1" x="34" y="29.591797"/>
<use xlink:href="#glyph-0-2" x="36" y="29.591797"/>
<use xlink:href="#glyph-0-3" x="41" y="29.591797"/>
<use xlink:href="#glyph-0-4" x="46" y="29.591797"/>
<use xlink:href="#glyph-0-1" x="50" y="29.591797"/>
<use xlink:href="#glyph-0-5" x="52" y="29.591797"/>
<use xlink:href="#glyph-0-6" x="57" y="29.591797"/>
<use xlink:href="#glyph-0-1" x="62" y="29.591797"/>
<use xlink:href="#glyph-0-7" x="64" y="29.591797"/>
<use xlink:href="#glyph-0-8" x="67" y="29.591797"/>
<use xlink:href="#glyph-0-9" x="69" y="29.591797"/>
<use xlink:href="#glyph-0-10" x="74" y="29.591797"/>
<use xlink:href="#glyph-0-1" x="79" y="29.591797"/>
<use xlink:href="#glyph-0-7" x="81" y="29.591797"/>
<use xlink:href="#glyph-0-11" x="84" y="29.591797"/>
<use xlink:href="#glyph-0-12" x="89" y="29.591797"/>
<use xlink:href="#glyph-0-9" x="94" y="29.591797"/>
<use xlink:href="#glyph-0-1" x="99" y="29.591797"/>
<use xlink:href="#glyph-0-9" x="101" y="29.591797"/>
<use xlink:href="#glyph-0-10" x="106" y="29.591797"/>
<use xlink:href="#glyph-0-13" x="111" y="29.591797"/>
<use xlink:href="#glyph-0-9" x="116" y="29.591797"/>
<use xlink:href="#glyph-0-10" x="121" y="29.591797"/>
</g>
</svg>
