<?xml version="1.0" encoding="UTF-8"?>
<svg xmlns="http://www.w3.org/2000/svg" xmlns:xlink="http://www.w3.org/1999/xlink" width="1080" height="1920" viewBox="0 0 1080 1920">
<defs>
<g>
<g id="glyph-0-0">
<path d="M 0.65625 -0.316406 L 0.65625 -1.390625 C 0.78125 -1.28125 0.925781 -1.183594 1.097656 -1.097656 C 1.269531 -1.007812 1.453125 -0.9375 1.640625 -0.875 C 1.832031 -0.816406 2.023438 -0.769531 2.214844 -0.738281 C 2.40625 -0.707031 2.582031 -0.6875 2.746094 -0.6875 C 3.304688 -0.6875 3.722656 -0.792969 4 -1 C 4.277344 -1.207031 4.417969 -1.507812 4.417969 -1.898438 C 4.417969 -2.109375 4.371094 -2.292969 4.277344 -2.445312 C 4.183594 -2.601562 4.058594 -2.746094 3.894531 -2.871094 C 3.734375 -3 3.539062 -3.125 3.316406 -3.242188 C 3.09375 -3.359375 2.855469 -3.484375 2.597656 -3.613281 C 2.328125 -3.75 2.074219 -3.890625 1.839844 -4.03125 C 1.605469 -4.171875 1.398438 -4.328125 1.226562 -4.496094 C 1.050781 -4.667969 0.914062 -4.859375 0.816406 -5.074219 C 0.71875 -5.289062 0.667969 -5.542969 0.667969 -5.832031 C 0.667969 -6.1875 0.746094 -6.496094 0.902344 -6.757812 C 1.054688 -7.019531 1.261719 -7.234375 1.511719 -7.40625 C 1.765625 -7.574219 2.054688 -7.703125 2.378906 -7.785156 C 2.703125 -7.867188 3.03125 -7.910156 3.367188 -7.910156 C 4.136719 -7.910156 4.695312 -7.816406 5.046875 -7.632812 L 5.046875 -6.609375 C 4.585938 -6.925781 3.996094 -7.085938 3.277344 -7.085938 C 3.078125 -7.085938 2.878906 -7.0625 2.679688 -7.023438 C 2.480469 -6.980469 2.304688 -6.914062 2.148438 -6.820312 C 1.992188 -6.726562 1.867188 -6.605469 1.769531 -6.457031 C 1.671875 -6.308594 1.621094 -6.125 1.621094 -5.914062 C 1.621094 -5.714844 1.660156 -5.542969 1.734375 -5.398438 C 1.808594 -5.253906 1.917969 -5.121094 2.0625 -5.003906 C 2.207031 -4.882812 2.382812 -4.765625 2.589844 -4.65625 C 2.796875 -4.542969 3.039062 -4.417969 3.308594 -4.285156 C 3.585938 -4.148438 3.851562 -4.003906 4.101562 -3.851562 C 4.351562 -3.699219 4.570312 -3.53125 4.757812 -3.347656 C 4.945312 -3.164062 5.09375 -2.957031 5.207031 -2.734375 C 5.316406 -2.511719 5.371094 -2.253906 5.371094 -1.964844 C 5.371094 -1.582031 5.296875 -1.257812 5.144531 -0.988281 C 4.996094 -0.722656 4.792969 -0.507812 4.539062 -0.339844 C 4.28125 -0.175781 3.988281 -0.0546875 3.65625 0.0195312 C 3.324219 0.09375 2.972656 0.128906 2.605469 0.128906 C 2.480469 0.128906 2.328125 0.121094 2.148438 0.101562 C 1.96875 0.0820312 1.78125 0.0507812 1.59375 0.0117188 C 1.40625 -0.0234375 1.230469 -0.0703125 1.0625 -0.128906 C 0.890625 -0.183594 0.757812 -0.246094 0.65625 -0.316406 Z "/>
</g>
<g id="glyph-0-1">
<path d="M 1.8125 -0.804688 L 1.789062 -0.804688 L 1.789062 2.554688 L 0.902344 2.554688 L 0.902344 -5.554688 L 1.789062 -5.554688 L 1.789062 -4.578125 L 1.8125 -4.578125 C 2.25 -5.316406 2.890625 -5.683594 3.734375 -5.683594 C 4.449219 -5.683594 5.007812 -5.4375 5.410156 -4.941406 C 5.808594 -4.441406 6.011719 -3.777344 6.011719 -2.941406 C 6.011719 -2.011719 5.785156 -1.265625 5.332031 -0.707031 C 4.878906 -0.148438 4.261719 0.128906 3.476562 0.128906 C 2.757812 0.128906 2.203125 -0.179688 1.8125 -0.804688 M 1.789062 -3.042969 L 1.789062 -2.269531 C 1.789062 -1.808594 1.941406 -1.417969 2.238281 -1.097656 C 2.535156 -0.777344 2.914062 -0.617188 3.375 -0.617188 C 3.914062 -0.617188 4.335938 -0.824219 4.640625 -1.238281 C 4.945312 -1.648438 5.101562 -2.222656 5.101562 -2.957031 C 5.101562 -3.574219 4.957031 -4.058594 4.671875 -4.410156 C 4.386719 -4.761719 4 -4.9375 3.511719 -4.9375 C 2.992188 -4.9375 2.578125 -4.757812 2.261719 -4.398438 C 1.949219 -4.039062 1.789062 -3.585938 1.789062 -3.042969 Z "/>
</g>
<g id="glyph-0-2">
<path d="M 4.878906 0 L 3.988281 0 L 3.988281 -0.867188 L 3.964844 -0.867188 C 3.578125 -0.203125 3.007812 0.128906 2.257812 0.128906 C 1.703125 0.128906 1.269531 -0.015625 0.957031 -0.308594 C 0.644531 -0.601562 0.488281 -0.992188 0.488281 -1.476562 C 0.488281 -2.511719 1.097656 -3.117188 2.320312 -3.289062 L 3.988281 -3.519531 C 3.988281 -4.464844 3.605469 -4.9375 2.84375 -4.9375 C 2.171875 -4.9375 1.570312 -4.710938 1.03125 -4.253906 L 1.03125 -5.164062 C 1.578125 -5.511719 2.207031 -5.683594 2.917969 -5.683594 C 4.222656 -5.683594 4.878906 -4.996094 4.878906 -3.613281 L 4.878906 0 M 3.988281 -2.808594 L 2.648438 -2.625 C 2.234375 -2.566406 1.925781 -2.464844 1.714844 -2.320312 C 1.503906 -2.171875 1.398438 -1.914062 1.398438 -1.539062 C 1.398438 -1.269531 1.496094 -1.046875 1.691406 -0.875 C 1.882812 -0.703125 2.140625 -0.617188 2.464844 -0.617188 C 2.902344 -0.617188 3.269531 -0.773438 3.554688 -1.082031 C 3.84375 -1.390625 3.988281 -1.78125 3.988281 -2.257812 Z "/>
</g>
<g id="glyph-0-3">
<path d="M 8.789062 0 L 7.898438 0 L 7.898438 -3.191406 C 7.898438 -3.804688 7.804688 -4.25 7.613281 -4.523438 C 7.425781 -4.800781 7.105469 -4.9375 6.65625 -4.9375 C 6.277344 -4.9375 5.953125 -4.761719 5.6875 -4.417969 C 5.421875 -4.070312 5.289062 -3.652344 5.289062 -3.167969 L 5.289062 0 L 4.398438 0 L 4.398438 -3.296875 C 4.398438 -4.390625 3.976562 -4.9375 3.136719 -4.9375 C 2.746094 -4.9375 2.421875 -4.773438 2.171875 -4.445312 C 1.917969 -4.117188 1.789062 -3.691406 1.789062 -3.167969 L 1.789062 0 L 0.902344 0 L 0.902344 -5.554688 L 1.789062 -5.554688 L 1.789062 -4.675781 L 1.8125 -4.675781 C 2.207031 -5.347656 2.78125 -5.683594 3.539062 -5.683594 C 3.917969 -5.683594 4.246094 -5.578125 4.53125 -5.367188 C 4.8125 -5.15625 5.003906 -4.878906 5.109375 -4.535156 C 5.523438 -5.300781 6.136719 -5.683594 6.953125 -5.683594 C 8.175781 -5.683594 8.789062 -4.929688 8.789062 -3.421875 Z "/>
</g>
</g>
</defs>
<g fill="rgb(100%, 100%, 100%)" fill-opacity="1">
<use xlink:href="#glyph-0-0" x="30" y="31.989258"/>
<use xlink:href="#glyph-0-1" x="36" y="31.989258"/>
<use xlink:href="#glyph-0-2" x="43" y="31.989258"/>
<use xlink:href="#glyph-0-3" x="49" y="31.989258"/>
</g>
</svg>
