<?xml version="1.0" encoding="UTF-8"?>
<svg xmlns="http://www.w3.org/2000/svg" xmlns:xlink="http://www.w3.org/1999/xlink" width="1080" height="1920" viewBox="0 0 1080 1920">
<defs>
<g>
<g id="glyph-0-0">
<path d="M 6.464844 -0.277344 C 5.898438 0 5.15625 0.136719 4.242188 0.136719 C 3.050781 0.136719 2.109375 -0.214844 1.425781 -0.917969 C 0.742188 -1.617188 0.402344 -2.554688 0.402344 -3.722656 C 0.402344 -4.964844 0.785156 -5.976562 1.554688 -6.75 C 2.324219 -7.523438 3.320312 -7.910156 4.546875 -7.910156 C 5.304688 -7.910156 5.945312 -7.8125 6.464844 -7.621094 L 6.464844 -5.933594 C 5.945312 -6.246094 5.351562 -6.402344 4.6875 -6.402344 C 3.957031 -6.402344 3.367188 -6.171875 2.917969 -5.710938 C 2.46875 -5.253906 2.246094 -4.632812 2.246094 -3.847656 C 2.246094 -3.09375 2.457031 -2.496094 2.878906 -2.046875 C 3.304688 -1.601562 3.875 -1.378906 4.589844 -1.378906 C 5.273438 -1.378906 5.898438 -1.542969 6.464844 -1.878906 Z "/>
</g>
</g>
</defs>
<g fill="rgb(100%, 100%, 100%)" fill-opacity="1">
<use xlink:href="#glyph-0-0" x="30" y="31.989258"/>
</g>
</svg>
