<?xml version="1.0" encoding="UTF-8"?>
<svg xmlns="http://www.w3.org/2000/svg" xmlns:xlink="http://www.w3.org/1999/xlink" width="600" height="400" viewBox="0 0 600 400">
<defs>
<g>
<g id="glyph-0-0">
<path d="M 1.699219 -1.660156 C 1.417969 -1.660156 1.175781 -1.757812 0.972656 -1.957031 C 0.769531 -2.15625 0.667969 -2.394531 0.667969 -2.675781 C 0.667969 -2.957031 0.769531 -3.199219 0.972656 -3.402344 C 1.175781 -3.609375 1.417969 -3.710938 1.699219 -3.710938 C 1.984375 -3.710938 2.222656 -3.609375 2.421875 -3.40625 C 2.617188 -3.203125 2.71875 -2.960938 2.71875 -2.675781 C 2.71875 -2.394531 2.617188 -2.15625 2.421875 -1.957031 C 2.222656 -1.757812 1.984375 -1.660156 1.699219 -1.660156 Z "/>
</g>
<g id="glyph-0-1">
</g>
<g id="glyph-0-2">
<path d="M 3.71875 -4.167969 L 2.320312 -2.058594 L 3.695312 0 L 2.917969 0 L 2.097656 -1.351562 C 2.046875 -1.433594 1.988281 -1.539062 1.917969 -1.667969 L 1.898438 -1.667969 C 1.886719 -1.644531 1.824219 -1.539062 1.707031 -1.351562 L 0.875 0 L 0.105469 0 L 1.527344 -2.042969 L 0.167969 -4.167969 L 0.945312 -4.167969 L 1.75 -2.742188 C 1.808594 -2.636719 1.867188 -2.527344 1.925781 -2.417969 L 1.941406 -2.417969 L 2.984375 -4.167969 Z "/>
</g>
<g id="glyph-0-3">
<path d="M 4.042969 0 L 3.378906 0 L 3.378906 -0.660156 L 3.359375 -0.660156 C 3.085938 -0.15625 2.65625 0.0976562 2.074219 0.0976562 C 1.082031 0.0976562 0.585938 -0.492188 0.585938 -1.675781 L 0.585938 -4.167969 L 1.25 -4.167969 L 1.25 -1.78125 C 1.25 -0.902344 1.585938 -0.464844 2.257812 -0.464844 C 2.582031 -0.464844 2.851562 -0.582031 3.0625 -0.824219 C 3.273438 -1.0625 3.378906 -1.378906 3.378906 -1.765625 L 3.378906 -4.167969 L 3.875 -4.167969 C 4.035156 -4.167969 4.167969 -4.214844 4.273438 -4.3125 C 4.382812 -4.40625 4.433594 -4.523438 4.433594 -4.660156 C 4.433594 -4.855469 4.40625 -5.035156 4.355469 -5.191406 L 4.898438 -5.191406 C 4.949219 -5.039062 4.976562 -4.855469 4.976562 -4.636719 C 4.976562 -4.101562 4.664062 -3.785156 4.042969 -3.6875 L 4.042969 0 M 1.894531 -6.390625 C 1.996094 -6.402344 2.105469 -6.410156 2.222656 -6.410156 C 2.460938 -6.410156 2.65625 -6.351562 2.808594 -6.238281 C 2.964844 -6.125 3.039062 -5.96875 3.039062 -5.777344 C 3.039062 -5.613281 2.988281 -5.472656 2.882812 -5.359375 C 2.777344 -5.246094 2.648438 -5.179688 2.496094 -5.160156 L 2.496094 -4.957031 L 2.054688 -4.957031 L 2.054688 -5.425781 C 2.359375 -5.425781 2.511719 -5.527344 2.511719 -5.734375 C 2.511719 -5.902344 2.382812 -5.988281 2.128906 -5.988281 C 2.082031 -5.988281 2.003906 -5.980469 1.894531 -5.957031 Z "/>
</g>
<g id="glyph-0-4">
<path d="M 1.34375 0 L 0.675781 0 L 0.675781 -6.167969 L 1.34375 -6.167969 Z "/>
</g>
<g id="glyph-0-5">
<path d="M 3.992188 -4.167969 L 2.074219 0.667969 C 1.734375 1.53125 1.253906 1.960938 0.632812 1.960938 C 0.460938 1.960938 0.316406 1.945312 0.199219 1.910156 L 0.199219 1.308594 C 0.34375 1.359375 0.476562 1.382812 0.59375 1.382812 C 0.929688 1.382812 1.183594 1.183594 1.351562 0.78125 L 1.683594 -0.0078125 L 0.0585938 -4.167969 L 0.796875 -4.167969 L 1.925781 -0.960938 C 1.9375 -0.917969 1.964844 -0.8125 2.011719 -0.644531 L 2.035156 -0.644531 C 2.046875 -0.707031 2.074219 -0.8125 2.117188 -0.953125 L 3.300781 -4.167969 L 3.992188 -4.167969 M 3.101562 -6.289062 L 2.035156 -4.957031 L 1.519531 -4.957031 L 2.425781 -6.289062 Z "/>
</g>
<g id="glyph-0-6">
<path d="M 4.132812 0 L 3.464844 0 L 3.464844 -2.375 C 3.464844 -3.261719 3.144531 -3.703125 2.5 -3.703125 C 2.164062 -3.703125 1.890625 -3.578125 1.671875 -3.328125 C 1.453125 -3.074219 1.34375 -2.757812 1.34375 -2.375 L 1.34375 0 L 0.675781 0 L 0.675781 -4.167969 L 1.34375 -4.167969 L 1.34375 -3.476562 L 1.359375 -3.476562 C 1.671875 -4 2.128906 -4.265625 2.726562 -4.265625 C 3.183594 -4.265625 3.53125 -4.117188 3.773438 -3.824219 C 4.011719 -3.527344 4.132812 -3.101562 4.132812 -2.546875 Z "/>
</g>
<g id="glyph-0-7">
<path d="M 4.132812 0 L 3.464844 0 L 3.464844 -2.402344 C 3.464844 -3.269531 3.144531 -3.703125 2.5 -3.703125 C 2.171875 -3.703125 1.898438 -3.578125 1.675781 -3.328125 C 1.453125 -3.074219 1.34375 -2.753906 1.34375 -2.359375 L 1.34375 0 L 0.675781 0 L 0.675781 -6.167969 L 1.34375 -6.167969 L 1.34375 -3.476562 L 1.359375 -3.476562 C 1.679688 -4 2.136719 -4.265625 2.726562 -4.265625 C 3.664062 -4.265625 4.132812 -3.699219 4.132812 -2.566406 Z "/>
</g>
<g id="glyph-0-8">
<path d="M 3.65625 0 L 2.992188 0 L 2.992188 -0.652344 L 2.972656 -0.652344 C 2.683594 -0.152344 2.257812 0.0976562 1.691406 0.0976562 C 1.277344 0.0976562 0.953125 -0.0117188 0.71875 -0.230469 C 0.484375 -0.453125 0.367188 -0.742188 0.367188 -1.105469 C 0.367188 -1.886719 0.824219 -2.339844 1.742188 -2.464844 L 2.992188 -2.640625 C 2.992188 -3.347656 2.703125 -3.703125 2.132812 -3.703125 C 1.628906 -3.703125 1.175781 -3.53125 0.773438 -3.191406 L 0.773438 -3.875 C 1.183594 -4.132812 1.65625 -4.265625 2.1875 -4.265625 C 3.167969 -4.265625 3.65625 -3.746094 3.65625 -2.710938 L 3.65625 0 M 2.992188 -2.109375 L 1.984375 -1.96875 C 1.675781 -1.925781 1.441406 -1.847656 1.285156 -1.738281 C 1.128906 -1.628906 1.050781 -1.433594 1.050781 -1.15625 C 1.050781 -0.953125 1.121094 -0.785156 1.265625 -0.65625 C 1.414062 -0.527344 1.605469 -0.464844 1.847656 -0.464844 C 2.179688 -0.464844 2.453125 -0.578125 2.667969 -0.8125 C 2.882812 -1.042969 2.992188 -1.335938 2.992188 -1.691406 Z "/>
</g>
<g id="glyph-1-0">
<path d="M 4.765625 -4.765625 L 3.101562 -4.765625 L 3.101562 0 L 1.78125 0 L 1.78125 -4.765625 L 0.125 -4.765625 L 0.125 -5.835938 L 4.765625 -5.835938 Z "/>
</g>
<g id="glyph-1-1">
<path d="M 2.527344 0.101562 C 1.832031 0.101562 1.285156 -0.09375 0.890625 -0.480469 C 0.492188 -0.871094 0.292969 -1.398438 0.292969 -2.066406 C 0.292969 -2.757812 0.5 -3.296875 0.910156 -3.683594 C 1.324219 -4.074219 1.882812 -4.269531 2.582031 -4.269531 C 3.277344 -4.269531 3.816406 -4.074219 4.210938 -3.683594 C 4.605469 -3.296875 4.800781 -2.78125 4.800781 -2.140625 C 4.800781 -1.449219 4.597656 -0.902344 4.191406 -0.5 C 3.789062 -0.0976562 3.230469 0.101562 2.527344 0.101562 M 2.558594 -3.285156 C 2.253906 -3.285156 2.019531 -3.179688 1.851562 -2.96875 C 1.683594 -2.761719 1.597656 -2.464844 1.597656 -2.082031 C 1.597656 -1.28125 1.921875 -0.882812 2.566406 -0.882812 C 3.183594 -0.882812 3.492188 -1.292969 3.492188 -2.117188 C 3.492188 -2.894531 3.179688 -3.285156 2.558594 -3.285156 M 5.542969 -6.574219 L 4.464844 -5.574219 L 3.667969 -5.574219 L 4.398438 -6.574219 L 5.542969 -6.574219 M 4.039062 -4.960938 L 3.222656 -4.960938 L 2.609375 -5.515625 L 2.03125 -4.960938 L 1.214844 -4.960938 L 2.140625 -5.972656 L 3.117188 -5.972656 Z "/>
</g>
<g id="glyph-1-2">
<path d="M 3.699219 -0.152344 C 3.410156 0.0195312 2.988281 0.101562 2.441406 0.101562 C 1.800781 0.101562 1.28125 -0.09375 0.886719 -0.480469 C 0.492188 -0.867188 0.292969 -1.367188 0.292969 -1.980469 C 0.292969 -2.691406 0.503906 -3.246094 0.929688 -3.65625 C 1.355469 -4.0625 1.921875 -4.269531 2.632812 -4.269531 C 3.125 -4.269531 3.480469 -4.203125 3.699219 -4.074219 L 3.699219 -2.984375 C 3.429688 -3.183594 3.128906 -3.285156 2.800781 -3.285156 C 2.429688 -3.285156 2.136719 -3.175781 1.921875 -2.960938 C 1.707031 -2.746094 1.597656 -2.445312 1.597656 -2.066406 C 1.597656 -1.699219 1.703125 -1.410156 1.910156 -1.199219 C 2.113281 -0.988281 2.398438 -0.882812 2.757812 -0.882812 C 3.078125 -0.882812 3.390625 -0.984375 3.699219 -1.183594 Z "/>
</g>
<g id="glyph-1-3">
</g>
<g id="glyph-1-4">
<path d="M 5.199219 -4.765625 L 4.617188 -4.765625 L 4.617188 0 L 3.332031 0 L 3.332031 -0.574219 L 3.316406 -0.574219 C 3.023438 -0.125 2.59375 0.101562 2.027344 0.101562 C 1.503906 0.101562 1.085938 -0.0820312 0.769531 -0.449219 C 0.453125 -0.816406 0.292969 -1.332031 0.292969 -1.988281 C 0.292969 -2.679688 0.46875 -3.230469 0.816406 -3.644531 C 1.167969 -4.0625 1.625 -4.269531 2.191406 -4.269531 C 2.730469 -4.269531 3.105469 -4.074219 3.316406 -3.691406 L 3.332031 -3.691406 L 3.332031 -4.765625 L 1.988281 -4.765625 L 1.988281 -5.597656 L 3.332031 -5.597656 L 3.332031 -6.167969 L 4.617188 -6.167969 L 4.617188 -5.597656 L 5.199219 -5.597656 L 5.199219 -4.765625 M 3.355469 -2.027344 L 3.355469 -2.339844 C 3.355469 -2.609375 3.277344 -2.835938 3.121094 -3.015625 C 2.964844 -3.195312 2.757812 -3.285156 2.507812 -3.285156 C 2.222656 -3.285156 2 -3.171875 1.839844 -2.949219 C 1.679688 -2.722656 1.597656 -2.417969 1.597656 -2.027344 C 1.597656 -1.660156 1.675781 -1.378906 1.832031 -1.179688 C 1.984375 -0.980469 2.199219 -0.882812 2.472656 -0.882812 C 2.734375 -0.882812 2.945312 -0.988281 3.109375 -1.195312 C 3.273438 -1.40625 3.355469 -1.683594 3.355469 -2.027344 Z "/>
</g>
<g id="glyph-1-5">
<path d="M 2.527344 0.101562 C 1.832031 0.101562 1.285156 -0.09375 0.890625 -0.480469 C 0.492188 -0.871094 0.292969 -1.398438 0.292969 -2.066406 C 0.292969 -2.757812 0.5 -3.296875 0.910156 -3.683594 C 1.324219 -4.074219 1.882812 -4.269531 2.582031 -4.269531 C 3.277344 -4.269531 3.816406 -4.074219 4.210938 -3.683594 C 4.605469 -3.296875 4.800781 -2.78125 4.800781 -2.140625 C 4.800781 -1.449219 4.597656 -0.902344 4.191406 -0.5 C 3.789062 -0.0976562 3.230469 0.101562 2.527344 0.101562 M 2.558594 -3.285156 C 2.253906 -3.285156 2.019531 -3.179688 1.851562 -2.96875 C 1.683594 -2.761719 1.597656 -2.464844 1.597656 -2.082031 C 1.597656 -1.28125 1.921875 -0.882812 2.566406 -0.882812 C 3.183594 -0.882812 3.492188 -1.292969 3.492188 -2.117188 C 3.492188 -2.894531 3.179688 -3.285156 2.558594 -3.285156 M 4.058594 -4.824219 L 3.214844 -4.824219 L 2.570312 -5.589844 L 1.972656 -4.824219 L 1.132812 -4.824219 L 2.085938 -6.148438 L 3.097656 -6.148438 L 4.058594 -4.824219 M 2.53125 1.589844 C 2.347656 1.589844 2.199219 1.535156 2.082031 1.429688 C 1.964844 1.320312 1.902344 1.1875 1.902344 1.035156 C 1.902344 0.871094 1.964844 0.738281 2.082031 0.636719 C 2.203125 0.535156 2.351562 0.484375 2.53125 0.484375 C 2.710938 0.484375 2.859375 0.535156 2.976562 0.640625 C 3.089844 0.742188 3.148438 0.875 3.148438 1.035156 C 3.148438 1.195312 3.089844 1.328125 2.976562 1.433594 C 2.859375 1.539062 2.710938 1.589844 2.53125 1.589844 Z "/>
</g>
</g>
</defs>
<g fill="rgb(100%, 100%, 100%)" fill-opacity="1">
<use xlink:href="#glyph-0-0" x="30" y="28.992188"/>
<use xlink:href="#glyph-0-1" x="33" y="28.992188"/>
</g>
<g fill="rgb(100%, 100%, 100%)" fill-opacity="1">
<use xlink:href="#glyph-1-0" x="35" y="28.992188"/>
<use xlink:href="#glyph-1-1" x="40" y="28.992188"/>
<use xlink:href="#glyph-1-2" x="45" y="28.992188"/>
<use xlink:href="#glyph-1-3" x="49" y="28.992188"/>
<use xlink:href="#glyph-1-4" x="51" y="28.992188"/>
<use xlink:href="#glyph-1-5" x="56" y="28.992188"/>
</g>
<g fill="rgb(100%, 100%, 100%)" fill-opacity="1">
<use xlink:href="#glyph-0-1" x="61" y="28.992188"/>
<use xlink:href="#glyph-0-2" x="63" y="28.992188"/>
<use xlink:href="#glyph-0-3" x="67" y="28.992188"/>
<use xlink:href="#glyph-0-1" x="72" y="28.992188"/>
<use xlink:href="#glyph-0-4" x="74" y="28.992188"/>
<use xlink:href="#glyph-0-5" x="76" y="28.992188"/>
<use xlink:href="#glyph-0-1" x="80" y="28.992188"/>
<use xlink:href="#glyph-0-6" x="82" y="28.992188"/>
<use xlink:href="#glyph-0-7" x="87" y="28.992188"/>
<use xlink:href="#glyph-0-8" x="92" y="28.992188"/>
<use xlink:href="#glyph-0-6" x="96" y="28.992188"/>
<use xlink:href="#glyph-0-7" x="101" y="28.992188"/>
</g>
</svg>
