<?xml version="1.0" encoding="UTF-8"?>
<svg xmlns="http://www.w3.org/2000/svg" xmlns:xlink="http://www.w3.org/1999/xlink" width="600" height="400" viewBox="0 0 600 400">
<defs>
<g>
<g id="glyph-0-0">
<path d="M 5.832031 0 L 4.941406 0 L 1.734375 -4.960938 C 1.65625 -5.085938 1.589844 -5.214844 1.535156 -5.351562 L 1.511719 -5.351562 C 1.535156 -5.21875 1.546875 -4.933594 1.546875 -4.496094 L 1.546875 0 L 0.816406 0 L 0.816406 -6.222656 L 1.761719 -6.222656 L 4.878906 -1.339844 C 5.007812 -1.136719 5.09375 -1 5.128906 -0.925781 L 5.148438 -0.925781 C 5.117188 -1.105469 5.105469 -1.410156 5.105469 -1.839844 L 5.105469 -6.222656 L 5.832031 -6.222656 Z "/>
</g>
<g id="glyph-0-1">
<path d="M 3.902344 0 L 3.191406 0 L 3.191406 -0.695312 L 3.171875 -0.695312 C 2.863281 -0.160156 2.40625 0.105469 1.804688 0.105469 C 1.363281 0.105469 1.015625 -0.0117188 0.765625 -0.246094 C 0.515625 -0.480469 0.390625 -0.792969 0.390625 -1.179688 C 0.390625 -2.011719 0.878906 -2.496094 1.859375 -2.628906 L 3.191406 -2.816406 C 3.191406 -3.570312 2.886719 -3.949219 2.273438 -3.949219 C 1.738281 -3.949219 1.253906 -3.765625 0.824219 -3.402344 L 0.824219 -4.132812 C 1.261719 -4.410156 1.765625 -4.550781 2.335938 -4.550781 C 3.378906 -4.550781 3.902344 -3.996094 3.902344 -2.890625 L 3.902344 0 M 3.191406 -2.25 L 2.117188 -2.101562 C 1.789062 -2.054688 1.539062 -1.972656 1.371094 -1.855469 C 1.203125 -1.738281 1.121094 -1.53125 1.121094 -1.234375 C 1.121094 -1.015625 1.195312 -0.839844 1.351562 -0.699219 C 1.507812 -0.5625 1.714844 -0.496094 1.96875 -0.496094 C 2.324219 -0.496094 2.613281 -0.617188 2.84375 -0.867188 C 3.074219 -1.113281 3.191406 -1.425781 3.191406 -1.804688 Z "/>
</g>
<g id="glyph-0-2">
<path d="M 1.085938 -5.574219 C 0.957031 -5.574219 0.847656 -5.617188 0.757812 -5.703125 C 0.667969 -5.789062 0.625 -5.898438 0.625 -6.035156 C 0.625 -6.167969 0.667969 -6.277344 0.757812 -6.367188 C 0.847656 -6.453125 0.957031 -6.496094 1.085938 -6.496094 C 1.214844 -6.496094 1.324219 -6.453125 1.417969 -6.367188 C 1.507812 -6.277344 1.554688 -6.167969 1.554688 -6.035156 C 1.554688 -5.90625 1.507812 -5.796875 1.417969 -5.707031 C 1.324219 -5.617188 1.214844 -5.574219 1.085938 -5.574219 M 1.433594 0 L 0.71875 0 L 0.71875 -4.445312 L 1.433594 -4.445312 Z "/>
</g>
<g id="glyph-0-3">
<path d="M 4.214844 -4.445312 L 2.445312 0 L 1.746094 0 L 0.0625 -4.445312 L 0.84375 -4.445312 L 1.96875 -1.214844 C 2.054688 -0.976562 2.105469 -0.769531 2.125 -0.59375 L 2.144531 -0.59375 C 2.171875 -0.816406 2.21875 -1.019531 2.28125 -1.199219 L 3.464844 -4.445312 Z "/>
</g>
<g id="glyph-0-4">
<path d="M 4.292969 -2.042969 L 1.15625 -2.042969 C 1.167969 -1.550781 1.300781 -1.167969 1.554688 -0.898438 C 1.808594 -0.628906 2.160156 -0.496094 2.605469 -0.496094 C 3.105469 -0.496094 3.566406 -0.660156 3.984375 -0.988281 L 3.984375 -0.320312 C 3.59375 -0.0390625 3.078125 0.105469 2.433594 0.105469 C 1.808594 0.105469 1.3125 -0.0976562 0.953125 -0.5 C 0.597656 -0.90625 0.417969 -1.472656 0.417969 -2.203125 C 0.417969 -2.898438 0.613281 -3.460938 1.003906 -3.894531 C 1.398438 -4.332031 1.882812 -4.550781 2.464844 -4.550781 C 3.046875 -4.550781 3.496094 -4.359375 3.816406 -3.984375 C 4.132812 -3.609375 4.292969 -3.085938 4.292969 -2.417969 L 4.292969 -2.042969 M 3.5625 -2.648438 C 3.5625 -3.058594 3.460938 -3.378906 3.265625 -3.605469 C 3.070312 -3.835938 2.800781 -3.949219 2.453125 -3.949219 C 2.117188 -3.949219 1.832031 -3.828125 1.597656 -3.589844 C 1.363281 -3.347656 1.21875 -3.035156 1.164062 -2.648438 Z "/>
</g>
<g id="glyph-0-5">
</g>
<g id="glyph-0-6">
<path d="M 0.816406 0 L 0.816406 -6.222656 L 2.585938 -6.222656 C 3.125 -6.222656 3.550781 -6.09375 3.867188 -5.828125 C 4.183594 -5.566406 4.339844 -5.222656 4.339844 -4.800781 C 4.339844 -4.449219 4.246094 -4.140625 4.054688 -3.878906 C 3.863281 -3.621094 3.601562 -3.433594 3.265625 -3.324219 L 3.265625 -3.308594 C 3.683594 -3.257812 4.019531 -3.101562 4.269531 -2.832031 C 4.523438 -2.566406 4.648438 -2.214844 4.648438 -1.789062 C 4.648438 -1.253906 4.457031 -0.824219 4.074219 -0.496094 C 3.695312 -0.164062 3.210938 0 2.628906 0 L 0.816406 0 M 1.546875 -5.566406 L 1.546875 -3.554688 L 2.292969 -3.554688 C 2.691406 -3.554688 3.003906 -3.652344 3.234375 -3.84375 C 3.460938 -4.035156 3.578125 -4.308594 3.578125 -4.65625 C 3.578125 -5.261719 3.179688 -5.566406 2.382812 -5.566406 L 1.546875 -5.566406 M 1.546875 -2.898438 L 1.546875 -0.660156 L 2.535156 -0.660156 C 2.964844 -0.660156 3.296875 -0.761719 3.53125 -0.964844 C 3.765625 -1.167969 3.882812 -1.445312 3.882812 -1.796875 C 3.882812 -2.53125 3.382812 -2.898438 2.382812 -2.898438 Z "/>
</g>
<g id="glyph-0-7">
<path d="M 4.257812 -4.445312 L 2.214844 0.710938 C 1.847656 1.632812 1.335938 2.09375 0.675781 2.09375 C 0.492188 2.09375 0.335938 2.074219 0.210938 2.035156 L 0.210938 1.398438 C 0.367188 1.449219 0.507812 1.476562 0.632812 1.476562 C 0.992188 1.476562 1.261719 1.261719 1.441406 0.832031 L 1.796875 -0.0078125 L 0.0625 -4.445312 L 0.851562 -4.445312 L 2.054688 -1.023438 C 2.066406 -0.980469 2.097656 -0.867188 2.144531 -0.6875 L 2.171875 -0.6875 C 2.183594 -0.753906 2.214844 -0.863281 2.257812 -1.015625 L 3.519531 -4.445312 Z "/>
</g>
<g id="glyph-0-8">
<path d="M 0.453125 -0.160156 L 0.453125 -0.925781 C 0.839844 -0.636719 1.265625 -0.496094 1.730469 -0.496094 C 2.355469 -0.496094 2.667969 -0.703125 2.667969 -1.121094 C 2.667969 -1.238281 2.644531 -1.339844 2.589844 -1.421875 C 2.535156 -1.503906 2.464844 -1.578125 2.371094 -1.640625 C 2.28125 -1.703125 2.175781 -1.761719 2.050781 -1.8125 C 1.929688 -1.863281 1.796875 -1.914062 1.652344 -1.96875 C 1.457031 -2.046875 1.285156 -2.128906 1.136719 -2.207031 C 0.984375 -2.285156 0.863281 -2.375 0.761719 -2.476562 C 0.660156 -2.574219 0.585938 -2.691406 0.535156 -2.816406 C 0.484375 -2.945312 0.460938 -3.09375 0.460938 -3.265625 C 0.460938 -3.472656 0.507812 -3.65625 0.601562 -3.816406 C 0.699219 -3.976562 0.824219 -4.113281 0.984375 -4.222656 C 1.144531 -4.328125 1.324219 -4.410156 1.53125 -4.464844 C 1.734375 -4.519531 1.945312 -4.550781 2.160156 -4.550781 C 2.546875 -4.550781 2.890625 -4.480469 3.195312 -4.347656 L 3.195312 -3.628906 C 2.867188 -3.84375 2.492188 -3.949219 2.066406 -3.949219 C 1.933594 -3.949219 1.8125 -3.933594 1.707031 -3.902344 C 1.597656 -3.875 1.507812 -3.832031 1.429688 -3.777344 C 1.351562 -3.722656 1.292969 -3.65625 1.253906 -3.578125 C 1.210938 -3.503906 1.1875 -3.417969 1.1875 -3.324219 C 1.1875 -3.210938 1.210938 -3.113281 1.253906 -3.035156 C 1.292969 -2.957031 1.355469 -2.886719 1.4375 -2.824219 C 1.519531 -2.765625 1.617188 -2.710938 1.730469 -2.660156 C 1.847656 -2.613281 1.980469 -2.558594 2.125 -2.5 C 2.324219 -2.425781 2.5 -2.347656 2.65625 -2.269531 C 2.8125 -2.1875 2.945312 -2.097656 3.054688 -2 C 3.164062 -1.898438 3.25 -1.785156 3.308594 -1.652344 C 3.367188 -1.523438 3.398438 -1.367188 3.398438 -1.1875 C 3.398438 -0.96875 3.351562 -0.777344 3.253906 -0.617188 C 3.15625 -0.453125 3.027344 -0.320312 2.863281 -0.210938 C 2.703125 -0.105469 2.515625 -0.0273438 2.304688 0.0273438 C 2.09375 0.078125 1.871094 0.105469 1.640625 0.105469 C 1.183594 0.105469 0.785156 0.015625 0.453125 -0.160156 Z "/>
</g>
<g id="glyph-0-9">
<path d="M 5.050781 -0.261719 C 4.59375 -0.015625 4.019531 0.105469 3.332031 0.105469 C 2.449219 0.105469 1.738281 -0.179688 1.207031 -0.75 C 0.675781 -1.320312 0.40625 -2.070312 0.40625 -2.996094 C 0.40625 -3.992188 0.707031 -4.792969 1.304688 -5.410156 C 1.90625 -6.023438 2.664062 -6.328125 3.585938 -6.328125 C 4.175781 -6.328125 4.664062 -6.242188 5.050781 -6.074219 L 5.050781 -5.296875 C 4.605469 -5.542969 4.113281 -5.667969 3.578125 -5.667969 C 2.863281 -5.667969 2.28125 -5.429688 1.839844 -4.953125 C 1.394531 -4.476562 1.171875 -3.835938 1.171875 -3.039062 C 1.171875 -2.28125 1.378906 -1.675781 1.792969 -1.226562 C 2.210938 -0.777344 2.753906 -0.550781 3.429688 -0.550781 C 4.054688 -0.550781 4.59375 -0.691406 5.050781 -0.96875 Z "/>
</g>
<g id="glyph-0-10">
<path d="M 1.433594 0 L 0.71875 0 L 0.71875 -6.582031 L 1.433594 -6.582031 Z "/>
</g>
<g id="glyph-0-11">
<path d="M 2.917969 -5.957031 C 2.777344 -6.035156 2.621094 -6.074219 2.445312 -6.074219 C 1.945312 -6.074219 1.695312 -5.757812 1.695312 -5.128906 L 1.695312 -4.445312 L 2.738281 -4.445312 L 2.738281 -3.835938 L 1.695312 -3.835938 L 1.695312 0 L 0.988281 0 L 0.988281 -3.835938 L 0.230469 -3.835938 L 0.230469 -4.445312 L 0.988281 -4.445312 L 0.988281 -5.164062 C 0.988281 -5.632812 1.125 -6 1.394531 -6.269531 C 1.664062 -6.539062 2 -6.675781 2.398438 -6.675781 C 2.617188 -6.675781 2.789062 -6.648438 2.917969 -6.597656 Z "/>
</g>
<g id="glyph-0-12">
<path d="M 3.039062 -3.722656 C 2.914062 -3.820312 2.734375 -3.867188 2.5 -3.867188 C 2.195312 -3.867188 1.941406 -3.722656 1.738281 -3.4375 C 1.535156 -3.152344 1.433594 -2.761719 1.433594 -2.265625 L 1.433594 0 L 0.71875 0 L 0.71875 -4.445312 L 1.433594 -4.445312 L 1.433594 -3.527344 L 1.449219 -3.527344 C 1.550781 -3.839844 1.707031 -4.085938 1.914062 -4.261719 C 2.121094 -4.433594 2.355469 -4.523438 2.613281 -4.523438 C 2.796875 -4.523438 2.941406 -4.503906 3.039062 -4.460938 Z "/>
</g>
<g id="glyph-0-13">
<path d="M 2.996094 -2.195312 L 0.625 -2.195312 L 0.625 -2.757812 L 2.996094 -2.757812 Z "/>
</g>
<g id="glyph-0-14">
<path d="M 5.496094 0 L 4.765625 0 L 4.765625 -2.839844 L 1.546875 -2.839844 L 1.546875 0 L 0.816406 0 L 0.816406 -6.222656 L 1.546875 -6.222656 L 1.546875 -3.492188 L 4.765625 -3.492188 L 4.765625 -6.222656 L 5.496094 -6.222656 Z "/>
</g>
<g id="glyph-0-15">
<path d="M 4.292969 -2.042969 L 1.15625 -2.042969 C 1.167969 -1.550781 1.300781 -1.167969 1.554688 -0.898438 C 1.808594 -0.628906 2.160156 -0.496094 2.605469 -0.496094 C 3.105469 -0.496094 3.566406 -0.660156 3.984375 -0.988281 L 3.984375 -0.320312 C 3.59375 -0.0390625 3.078125 0.105469 2.433594 0.105469 C 1.808594 0.105469 1.3125 -0.0976562 0.953125 -0.5 C 0.597656 -0.90625 0.417969 -1.472656 0.417969 -2.203125 C 0.417969 -2.898438 0.613281 -3.460938 1.003906 -3.894531 C 1.398438 -4.332031 1.882812 -4.550781 2.464844 -4.550781 C 3.046875 -4.550781 3.496094 -4.359375 3.816406 -3.984375 C 4.132812 -3.609375 4.292969 -3.085938 4.292969 -2.417969 L 4.292969 -2.042969 M 3.5625 -2.648438 C 3.5625 -3.058594 3.460938 -3.378906 3.265625 -3.605469 C 3.070312 -3.835938 2.800781 -3.949219 2.453125 -3.949219 C 2.117188 -3.949219 1.832031 -3.828125 1.597656 -3.589844 C 1.363281 -3.347656 1.21875 -3.035156 1.164062 -2.648438 L 3.5625 -2.648438 M 3.628906 -5.285156 L 3.097656 -5.285156 L 2.386719 -6.285156 L 1.671875 -5.285156 L 1.179688 -5.285156 L 2.113281 -6.726562 L 2.691406 -6.726562 L 3.628906 -5.285156 M 2.515625 1.363281 C 2.398438 1.363281 2.296875 1.320312 2.214844 1.238281 C 2.128906 1.152344 2.085938 1.050781 2.085938 0.933594 C 2.085938 0.816406 2.132812 0.714844 2.21875 0.636719 C 2.304688 0.554688 2.40625 0.515625 2.515625 0.515625 C 2.636719 0.515625 2.738281 0.554688 2.820312 0.636719 C 2.90625 0.714844 2.945312 0.816406 2.945312 0.933594 C 2.945312 1.050781 2.90625 1.152344 2.820312 1.238281 C 2.738281 1.320312 2.636719 1.363281 2.515625 1.363281 Z "/>
</g>
<g id="glyph-0-16">
<path d="M 2.78125 -0.0429688 C 2.613281 0.0507812 2.394531 0.09375 2.117188 0.09375 C 1.339844 0.09375 0.949219 -0.339844 0.949219 -1.207031 L 0.949219 -3.835938 L 0.1875 -3.835938 L 0.1875 -4.445312 L 0.949219 -4.445312 L 0.949219 -5.53125 L 1.664062 -5.761719 L 1.664062 -4.445312 L 2.78125 -4.445312 L 2.78125 -3.835938 L 1.664062 -3.835938 L 1.664062 -1.332031 C 1.664062 -1.035156 1.714844 -0.820312 1.8125 -0.695312 C 1.914062 -0.566406 2.082031 -0.503906 2.316406 -0.503906 C 2.496094 -0.503906 2.652344 -0.550781 2.78125 -0.652344 Z "/>
</g>
<g id="glyph-0-17">
<path d="M 4.410156 0 L 3.699219 0 L 3.699219 -2.5625 C 3.699219 -3.488281 3.355469 -3.949219 2.664062 -3.949219 C 2.316406 -3.949219 2.027344 -3.816406 1.789062 -3.546875 C 1.550781 -3.28125 1.433594 -2.9375 1.433594 -2.515625 L 1.433594 0 L 0.71875 0 L 0.71875 -6.582031 L 1.433594 -6.582031 L 1.433594 -3.707031 L 1.449219 -3.707031 C 1.792969 -4.269531 2.277344 -4.550781 2.90625 -4.550781 C 3.910156 -4.550781 4.410156 -3.945312 4.410156 -2.738281 Z "/>
</g>
<g id="glyph-0-18">
<path d="M 2.578125 0.105469 C 1.921875 0.105469 1.398438 -0.101562 1.003906 -0.519531 C 0.613281 -0.933594 0.417969 -1.484375 0.417969 -2.171875 C 0.417969 -2.917969 0.621094 -3.5 1.027344 -3.917969 C 1.4375 -4.339844 1.988281 -4.550781 2.683594 -4.550781 C 3.34375 -4.550781 3.863281 -4.34375 4.234375 -3.9375 C 4.605469 -3.527344 4.792969 -2.964844 4.792969 -2.238281 C 4.792969 -1.53125 4.589844 -0.960938 4.191406 -0.535156 C 3.789062 -0.109375 3.253906 0.105469 2.578125 0.105469 M 2.628906 -3.949219 C 2.171875 -3.949219 1.8125 -3.792969 1.546875 -3.484375 C 1.277344 -3.171875 1.144531 -2.742188 1.144531 -2.195312 C 1.144531 -1.667969 1.28125 -1.253906 1.550781 -0.949219 C 1.820312 -0.648438 2.179688 -0.496094 2.628906 -0.496094 C 3.089844 -0.496094 3.445312 -0.644531 3.691406 -0.941406 C 3.9375 -1.238281 4.0625 -1.664062 4.0625 -2.214844 C 4.0625 -2.769531 3.9375 -3.199219 3.691406 -3.5 C 3.445312 -3.800781 3.089844 -3.949219 2.628906 -3.949219 M 3.59375 -5.945312 L 4.375 -7.015625 L 5.105469 -7.015625 L 4.144531 -5.945312 L 3.59375 -5.945312 M 3.878906 -5.285156 L 3.355469 -5.285156 L 2.644531 -5.929688 L 1.921875 -5.285156 L 1.433594 -5.285156 L 2.371094 -6.371094 L 2.941406 -6.371094 Z "/>
</g>
<g id="glyph-0-19">
<path d="M 4.410156 0 L 3.699219 0 L 3.699219 -2.535156 C 3.699219 -3.476562 3.355469 -3.949219 2.664062 -3.949219 C 2.308594 -3.949219 2.015625 -3.816406 1.78125 -3.546875 C 1.550781 -3.28125 1.433594 -2.941406 1.433594 -2.535156 L 1.433594 0 L 0.71875 0 L 0.71875 -4.445312 L 1.433594 -4.445312 L 1.433594 -3.707031 L 1.449219 -3.707031 C 1.785156 -4.269531 2.273438 -4.550781 2.90625 -4.550781 C 3.394531 -4.550781 3.765625 -4.390625 4.023438 -4.078125 C 4.28125 -3.765625 4.410156 -3.308594 4.410156 -2.71875 Z "/>
</g>
<g id="glyph-0-20">
<path d="M 4.515625 -0.355469 C 4.515625 1.277344 3.734375 2.09375 2.171875 2.09375 C 1.621094 2.09375 1.140625 1.988281 0.730469 1.78125 L 0.730469 1.066406 C 1.230469 1.34375 1.707031 1.484375 2.160156 1.484375 C 3.253906 1.484375 3.800781 0.902344 3.800781 -0.261719 L 3.800781 -0.746094 L 3.785156 -0.746094 C 3.445312 -0.179688 2.9375 0.105469 2.257812 0.105469 C 1.703125 0.105469 1.257812 -0.09375 0.921875 -0.488281 C 0.585938 -0.882812 0.417969 -1.414062 0.417969 -2.078125 C 0.417969 -2.835938 0.597656 -3.433594 0.960938 -3.878906 C 1.324219 -4.324219 1.820312 -4.550781 2.453125 -4.550781 C 3.050781 -4.550781 3.496094 -4.308594 3.785156 -3.828125 L 3.800781 -3.828125 L 3.800781 -4.445312 L 4.515625 -4.445312 L 4.515625 -0.355469 M 3.800781 -2.007812 L 3.800781 -2.664062 C 3.800781 -3.019531 3.683594 -3.320312 3.445312 -3.570312 C 3.207031 -3.824219 2.90625 -3.949219 2.550781 -3.949219 C 2.113281 -3.949219 1.769531 -3.789062 1.519531 -3.46875 C 1.269531 -3.152344 1.144531 -2.703125 1.144531 -2.125 C 1.144531 -1.632812 1.265625 -1.234375 1.503906 -0.941406 C 1.742188 -0.644531 2.058594 -0.496094 2.453125 -0.496094 C 2.851562 -0.496094 3.175781 -0.636719 3.425781 -0.921875 C 3.675781 -1.203125 3.800781 -1.566406 3.800781 -2.007812 Z "/>
</g>
<g id="glyph-0-21">
<path d="M 2.578125 0.105469 C 1.921875 0.105469 1.398438 -0.101562 1.003906 -0.519531 C 0.613281 -0.933594 0.417969 -1.484375 0.417969 -2.171875 C 0.417969 -2.917969 0.621094 -3.5 1.027344 -3.917969 C 1.4375 -4.339844 1.988281 -4.550781 2.683594 -4.550781 C 3.34375 -4.550781 3.863281 -4.34375 4.234375 -3.9375 C 4.605469 -3.527344 4.792969 -2.964844 4.792969 -2.238281 C 4.792969 -1.53125 4.589844 -0.960938 4.191406 -0.535156 C 3.789062 -0.109375 3.253906 0.105469 2.578125 0.105469 M 2.628906 -3.949219 C 2.171875 -3.949219 1.8125 -3.792969 1.546875 -3.484375 C 1.277344 -3.171875 1.144531 -2.742188 1.144531 -2.195312 C 1.144531 -1.667969 1.28125 -1.253906 1.550781 -0.949219 C 1.820312 -0.648438 2.179688 -0.496094 2.628906 -0.496094 C 3.089844 -0.496094 3.445312 -0.644531 3.691406 -0.941406 C 3.9375 -1.238281 4.0625 -1.664062 4.0625 -2.214844 C 4.0625 -2.769531 3.9375 -3.199219 3.691406 -3.5 C 3.445312 -3.800781 3.089844 -3.949219 2.628906 -3.949219 M 2.617188 1.363281 C 2.5 1.363281 2.398438 1.320312 2.3125 1.238281 C 2.230469 1.152344 2.1875 1.050781 2.1875 0.933594 C 2.1875 0.816406 2.230469 0.714844 2.316406 0.636719 C 2.40625 0.554688 2.503906 0.515625 2.617188 0.515625 C 2.734375 0.515625 2.835938 0.554688 2.921875 0.636719 C 3.003906 0.714844 3.046875 0.816406 3.046875 0.933594 C 3.046875 1.050781 3.003906 1.152344 2.921875 1.238281 C 2.835938 1.320312 2.734375 1.363281 2.617188 1.363281 Z "/>
</g>
<g id="glyph-0-22">
<path d="M 3.75 -0.203125 C 3.410156 0 3.003906 0.105469 2.535156 0.105469 C 1.902344 0.105469 1.390625 -0.101562 1 -0.515625 C 0.609375 -0.925781 0.417969 -1.460938 0.417969 -2.117188 C 0.417969 -2.851562 0.625 -3.4375 1.046875 -3.882812 C 1.464844 -4.328125 2.027344 -4.550781 2.726562 -4.550781 C 3.117188 -4.550781 3.460938 -4.476562 3.757812 -4.332031 L 3.757812 -3.601562 C 3.429688 -3.835938 3.074219 -3.949219 2.699219 -3.949219 C 2.246094 -3.949219 1.871094 -3.785156 1.582031 -3.460938 C 1.292969 -3.136719 1.144531 -2.707031 1.144531 -2.179688 C 1.144531 -1.65625 1.28125 -1.246094 1.554688 -0.945312 C 1.828125 -0.644531 2.195312 -0.496094 2.65625 -0.496094 C 3.042969 -0.496094 3.410156 -0.625 3.75 -0.882812 Z "/>
</g>
<g id="glyph-0-23">
<path d="M 0.523438 -0.25 L 0.523438 -1.109375 C 0.625 -1.023438 0.742188 -0.945312 0.878906 -0.875 C 1.015625 -0.808594 1.160156 -0.75 1.3125 -0.699219 C 1.464844 -0.652344 1.617188 -0.617188 1.769531 -0.589844 C 1.925781 -0.5625 2.066406 -0.550781 2.195312 -0.550781 C 2.644531 -0.550781 2.980469 -0.632812 3.199219 -0.800781 C 3.421875 -0.96875 3.53125 -1.207031 3.53125 -1.519531 C 3.53125 -1.6875 3.496094 -1.832031 3.421875 -1.957031 C 3.347656 -2.082031 3.246094 -2.195312 3.117188 -2.296875 C 2.984375 -2.402344 2.832031 -2.5 2.652344 -2.59375 C 2.476562 -2.6875 2.285156 -2.785156 2.078125 -2.890625 C 1.863281 -3 1.660156 -3.113281 1.472656 -3.226562 C 1.285156 -3.335938 1.121094 -3.460938 0.980469 -3.597656 C 0.84375 -3.734375 0.734375 -3.886719 0.652344 -4.058594 C 0.574219 -4.234375 0.535156 -4.433594 0.535156 -4.667969 C 0.535156 -4.949219 0.597656 -5.195312 0.71875 -5.40625 C 0.84375 -5.617188 1.007812 -5.789062 1.210938 -5.925781 C 1.414062 -6.0625 1.644531 -6.160156 1.902344 -6.230469 C 2.164062 -6.296875 2.425781 -6.328125 2.695312 -6.328125 C 3.308594 -6.328125 3.757812 -6.253906 4.035156 -6.105469 L 4.035156 -5.285156 C 3.667969 -5.542969 3.199219 -5.667969 2.621094 -5.667969 C 2.460938 -5.667969 2.304688 -5.652344 2.144531 -5.617188 C 1.984375 -5.585938 1.84375 -5.53125 1.71875 -5.457031 C 1.59375 -5.378906 1.492188 -5.285156 1.414062 -5.164062 C 1.335938 -5.046875 1.296875 -4.902344 1.296875 -4.730469 C 1.296875 -4.570312 1.328125 -4.433594 1.386719 -4.320312 C 1.445312 -4.203125 1.535156 -4.097656 1.648438 -4 C 1.765625 -3.90625 1.90625 -3.8125 2.074219 -3.722656 C 2.238281 -3.632812 2.429688 -3.535156 2.648438 -3.429688 C 2.871094 -3.320312 3.082031 -3.203125 3.28125 -3.082031 C 3.480469 -2.960938 3.65625 -2.824219 3.804688 -2.679688 C 3.957031 -2.53125 4.078125 -2.367188 4.164062 -2.1875 C 4.253906 -2.007812 4.296875 -1.804688 4.296875 -1.570312 C 4.296875 -1.265625 4.238281 -1.003906 4.117188 -0.792969 C 3.996094 -0.578125 3.835938 -0.40625 3.628906 -0.273438 C 3.425781 -0.140625 3.191406 -0.0429688 2.925781 0.015625 C 2.660156 0.0742188 2.378906 0.105469 2.082031 0.105469 C 1.984375 0.105469 1.863281 0.0976562 1.71875 0.0820312 C 1.574219 0.0625 1.425781 0.0429688 1.277344 0.0117188 C 1.125 -0.0195312 0.984375 -0.0585938 0.847656 -0.101562 C 0.714844 -0.148438 0.605469 -0.195312 0.523438 -0.25 Z "/>
</g>
<g id="glyph-0-24">
<path d="M 1.449219 -0.640625 L 1.433594 -0.640625 L 1.433594 2.042969 L 0.71875 2.042969 L 0.71875 -4.445312 L 1.433594 -4.445312 L 1.433594 -3.664062 L 1.449219 -3.664062 C 1.800781 -4.253906 2.3125 -4.550781 2.984375 -4.550781 C 3.558594 -4.550781 4.007812 -4.351562 4.328125 -3.953125 C 4.648438 -3.554688 4.808594 -3.019531 4.808594 -2.351562 C 4.808594 -1.609375 4.628906 -1.011719 4.265625 -0.566406 C 3.90625 -0.121094 3.410156 0.105469 2.78125 0.105469 C 2.207031 0.105469 1.761719 -0.144531 1.449219 -0.640625 M 1.433594 -2.433594 L 1.433594 -1.8125 C 1.433594 -1.445312 1.550781 -1.136719 1.789062 -0.878906 C 2.027344 -0.621094 2.332031 -0.496094 2.699219 -0.496094 C 3.132812 -0.496094 3.46875 -0.660156 3.714844 -0.988281 C 3.957031 -1.320312 4.078125 -1.777344 4.078125 -2.367188 C 4.078125 -2.859375 3.964844 -3.25 3.738281 -3.527344 C 3.507812 -3.808594 3.199219 -3.949219 2.808594 -3.949219 C 2.394531 -3.949219 2.0625 -3.804688 1.808594 -3.519531 C 1.558594 -3.230469 1.433594 -2.867188 1.433594 -2.433594 Z "/>
</g>
<g id="glyph-0-25">
<path d="M 7.03125 0 L 6.320312 0 L 6.320312 -2.550781 C 6.320312 -3.042969 6.242188 -3.398438 6.09375 -3.621094 C 5.941406 -3.839844 5.683594 -3.949219 5.324219 -3.949219 C 5.023438 -3.949219 4.765625 -3.8125 4.550781 -3.53125 C 4.339844 -3.253906 4.230469 -2.921875 4.230469 -2.535156 L 4.230469 0 L 3.519531 0 L 3.519531 -2.640625 C 3.519531 -3.511719 3.183594 -3.949219 2.507812 -3.949219 C 2.195312 -3.949219 1.9375 -3.820312 1.734375 -3.558594 C 1.535156 -3.296875 1.433594 -2.953125 1.433594 -2.535156 L 1.433594 0 L 0.71875 0 L 0.71875 -4.445312 L 1.433594 -4.445312 L 1.433594 -3.742188 L 1.449219 -3.742188 C 1.765625 -4.28125 2.226562 -4.550781 2.828125 -4.550781 C 3.132812 -4.550781 3.398438 -4.464844 3.625 -4.292969 C 3.851562 -4.125 4.003906 -3.902344 4.089844 -3.628906 C 4.417969 -4.242188 4.910156 -4.550781 5.566406 -4.550781 C 6.542969 -4.550781 7.03125 -3.945312 7.03125 -2.738281 Z "/>
</g>
<g id="glyph-0-26">
<path d="M 4.3125 0 L 3.601562 0 L 3.601562 -0.703125 L 3.585938 -0.703125 C 3.289062 -0.164062 2.832031 0.105469 2.214844 0.105469 C 1.15625 0.105469 0.625 -0.527344 0.625 -1.789062 L 0.625 -4.445312 L 1.332031 -4.445312 L 1.332031 -1.902344 C 1.332031 -0.964844 1.691406 -0.496094 2.410156 -0.496094 C 2.757812 -0.496094 3.042969 -0.621094 3.265625 -0.878906 C 3.492188 -1.136719 3.601562 -1.46875 3.601562 -1.882812 L 3.601562 -4.445312 L 4.3125 -4.445312 L 4.3125 0 M 2 -6.820312 C 2.109375 -6.832031 2.222656 -6.835938 2.347656 -6.835938 C 2.601562 -6.835938 2.8125 -6.777344 2.976562 -6.652344 C 3.140625 -6.53125 3.21875 -6.367188 3.21875 -6.164062 C 3.21875 -5.988281 3.164062 -5.839844 3.054688 -5.714844 C 2.941406 -5.59375 2.804688 -5.523438 2.640625 -5.503906 L 2.640625 -5.285156 L 2.171875 -5.285156 L 2.171875 -5.785156 C 2.496094 -5.785156 2.65625 -5.894531 2.65625 -6.117188 C 2.65625 -6.296875 2.519531 -6.390625 2.25 -6.390625 C 2.199219 -6.390625 2.117188 -6.378906 2 -6.355469 Z "/>
</g>
<g id="glyph-0-27">
<path d="M 5.46875 -0.425781 C 4.84375 -0.0742188 4.148438 0.105469 3.386719 0.105469 C 2.496094 0.105469 1.777344 -0.183594 1.230469 -0.753906 C 0.683594 -1.328125 0.40625 -2.085938 0.40625 -3.03125 C 0.40625 -3.992188 0.710938 -4.785156 1.320312 -5.402344 C 1.929688 -6.019531 2.703125 -6.328125 3.636719 -6.328125 C 4.3125 -6.328125 4.882812 -6.21875 5.34375 -6 L 5.34375 -5.191406 C 4.839844 -5.507812 4.242188 -5.667969 3.554688 -5.667969 C 2.859375 -5.667969 2.285156 -5.429688 1.839844 -4.949219 C 1.394531 -4.46875 1.171875 -3.84375 1.171875 -3.082031 C 1.171875 -2.292969 1.378906 -1.675781 1.792969 -1.226562 C 2.207031 -0.777344 2.769531 -0.550781 3.476562 -0.550781 C 3.960938 -0.550781 4.382812 -0.648438 4.738281 -0.84375 L 4.738281 -2.585938 L 3.375 -2.585938 L 3.375 -3.246094 L 5.46875 -3.246094 Z "/>
</g>
<g id="glyph-0-28">
<path d="M 2.578125 0.105469 C 1.921875 0.105469 1.398438 -0.101562 1.003906 -0.519531 C 0.613281 -0.933594 0.417969 -1.484375 0.417969 -2.171875 C 0.417969 -2.917969 0.621094 -3.5 1.027344 -3.917969 C 1.4375 -4.339844 1.988281 -4.550781 2.683594 -4.550781 C 3.34375 -4.550781 3.863281 -4.34375 4.234375 -3.9375 C 4.605469 -3.527344 4.792969 -2.964844 4.792969 -2.238281 C 4.792969 -1.53125 4.589844 -0.960938 4.191406 -0.535156 C 3.789062 -0.109375 3.253906 0.105469 2.578125 0.105469 M 2.628906 -3.949219 C 2.171875 -3.949219 1.8125 -3.792969 1.546875 -3.484375 C 1.277344 -3.171875 1.144531 -2.742188 1.144531 -2.195312 C 1.144531 -1.667969 1.28125 -1.253906 1.550781 -0.949219 C 1.820312 -0.648438 2.179688 -0.496094 2.628906 -0.496094 C 3.089844 -0.496094 3.445312 -0.644531 3.691406 -0.941406 C 3.9375 -1.238281 4.0625 -1.664062 4.0625 -2.214844 C 4.0625 -2.769531 3.9375 -3.199219 3.691406 -3.5 C 3.445312 -3.800781 3.089844 -3.949219 2.628906 -3.949219 Z "/>
</g>
</g>
</defs>
<g fill="rgb(100%, 100%, 100%)" fill-opacity="1">
<use xlink:href="#glyph-0-0" x="30" y="29.591797"/>
<use xlink:href="#glyph-0-1" x="37" y="29.591797"/>
<use xlink:href="#glyph-0-2" x="42" y="29.591797"/>
<use xlink:href="#glyph-0-3" x="44" y="29.591797"/>
<use xlink:href="#glyph-0-4" x="48" y="29.591797"/>
<use xlink:href="#glyph-0-5" x="53" y="29.591797"/>
<use xlink:href="#glyph-0-6" x="55" y="29.591797"/>
<use xlink:href="#glyph-0-1" x="60" y="29.591797"/>
<use xlink:href="#glyph-0-7" x="65" y="29.591797"/>
<use xlink:href="#glyph-0-4" x="69" y="29.591797"/>
<use xlink:href="#glyph-0-8" x="74" y="29.591797"/>
<use xlink:href="#glyph-0-5" x="78" y="29.591797"/>
<use xlink:href="#glyph-0-9" x="80" y="29.591797"/>
<use xlink:href="#glyph-0-10" x="86" y="29.591797"/>
<use xlink:href="#glyph-0-1" x="88" y="29.591797"/>
<use xlink:href="#glyph-0-8" x="93" y="29.591797"/>
<use xlink:href="#glyph-0-8" x="97" y="29.591797"/>
<use xlink:href="#glyph-0-2" x="101" y="29.591797"/>
<use xlink:href="#glyph-0-11" x="103" y="29.591797"/>
<use xlink:href="#glyph-0-2" x="106" y="29.591797"/>
<use xlink:href="#glyph-0-4" x="108" y="29.591797"/>
<use xlink:href="#glyph-0-12" x="113" y="29.591797"/>
<use xlink:href="#glyph-0-5" x="116" y="29.591797"/>
<use xlink:href="#glyph-0-13" x="118" y="29.591797"/>
<use xlink:href="#glyph-0-5" x="122" y="29.591797"/>
<use xlink:href="#glyph-0-14" x="124" y="29.591797"/>
<use xlink:href="#glyph-0-15" x="130" y="29.591797"/>
<use xlink:href="#glyph-0-5" x="135" y="29.591797"/>
<use xlink:href="#glyph-0-16" x="137" y="29.591797"/>
<use xlink:href="#glyph-0-17" x="140" y="29.591797"/>
<use xlink:href="#glyph-0-18" x="145" y="29.591797"/>
<use xlink:href="#glyph-0-19" x="150" y="29.591797"/>
<use xlink:href="#glyph-0-20" x="155" y="29.591797"/>
<use xlink:href="#glyph-0-5" x="160" y="29.591797"/>
<use xlink:href="#glyph-0-10" x="162" y="29.591797"/>
<use xlink:href="#glyph-0-21" x="164" y="29.591797"/>
<use xlink:href="#glyph-0-22" x="169" y="29.591797"/>
<use xlink:href="#glyph-0-5" x="173" y="29.591797"/>
<use xlink:href="#glyph-0-23" x="175" y="29.591797"/>
<use xlink:href="#glyph-0-24" x="180" y="29.591797"/>
<use xlink:href="#glyph-0-1" x="185" y="29.591797"/>
<use xlink:href="#glyph-0-25" x="190" y="29.591797"/>
<use xlink:href="#glyph-0-5" x="198" y="29.591797"/>
<use xlink:href="#glyph-0-22" x="200" y="29.591797"/>
<use xlink:href="#glyph-0-26" x="204" y="29.591797"/>
<use xlink:href="#glyph-0-1" x="209" y="29.591797"/>
<use xlink:href="#glyph-0-5" x="214" y="29.591797"/>
</g>
<path fill-rule="nonzero" fill="rgb(100%, 100%, 100%)" fill-opacity="1" d="M 29.816406 30.59375 L 216 30.59375 L 216 31.59375 L 29.816406 31.59375 Z "/>
<g fill="rgb(0%, 90.196078%, 46.27451%)" fill-opacity="1">
<use xlink:href="#glyph-0-27" x="216" y="29.591797"/>
<use xlink:href="#glyph-0-28" x="222" y="29.591797"/>
<use xlink:href="#glyph-0-28" x="227" y="29.591797"/>
<use xlink:href="#glyph-0-20" x="232" y="29.591797"/>
<use xlink:href="#glyph-0-10" x="237" y="29.591797"/>
<use xlink:href="#glyph-0-4" x="239" y="29.591797"/>
</g>
<path fill-rule="nonzero" fill="rgb(0%, 90.196078%, 46.27451%)" fill-opacity="1" d="M 216 30.59375 L 244.292969 30.59375 L 244.292969 31.59375 L 216 31.59375 Z "/>
</svg>
