<?xml version="1.0" encoding="UTF-8"?>
<svg xmlns="http://www.w3.org/2000/svg" xmlns:xlink="http://www.w3.org/1999/xlink" width="1080" height="1920" viewBox="0 0 1080 1920">
<defs>
<g>
<g id="glyph-0-0">
<path d="M 3.636719 -4.320312 C 3.570312 -4.507812 3.511719 -4.75 3.460938 -5.050781 C 3.410156 -5.351562 3.386719 -5.648438 3.386719 -5.945312 C 3.386719 -6.410156 3.476562 -6.828125 3.664062 -7.199219 C 3.847656 -7.570312 4.078125 -7.921875 4.351562 -8.246094 C 4.625 -8.570312 4.925781 -8.886719 5.25 -9.183594 C 5.578125 -9.484375 5.878906 -9.789062 6.152344 -10.097656 C 6.425781 -10.402344 6.65625 -10.726562 6.839844 -11.0625 C 7.027344 -11.398438 7.117188 -11.769531 7.117188 -12.175781 C 7.117188 -12.523438 7.050781 -12.828125 6.917969 -13.097656 C 6.785156 -13.363281 6.601562 -13.589844 6.371094 -13.769531 C 6.136719 -13.949219 5.871094 -14.085938 5.566406 -14.175781 C 5.261719 -14.265625 4.941406 -14.3125 4.601562 -14.3125 C 3.378906 -14.3125 2.320312 -13.832031 1.421875 -12.871094 L 1.421875 -14.777344 C 2.527344 -15.472656 3.675781 -15.820312 4.859375 -15.820312 C 5.410156 -15.820312 5.929688 -15.75 6.414062 -15.605469 C 6.898438 -15.457031 7.324219 -15.242188 7.6875 -14.957031 C 8.054688 -14.671875 8.339844 -14.316406 8.550781 -13.890625 C 8.761719 -13.460938 8.863281 -12.96875 8.863281 -12.402344 C 8.863281 -11.867188 8.769531 -11.390625 8.582031 -10.96875 C 8.394531 -10.550781 8.15625 -10.164062 7.871094 -9.816406 C 7.585938 -9.464844 7.277344 -9.136719 6.945312 -8.832031 C 6.613281 -8.527344 6.300781 -8.226562 6.015625 -7.925781 C 5.730469 -7.625 5.496094 -7.3125 5.304688 -6.988281 C 5.117188 -6.664062 5.023438 -6.304688 5.023438 -5.914062 C 5.023438 -5.582031 5.0625 -5.277344 5.144531 -5.007812 C 5.222656 -4.738281 5.300781 -4.507812 5.382812 -4.320312 L 3.636719 -4.320312 M 4.613281 0.195312 C 4.292969 0.195312 4.011719 0.078125 3.765625 -0.152344 C 3.527344 -0.382812 3.40625 -0.664062 3.40625 -1 C 3.40625 -1.339844 3.527344 -1.621094 3.765625 -1.84375 C 4.003906 -2.082031 4.285156 -2.203125 4.613281 -2.203125 C 4.9375 -2.203125 5.21875 -2.082031 5.457031 -1.84375 C 5.695312 -1.621094 5.816406 -1.339844 5.816406 -1 C 5.816406 -0.664062 5.695312 -0.382812 5.457031 -0.152344 C 5.210938 0.078125 4.929688 0.195312 4.613281 0.195312 Z "/>
</g>
</g>
</defs>
<g fill="rgb(98.823529%, 38.431373%, 33.333333%)" fill-opacity="1">
<use xlink:href="#glyph-0-0" x="30" y="43.980469"/>
</g>
</svg>
