<?xml version="1.0" encoding="UTF-8"?>
<svg xmlns="http://www.w3.org/2000/svg" xmlns:xlink="http://www.w3.org/1999/xlink" width="1080" height="1920" viewBox="0 0 1080 1920">
<defs>
<g>
<g id="glyph-0-0">
<path d="M 0.789062 -0.378906 L 0.789062 -1.667969 C 0.933594 -1.535156 1.113281 -1.417969 1.316406 -1.316406 C 1.523438 -1.210938 1.742188 -1.125 1.96875 -1.050781 C 2.195312 -0.980469 2.425781 -0.925781 2.65625 -0.886719 C 2.886719 -0.847656 3.097656 -0.828125 3.292969 -0.828125 C 3.96875 -0.828125 4.46875 -0.953125 4.800781 -1.203125 C 5.132812 -1.449219 5.300781 -1.808594 5.300781 -2.277344 C 5.300781 -2.53125 5.242188 -2.75 5.132812 -2.9375 C 5.023438 -3.121094 4.871094 -3.292969 4.675781 -3.445312 C 4.480469 -3.601562 4.25 -3.75 3.980469 -3.890625 C 3.714844 -4.03125 3.425781 -4.179688 3.117188 -4.335938 C 2.792969 -4.5 2.488281 -4.667969 2.207031 -4.835938 C 1.925781 -5.007812 1.679688 -5.191406 1.472656 -5.398438 C 1.261719 -5.601562 1.097656 -5.832031 0.980469 -6.089844 C 0.859375 -6.347656 0.800781 -6.652344 0.800781 -7 C 0.800781 -7.425781 0.894531 -7.792969 1.082031 -8.109375 C 1.265625 -8.421875 1.511719 -8.683594 1.816406 -8.886719 C 2.121094 -9.089844 2.464844 -9.242188 2.855469 -9.34375 C 3.242188 -9.441406 3.640625 -9.492188 4.042969 -9.492188 C 4.964844 -9.492188 5.632812 -9.382812 6.054688 -9.160156 L 6.054688 -7.929688 C 5.503906 -8.3125 4.796875 -8.503906 3.933594 -8.503906 C 3.695312 -8.503906 3.453125 -8.476562 3.214844 -8.429688 C 2.976562 -8.378906 2.765625 -8.296875 2.578125 -8.183594 C 2.390625 -8.070312 2.238281 -7.925781 2.121094 -7.746094 C 2.003906 -7.570312 1.945312 -7.351562 1.945312 -7.097656 C 1.945312 -6.859375 1.992188 -6.652344 2.078125 -6.476562 C 2.167969 -6.304688 2.300781 -6.144531 2.472656 -6.003906 C 2.648438 -5.859375 2.859375 -5.71875 3.109375 -5.585938 C 3.359375 -5.453125 3.644531 -5.304688 3.972656 -5.144531 C 4.304688 -4.976562 4.621094 -4.804688 4.921875 -4.621094 C 5.222656 -4.441406 5.484375 -4.238281 5.710938 -4.015625 C 5.933594 -3.796875 6.113281 -3.550781 6.246094 -3.28125 C 6.378906 -3.011719 6.445312 -2.703125 6.445312 -2.355469 C 6.445312 -1.898438 6.355469 -1.507812 6.175781 -1.1875 C 5.996094 -0.867188 5.75 -0.609375 5.445312 -0.410156 C 5.140625 -0.210938 4.789062 -0.0664062 4.386719 0.0234375 C 3.988281 0.113281 3.566406 0.15625 3.125 0.15625 C 2.976562 0.15625 2.796875 0.144531 2.578125 0.121094 C 2.359375 0.0976562 2.140625 0.0625 1.914062 0.015625 C 1.6875 -0.0273438 1.472656 -0.0859375 1.273438 -0.152344 C 1.070312 -0.21875 0.910156 -0.296875 0.789062 -0.378906 Z "/>
</g>
<g id="glyph-0-1">
<path d="M 2.175781 -0.964844 L 2.148438 -0.964844 L 2.148438 3.066406 L 1.082031 3.066406 L 1.082031 -6.667969 L 2.148438 -6.667969 L 2.148438 -5.496094 L 2.175781 -5.496094 C 2.699219 -6.378906 3.46875 -6.824219 4.480469 -6.824219 C 5.339844 -6.824219 6.007812 -6.523438 6.492188 -5.925781 C 6.972656 -5.332031 7.214844 -4.53125 7.214844 -3.527344 C 7.214844 -2.414062 6.941406 -1.519531 6.398438 -0.847656 C 5.855469 -0.179688 5.113281 0.15625 4.171875 0.15625 C 3.308594 0.15625 2.644531 -0.21875 2.175781 -0.964844 M 2.148438 -3.652344 L 2.148438 -2.722656 C 2.148438 -2.171875 2.328125 -1.703125 2.683594 -1.316406 C 3.042969 -0.933594 3.5 -0.742188 4.050781 -0.742188 C 4.695312 -0.742188 5.203125 -0.988281 5.570312 -1.484375 C 5.9375 -1.980469 6.121094 -2.667969 6.121094 -3.546875 C 6.121094 -4.289062 5.949219 -4.871094 5.605469 -5.292969 C 5.261719 -5.714844 4.796875 -5.925781 4.210938 -5.925781 C 3.589844 -5.925781 3.09375 -5.707031 2.714844 -5.277344 C 2.335938 -4.84375 2.148438 -4.304688 2.148438 -3.652344 Z "/>
</g>
<g id="glyph-0-2">
<path d="M 5.851562 0 L 4.785156 0 L 4.785156 -1.042969 L 4.757812 -1.042969 C 4.292969 -0.242188 3.609375 0.15625 2.707031 0.15625 C 2.042969 0.15625 1.523438 -0.0195312 1.148438 -0.371094 C 0.773438 -0.722656 0.585938 -1.1875 0.585938 -1.769531 C 0.585938 -3.015625 1.320312 -3.742188 2.785156 -3.945312 L 4.785156 -4.226562 C 4.785156 -5.359375 4.328125 -5.925781 3.410156 -5.925781 C 2.609375 -5.925781 1.882812 -5.652344 1.238281 -5.105469 L 1.238281 -6.199219 C 1.890625 -6.613281 2.648438 -6.824219 3.503906 -6.824219 C 5.070312 -6.824219 5.851562 -5.992188 5.851562 -4.335938 L 5.851562 0 M 4.785156 -3.371094 L 3.175781 -3.152344 C 2.683594 -3.082031 2.308594 -2.957031 2.058594 -2.78125 C 1.804688 -2.605469 1.679688 -2.296875 1.679688 -1.847656 C 1.679688 -1.523438 1.796875 -1.257812 2.027344 -1.050781 C 2.261719 -0.84375 2.570312 -0.742188 2.957031 -0.742188 C 3.484375 -0.742188 3.921875 -0.925781 4.265625 -1.296875 C 4.613281 -1.667969 4.785156 -2.140625 4.785156 -2.707031 Z "/>
</g>
<g id="glyph-0-3">
<path d="M 10.546875 0 L 9.480469 0 L 9.480469 -3.828125 C 9.480469 -4.566406 9.367188 -5.101562 9.136719 -5.429688 C 8.910156 -5.757812 8.527344 -5.925781 7.988281 -5.925781 C 7.53125 -5.925781 7.144531 -5.714844 6.824219 -5.300781 C 6.507812 -4.882812 6.347656 -4.382812 6.347656 -3.800781 L 6.347656 0 L 5.28125 0 L 5.28125 -3.957031 C 5.28125 -5.269531 4.773438 -5.925781 3.761719 -5.925781 C 3.292969 -5.925781 2.90625 -5.726562 2.605469 -5.335938 C 2.300781 -4.941406 2.148438 -4.429688 2.148438 -3.800781 L 2.148438 0 L 1.082031 0 L 1.082031 -6.667969 L 2.148438 -6.667969 L 2.148438 -5.613281 L 2.175781 -5.613281 C 2.648438 -6.417969 3.335938 -6.824219 4.246094 -6.824219 C 4.699219 -6.824219 5.097656 -6.695312 5.4375 -6.441406 C 5.773438 -6.1875 6.007812 -5.855469 6.132812 -5.441406 C 6.628906 -6.363281 7.367188 -6.824219 8.347656 -6.824219 C 9.8125 -6.824219 10.546875 -5.917969 10.546875 -4.109375 Z "/>
</g>
</g>
</defs>
<g fill="rgb(100%, 100%, 100%)" fill-opacity="1">
<use xlink:href="#glyph-0-0" x="30" y="34.387695"/>
<use xlink:href="#glyph-0-1" x="37" y="34.387695"/>
<use xlink:href="#glyph-0-2" x="45" y="34.387695"/>
<use xlink:href="#glyph-0-3" x="52" y="34.387695"/>
</g>
</svg>
