<?xml version="1.0" encoding="UTF-8"?>
<svg xmlns="http://www.w3.org/2000/svg" xmlns:xlink="http://www.w3.org/1999/xlink" width="1080" height="1920" viewBox="0 0 1080 1920">
<defs>
<g>
<g id="glyph-0-0">
<path d="M 8.132812 -7.214844 L 7.621094 -7.214844 C 7.527344 -7.574219 7.332031 -7.957031 7.03125 -8.363281 C 6.730469 -8.769531 6.441406 -8.992188 6.164062 -9.035156 C 6.023438 -9.050781 5.859375 -9.066406 5.667969 -9.074219 C 5.472656 -9.082031 5.257812 -9.085938 5.011719 -9.085938 L 3.398438 -9.085938 L 3.398438 -5.222656 L 4.507812 -5.222656 C 4.839844 -5.222656 5.101562 -5.257812 5.289062 -5.328125 C 5.472656 -5.398438 5.632812 -5.503906 5.761719 -5.648438 C 5.855469 -5.75 5.9375 -5.902344 6.011719 -6.113281 C 6.085938 -6.324219 6.136719 -6.550781 6.15625 -6.789062 L 6.667969 -6.789062 L 6.667969 -3.003906 L 6.15625 -3.003906 C 6.144531 -3.203125 6.097656 -3.429688 6.019531 -3.683594 C 5.9375 -3.9375 5.855469 -4.117188 5.761719 -4.230469 C 5.628906 -4.398438 5.457031 -4.511719 5.25 -4.574219 C 5.042969 -4.636719 4.796875 -4.664062 4.507812 -4.664062 L 3.398438 -4.664062 L 3.398438 -1.355469 C 3.398438 -1.207031 3.425781 -1.074219 3.484375 -0.957031 C 3.542969 -0.839844 3.648438 -0.742188 3.796875 -0.671875 C 3.867188 -0.640625 4.011719 -0.601562 4.238281 -0.554688 C 4.464844 -0.511719 4.636719 -0.484375 4.753906 -0.480469 L 4.753906 0 L 0.582031 0 L 0.582031 -0.480469 C 0.71875 -0.492188 0.898438 -0.503906 1.125 -0.527344 C 1.351562 -0.546875 1.5 -0.570312 1.566406 -0.605469 C 1.703125 -0.664062 1.800781 -0.75 1.863281 -0.863281 C 1.921875 -0.980469 1.953125 -1.117188 1.953125 -1.28125 L 1.953125 -8.226562 C 1.953125 -8.375 1.929688 -8.507812 1.878906 -8.625 C 1.828125 -8.738281 1.726562 -8.832031 1.566406 -8.90625 C 1.445312 -8.964844 1.28125 -9.015625 1.074219 -9.0625 C 0.871094 -9.105469 0.707031 -9.132812 0.582031 -9.140625 L 0.582031 -9.625 L 8.132812 -9.625 Z "/>
</g>
<g id="glyph-0-1">
<path d="M 10.039062 0 L 7.445312 0 C 6.871094 -0.898438 6.355469 -1.675781 5.890625 -2.332031 C 5.429688 -2.988281 4.925781 -3.664062 4.382812 -4.359375 L 3.398438 -4.359375 L 3.398438 -1.308594 C 3.398438 -1.152344 3.421875 -1.011719 3.472656 -0.890625 C 3.523438 -0.773438 3.628906 -0.679688 3.792969 -0.617188 C 3.871094 -0.585938 4.015625 -0.554688 4.21875 -0.527344 C 4.421875 -0.5 4.59375 -0.484375 4.734375 -0.480469 L 4.734375 0 L 0.664062 0 L 0.664062 -0.480469 C 0.773438 -0.492188 0.929688 -0.507812 1.136719 -0.527344 C 1.339844 -0.550781 1.484375 -0.582031 1.566406 -0.617188 C 1.703125 -0.675781 1.800781 -0.761719 1.863281 -0.875 C 1.921875 -0.988281 1.953125 -1.132812 1.953125 -1.308594 L 1.953125 -8.265625 C 1.953125 -8.425781 1.929688 -8.566406 1.886719 -8.6875 C 1.839844 -8.808594 1.734375 -8.902344 1.566406 -8.964844 C 1.453125 -9.007812 1.308594 -9.042969 1.125 -9.078125 C 0.945312 -9.113281 0.792969 -9.132812 0.664062 -9.140625 L 0.664062 -9.625 L 5.105469 -9.625 C 5.515625 -9.625 5.894531 -9.582031 6.253906 -9.496094 C 6.609375 -9.414062 6.933594 -9.28125 7.222656 -9.09375 C 7.503906 -8.914062 7.726562 -8.675781 7.894531 -8.386719 C 8.0625 -8.09375 8.144531 -7.742188 8.144531 -7.332031 C 8.144531 -6.960938 8.089844 -6.632812 7.976562 -6.347656 C 7.863281 -6.0625 7.695312 -5.816406 7.472656 -5.609375 C 7.269531 -5.414062 7.027344 -5.246094 6.742188 -5.101562 C 6.457031 -4.960938 6.140625 -4.839844 5.796875 -4.742188 C 6.273438 -4.113281 6.667969 -3.582031 6.980469 -3.152344 C 7.296875 -2.722656 7.679688 -2.203125 8.136719 -1.585938 C 8.335938 -1.316406 8.515625 -1.117188 8.675781 -0.988281 C 8.839844 -0.859375 8.996094 -0.753906 9.15625 -0.671875 C 9.273438 -0.613281 9.421875 -0.566406 9.597656 -0.535156 C 9.773438 -0.503906 9.917969 -0.484375 10.039062 -0.480469 L 10.039062 0 M 6.46875 -7.171875 C 6.46875 -7.753906 6.300781 -8.214844 5.96875 -8.554688 C 5.632812 -8.898438 5.160156 -9.066406 4.550781 -9.066406 L 3.398438 -9.066406 L 3.398438 -4.945312 L 4.285156 -4.945312 C 4.910156 -4.945312 5.429688 -5.144531 5.847656 -5.542969 C 6.261719 -5.941406 6.46875 -6.484375 6.46875 -7.171875 Z "/>
</g>
<g id="glyph-0-2">
<path d="M 8.753906 -2.835938 L 8.574219 0 L 0.582031 0 L 0.582031 -0.480469 C 0.71875 -0.492188 0.898438 -0.511719 1.125 -0.539062 C 1.351562 -0.570312 1.5 -0.597656 1.566406 -0.628906 C 1.710938 -0.699219 1.8125 -0.785156 1.867188 -0.894531 C 1.925781 -1.003906 1.953125 -1.140625 1.953125 -1.308594 L 1.953125 -8.226562 C 1.953125 -8.375 1.929688 -8.507812 1.878906 -8.625 C 1.828125 -8.738281 1.726562 -8.832031 1.566406 -8.90625 C 1.445312 -8.964844 1.28125 -9.015625 1.074219 -9.0625 C 0.871094 -9.105469 0.707031 -9.132812 0.582031 -9.140625 L 0.582031 -9.625 L 8.03125 -9.625 L 8.03125 -7.304688 L 7.519531 -7.304688 C 7.429688 -7.648438 7.234375 -8.011719 6.933594 -8.398438 C 6.632812 -8.785156 6.347656 -8.996094 6.078125 -9.035156 C 5.9375 -9.050781 5.769531 -9.066406 5.574219 -9.074219 C 5.378906 -9.082031 5.160156 -9.085938 4.910156 -9.085938 L 3.398438 -9.085938 L 3.398438 -5.261719 L 4.484375 -5.261719 C 4.832031 -5.261719 5.085938 -5.296875 5.246094 -5.359375 C 5.40625 -5.425781 5.546875 -5.535156 5.667969 -5.691406 C 5.769531 -5.820312 5.855469 -5.996094 5.925781 -6.214844 C 5.992188 -6.433594 6.039062 -6.640625 6.0625 -6.835938 L 6.570312 -6.835938 L 6.570312 -3.066406 L 6.0625 -3.066406 C 6.046875 -3.28125 5.996094 -3.511719 5.917969 -3.753906 C 5.839844 -3.996094 5.753906 -4.171875 5.667969 -4.28125 C 5.53125 -4.457031 5.371094 -4.570312 5.191406 -4.625 C 5.011719 -4.679688 4.777344 -4.707031 4.484375 -4.707031 L 3.398438 -4.707031 L 3.398438 -1.820312 C 3.398438 -1.535156 3.417969 -1.304688 3.457031 -1.136719 C 3.5 -0.972656 3.578125 -0.84375 3.695312 -0.757812 C 3.8125 -0.671875 3.972656 -0.617188 4.175781 -0.59375 C 4.382812 -0.570312 4.671875 -0.554688 5.046875 -0.554688 C 5.195312 -0.554688 5.390625 -0.554688 5.636719 -0.554688 C 5.878906 -0.554688 6.085938 -0.566406 6.253906 -0.582031 C 6.425781 -0.601562 6.601562 -0.632812 6.785156 -0.679688 C 6.96875 -0.730469 7.097656 -0.792969 7.175781 -0.875 C 7.382812 -1.09375 7.601562 -1.421875 7.828125 -1.863281 C 8.058594 -2.300781 8.203125 -2.625 8.265625 -2.835938 Z "/>
</g>
<g id="glyph-0-3">
</g>
<g id="glyph-0-4">
<path d="M 8.4375 -8.484375 C 8.863281 -8.042969 9.195312 -7.507812 9.433594 -6.878906 C 9.671875 -6.253906 9.792969 -5.5625 9.792969 -4.800781 C 9.792969 -4.039062 9.671875 -3.34375 9.425781 -2.71875 C 9.183594 -2.09375 8.84375 -1.5625 8.410156 -1.125 C 7.988281 -0.691406 7.5 -0.355469 6.945312 -0.121094 C 6.386719 0.113281 5.796875 0.230469 5.167969 0.230469 C 4.5 0.230469 3.878906 0.105469 3.3125 -0.144531 C 2.746094 -0.398438 2.257812 -0.746094 1.851562 -1.195312 C 1.445312 -1.632812 1.125 -2.164062 0.890625 -2.789062 C 0.660156 -3.417969 0.542969 -4.085938 0.542969 -4.800781 C 0.542969 -5.582031 0.664062 -6.28125 0.910156 -6.894531 C 1.152344 -7.507812 1.488281 -8.035156 1.917969 -8.484375 C 2.34375 -8.925781 2.839844 -9.265625 3.402344 -9.5 C 3.964844 -9.738281 4.554688 -9.855469 5.167969 -9.855469 C 5.804688 -9.855469 6.40625 -9.734375 6.972656 -9.496094 C 7.535156 -9.253906 8.023438 -8.917969 8.4375 -8.484375 M 7.425781 -1.660156 C 7.679688 -2.074219 7.863281 -2.539062 7.980469 -3.058594 C 8.09375 -3.578125 8.152344 -4.160156 8.152344 -4.800781 C 8.152344 -5.460938 8.085938 -6.066406 7.957031 -6.617188 C 7.828125 -7.171875 7.640625 -7.640625 7.390625 -8.03125 C 7.144531 -8.414062 6.832031 -8.714844 6.457031 -8.929688 C 6.082031 -9.144531 5.652344 -9.25 5.167969 -9.25 C 4.625 -9.25 4.164062 -9.125 3.785156 -8.878906 C 3.40625 -8.628906 3.09375 -8.296875 2.855469 -7.878906 C 2.628906 -7.484375 2.460938 -7.015625 2.351562 -6.484375 C 2.238281 -5.949219 2.183594 -5.390625 2.183594 -4.800781 C 2.183594 -4.152344 2.242188 -3.5625 2.359375 -3.039062 C 2.476562 -2.515625 2.664062 -2.046875 2.917969 -1.640625 C 3.160156 -1.242188 3.46875 -0.933594 3.839844 -0.707031 C 4.210938 -0.484375 4.652344 -0.371094 5.167969 -0.371094 C 5.652344 -0.371094 6.085938 -0.484375 6.476562 -0.710938 C 6.867188 -0.9375 7.183594 -1.253906 7.425781 -1.660156 Z "/>
</g>
<g id="glyph-0-5">
<path d="M 4.898438 0.230469 C 4.324219 0.230469 3.777344 0.117188 3.25 -0.109375 C 2.722656 -0.335938 2.257812 -0.660156 1.851562 -1.085938 C 1.449219 -1.511719 1.128906 -2.03125 0.886719 -2.644531 C 0.648438 -3.257812 0.527344 -3.949219 0.527344 -4.714844 C 0.527344 -5.484375 0.644531 -6.183594 0.882812 -6.808594 C 1.117188 -7.4375 1.441406 -7.976562 1.855469 -8.429688 C 2.269531 -8.875 2.753906 -9.222656 3.3125 -9.46875 C 3.875 -9.710938 4.472656 -9.832031 5.109375 -9.832031 C 5.582031 -9.832031 6.011719 -9.773438 6.398438 -9.65625 C 6.78125 -9.539062 7.144531 -9.375 7.496094 -9.164062 L 7.773438 -9.625 L 8.316406 -9.625 L 8.375 -6.191406 L 7.820312 -6.191406 C 7.746094 -6.527344 7.640625 -6.890625 7.496094 -7.28125 C 7.351562 -7.671875 7.179688 -8.003906 6.984375 -8.273438 C 6.769531 -8.582031 6.511719 -8.820312 6.214844 -8.996094 C 5.917969 -9.171875 5.574219 -9.257812 5.191406 -9.257812 C 4.753906 -9.257812 4.34375 -9.160156 3.96875 -8.964844 C 3.589844 -8.769531 3.265625 -8.484375 2.988281 -8.105469 C 2.726562 -7.738281 2.523438 -7.269531 2.375 -6.707031 C 2.222656 -6.140625 2.148438 -5.507812 2.148438 -4.8125 C 2.148438 -4.195312 2.226562 -3.632812 2.382812 -3.117188 C 2.539062 -2.605469 2.761719 -2.152344 3.050781 -1.765625 C 3.339844 -1.378906 3.683594 -1.078125 4.078125 -0.863281 C 4.472656 -0.644531 4.914062 -0.535156 5.402344 -0.535156 C 5.765625 -0.535156 6.105469 -0.59375 6.410156 -0.707031 C 6.71875 -0.824219 6.984375 -0.976562 7.210938 -1.167969 C 7.4375 -1.367188 7.636719 -1.589844 7.804688 -1.84375 C 7.976562 -2.097656 8.117188 -2.375 8.226562 -2.671875 L 8.734375 -2.429688 C 8.347656 -1.472656 7.832031 -0.792969 7.191406 -0.382812 C 6.546875 0.0273438 5.785156 0.230469 4.898438 0.230469 Z "/>
</g>
<g id="glyph-0-6">
<path d="M 8.390625 -2.863281 L 8.1875 0 L 0.664062 0 L 0.664062 -0.480469 C 0.773438 -0.492188 0.929688 -0.507812 1.136719 -0.527344 C 1.339844 -0.550781 1.484375 -0.582031 1.566406 -0.617188 C 1.703125 -0.675781 1.800781 -0.761719 1.863281 -0.875 C 1.921875 -0.988281 1.953125 -1.132812 1.953125 -1.308594 L 1.953125 -8.199219 C 1.953125 -8.351562 1.925781 -8.488281 1.875 -8.605469 C 1.824219 -8.722656 1.71875 -8.820312 1.566406 -8.890625 C 1.460938 -8.945312 1.316406 -9 1.128906 -9.050781 C 0.941406 -9.101562 0.785156 -9.132812 0.664062 -9.140625 L 0.664062 -9.625 L 4.726562 -9.625 L 4.726562 -9.140625 C 4.601562 -9.136719 4.4375 -9.113281 4.234375 -9.074219 C 4.035156 -9.035156 3.886719 -8.996094 3.796875 -8.964844 C 3.644531 -8.910156 3.539062 -8.820312 3.484375 -8.6875 C 3.425781 -8.554688 3.398438 -8.417969 3.398438 -8.265625 L 3.398438 -1.804688 C 3.398438 -1.503906 3.414062 -1.273438 3.441406 -1.109375 C 3.472656 -0.945312 3.539062 -0.816406 3.648438 -0.726562 C 3.753906 -0.644531 3.90625 -0.589844 4.113281 -0.566406 C 4.320312 -0.542969 4.605469 -0.527344 4.976562 -0.527344 C 5.144531 -0.527344 5.320312 -0.535156 5.5 -0.542969 C 5.679688 -0.550781 5.851562 -0.570312 6.015625 -0.597656 C 6.171875 -0.625 6.320312 -0.660156 6.453125 -0.707031 C 6.585938 -0.757812 6.683594 -0.816406 6.746094 -0.886719 C 6.933594 -1.097656 7.148438 -1.410156 7.394531 -1.835938 C 7.640625 -2.257812 7.8125 -2.601562 7.90625 -2.863281 Z "/>
</g>
<g id="glyph-0-7">
<path d="M 4.871094 0 L 0.535156 0 L 0.535156 -0.480469 C 0.65625 -0.492188 0.835938 -0.503906 1.066406 -0.523438 C 1.296875 -0.539062 1.457031 -0.566406 1.554688 -0.605469 C 1.703125 -0.664062 1.8125 -0.742188 1.878906 -0.84375 C 1.945312 -0.945312 1.980469 -1.085938 1.980469 -1.269531 L 1.980469 -8.238281 C 1.980469 -8.398438 1.957031 -8.53125 1.90625 -8.636719 C 1.855469 -8.742188 1.738281 -8.832031 1.554688 -8.90625 C 1.417969 -8.957031 1.246094 -9.007812 1.042969 -9.058594 C 0.835938 -9.105469 0.667969 -9.132812 0.535156 -9.140625 L 0.535156 -9.625 L 4.871094 -9.625 L 4.871094 -9.140625 C 4.730469 -9.136719 4.5625 -9.121094 4.367188 -9.089844 C 4.171875 -9.0625 4.003906 -9.023438 3.859375 -8.980469 C 3.6875 -8.925781 3.570312 -8.835938 3.511719 -8.714844 C 3.453125 -8.59375 3.425781 -8.457031 3.425781 -8.308594 L 3.425781 -1.34375 C 3.425781 -1.195312 3.457031 -1.0625 3.523438 -0.945312 C 3.589844 -0.832031 3.699219 -0.738281 3.859375 -0.671875 C 3.953125 -0.636719 4.109375 -0.59375 4.324219 -0.550781 C 4.539062 -0.511719 4.71875 -0.484375 4.871094 -0.480469 Z "/>
</g>
<g id="glyph-0-8">
<path d="M 10.003906 0 L 7.304688 0 C 6.785156 -0.804688 6.207031 -1.605469 5.570312 -2.398438 C 4.9375 -3.191406 4.269531 -3.960938 3.574219 -4.707031 L 3.398438 -4.707031 L 3.398438 -1.355469 C 3.398438 -1.207031 3.425781 -1.074219 3.484375 -0.957031 C 3.539062 -0.839844 3.640625 -0.742188 3.792969 -0.671875 C 3.863281 -0.640625 3.996094 -0.601562 4.195312 -0.554688 C 4.390625 -0.511719 4.554688 -0.484375 4.6875 -0.480469 L 4.6875 0 L 0.691406 0 L 0.691406 -0.480469 C 0.796875 -0.492188 0.945312 -0.503906 1.144531 -0.523438 C 1.34375 -0.539062 1.484375 -0.566406 1.566406 -0.605469 C 1.703125 -0.664062 1.800781 -0.75 1.863281 -0.863281 C 1.921875 -0.980469 1.953125 -1.117188 1.953125 -1.28125 L 1.953125 -8.226562 C 1.953125 -8.378906 1.925781 -8.511719 1.875 -8.625 C 1.824219 -8.738281 1.71875 -8.832031 1.566406 -8.90625 C 1.445312 -8.964844 1.300781 -9.015625 1.132812 -9.0625 C 0.964844 -9.105469 0.816406 -9.132812 0.691406 -9.140625 L 0.691406 -9.625 L 4.6875 -9.625 L 4.6875 -9.140625 C 4.558594 -9.136719 4.402344 -9.117188 4.210938 -9.082031 C 4.023438 -9.042969 3.882812 -9.011719 3.792969 -8.980469 C 3.636719 -8.925781 3.535156 -8.835938 3.480469 -8.707031 C 3.425781 -8.582031 3.398438 -8.445312 3.398438 -8.292969 L 3.398438 -4.972656 L 3.535156 -4.972656 C 3.941406 -5.316406 4.339844 -5.671875 4.734375 -6.046875 C 5.128906 -6.417969 5.484375 -6.789062 5.804688 -7.160156 C 6.164062 -7.574219 6.421875 -7.902344 6.589844 -8.148438 C 6.753906 -8.394531 6.835938 -8.613281 6.835938 -8.804688 C 6.835938 -8.871094 6.792969 -8.925781 6.710938 -8.96875 C 6.628906 -9.011719 6.53125 -9.046875 6.421875 -9.074219 C 6.296875 -9.101562 6.183594 -9.117188 6.082031 -9.125 C 5.984375 -9.132812 5.902344 -9.136719 5.839844 -9.140625 L 5.839844 -9.625 L 9.445312 -9.625 L 9.445312 -9.140625 C 9.433594 -9.140625 9.402344 -9.140625 9.359375 -9.136719 C 9.3125 -9.128906 9.261719 -9.125 9.203125 -9.121094 C 9.140625 -9.117188 9.078125 -9.109375 9.011719 -9.09375 C 8.949219 -9.082031 8.867188 -9.066406 8.769531 -9.046875 C 8.609375 -9.011719 8.449219 -8.953125 8.277344 -8.875 C 8.109375 -8.796875 7.96875 -8.695312 7.859375 -8.578125 C 7.394531 -8.050781 6.910156 -7.503906 6.40625 -6.9375 C 5.898438 -6.371094 5.398438 -5.855469 4.902344 -5.390625 C 5.589844 -4.613281 6.160156 -3.945312 6.609375 -3.382812 C 7.058594 -2.824219 7.539062 -2.222656 8.046875 -1.585938 C 8.238281 -1.34375 8.433594 -1.148438 8.625 -1 C 8.820312 -0.851562 8.984375 -0.742188 9.125 -0.671875 C 9.242188 -0.613281 9.390625 -0.566406 9.5625 -0.535156 C 9.738281 -0.503906 9.886719 -0.484375 10.003906 -0.480469 Z "/>
</g>
<g id="glyph-0-9">
<path d="M 10.539062 -9.140625 C 10.414062 -9.136719 10.21875 -9.101562 9.957031 -9.035156 C 9.695312 -8.964844 9.507812 -8.894531 9.394531 -8.824219 C 9.230469 -8.710938 9.121094 -8.492188 9.0625 -8.171875 C 9.007812 -7.851562 8.980469 -7.445312 8.980469 -6.953125 L 8.980469 0.09375 L 8.390625 0.09375 L 2.558594 -7.777344 L 2.558594 -2.816406 C 2.558594 -2.257812 2.59375 -1.832031 2.660156 -1.53125 C 2.730469 -1.234375 2.839844 -1.023438 2.984375 -0.894531 C 3.089844 -0.796875 3.304688 -0.703125 3.628906 -0.617188 C 3.953125 -0.53125 4.167969 -0.484375 4.273438 -0.480469 L 4.273438 0 L 0.324219 0 L 0.324219 -0.480469 C 0.449219 -0.492188 0.652344 -0.535156 0.941406 -0.613281 C 1.230469 -0.691406 1.414062 -0.765625 1.484375 -0.828125 C 1.644531 -0.953125 1.753906 -1.148438 1.8125 -1.40625 C 1.871094 -1.667969 1.898438 -2.113281 1.898438 -2.738281 L 1.898438 -7.480469 C 1.898438 -7.6875 1.863281 -7.894531 1.789062 -8.105469 C 1.71875 -8.3125 1.621094 -8.472656 1.5 -8.585938 C 1.335938 -8.734375 1.117188 -8.863281 0.835938 -8.96875 C 0.558594 -9.074219 0.335938 -9.132812 0.164062 -9.140625 L 0.164062 -9.625 L 2.914062 -9.625 L 8.320312 -2.285156 L 8.320312 -6.863281 C 8.320312 -7.425781 8.285156 -7.855469 8.210938 -8.15625 C 8.140625 -8.457031 8.035156 -8.65625 7.902344 -8.753906 C 7.773438 -8.839844 7.566406 -8.925781 7.28125 -9.007812 C 6.992188 -9.085938 6.773438 -9.132812 6.625 -9.140625 L 6.625 -9.625 L 10.539062 -9.625 Z "/>
</g>
<g id="glyph-0-10">
<path d="M 13.753906 -9.140625 C 13.640625 -9.136719 13.507812 -9.113281 13.359375 -9.0625 C 13.210938 -9.015625 13.074219 -8.953125 12.945312 -8.878906 C 12.789062 -8.777344 12.660156 -8.664062 12.5625 -8.535156 C 12.464844 -8.40625 12.382812 -8.226562 12.308594 -7.996094 C 11.988281 -6.953125 11.613281 -5.730469 11.191406 -4.335938 C 10.765625 -2.941406 10.304688 -1.457031 9.8125 0.121094 L 9.1875 0.121094 L 6.757812 -7.289062 L 4.234375 0.121094 L 3.636719 0.121094 C 3.1875 -1.460938 2.722656 -3.101562 2.246094 -4.804688 C 1.765625 -6.507812 1.445312 -7.648438 1.28125 -8.226562 C 1.242188 -8.367188 1.179688 -8.492188 1.101562 -8.597656 C 1.023438 -8.707031 0.914062 -8.808594 0.78125 -8.898438 C 0.667969 -8.976562 0.535156 -9.03125 0.382812 -9.070312 C 0.230469 -9.109375 0.09375 -9.132812 -0.0273438 -9.140625 L -0.0273438 -9.625 L 3.894531 -9.625 L 3.894531 -9.140625 C 3.550781 -9.125 3.257812 -9.089844 3.019531 -9.039062 C 2.777344 -8.992188 2.65625 -8.90625 2.65625 -8.789062 C 2.65625 -8.742188 2.660156 -8.683594 2.675781 -8.609375 C 2.6875 -8.535156 2.699219 -8.476562 2.710938 -8.429688 C 2.8125 -8.03125 2.996094 -7.375 3.261719 -6.457031 C 3.527344 -5.539062 3.917969 -4.164062 4.4375 -2.332031 L 6.839844 -9.488281 L 7.503906 -9.488281 L 9.925781 -2.179688 C 10.253906 -3.304688 10.535156 -4.285156 10.769531 -5.125 C 11.003906 -5.964844 11.199219 -6.683594 11.355469 -7.28125 C 11.464844 -7.703125 11.53125 -7.992188 11.558594 -8.148438 C 11.585938 -8.304688 11.597656 -8.4375 11.597656 -8.546875 C 11.597656 -8.699219 11.492188 -8.828125 11.285156 -8.933594 C 11.074219 -9.035156 10.734375 -9.105469 10.261719 -9.140625 L 10.261719 -9.625 L 13.753906 -9.625 Z "/>
</g>
</g>
</defs>
<g fill="rgb(100%, 100%, 100%)" fill-opacity="1">
<use xlink:href="#glyph-0-0" x="30" y="32.735352"/>
<use xlink:href="#glyph-0-1" x="38" y="32.735352"/>
<use xlink:href="#glyph-0-2" x="48" y="32.735352"/>
<use xlink:href="#glyph-0-2" x="57" y="32.735352"/>
<use xlink:href="#glyph-0-3" x="66" y="32.735352"/>
<use xlink:href="#glyph-0-4" x="69" y="32.735352"/>
<use xlink:href="#glyph-0-0" x="79" y="32.735352"/>
<use xlink:href="#glyph-0-0" x="87" y="32.735352"/>
<use xlink:href="#glyph-0-2" x="95" y="32.735352"/>
<use xlink:href="#glyph-0-1" x="104" y="32.735352"/>
<use xlink:href="#glyph-0-3" x="114" y="32.735352"/>
<use xlink:href="#glyph-0-5" x="117" y="32.735352"/>
<use xlink:href="#glyph-0-6" x="126" y="32.735352"/>
<use xlink:href="#glyph-0-7" x="134" y="32.735352"/>
<use xlink:href="#glyph-0-5" x="139" y="32.735352"/>
<use xlink:href="#glyph-0-8" x="148" y="32.735352"/>
<use xlink:href="#glyph-0-3" x="158" y="32.735352"/>
<use xlink:href="#glyph-0-9" x="161" y="32.735352"/>
<use xlink:href="#glyph-0-4" x="172" y="32.735352"/>
<use xlink:href="#glyph-0-10" x="182" y="32.735352"/>
</g>
</svg>
