<?xml version="1.0" encoding="UTF-8"?>
<svg xmlns="http://www.w3.org/2000/svg" xmlns:xlink="http://www.w3.org/1999/xlink" width="1080" height="1920" viewBox="0 0 1080 1920">
<defs>
<g>
<g id="glyph-0-0">
<path d="M 3.324219 0.105469 C 2.445312 0.105469 1.738281 -0.1875 1.203125 -0.769531 C 0.671875 -1.351562 0.40625 -2.105469 0.40625 -3.039062 C 0.40625 -4.042969 0.679688 -4.839844 1.21875 -5.433594 C 1.765625 -6.03125 2.5 -6.328125 3.429688 -6.328125 C 4.285156 -6.328125 4.976562 -6.039062 5.503906 -5.460938 C 6.03125 -4.882812 6.292969 -4.125 6.292969 -3.191406 C 6.292969 -2.175781 6.023438 -1.371094 5.488281 -0.78125 C 5.359375 -0.640625 5.222656 -0.519531 5.078125 -0.417969 L 6.828125 0.835938 L 5.503906 0.835938 L 4.332031 -0.0390625 C 4.023438 0.0546875 3.6875 0.105469 3.324219 0.105469 M 3.375 -5.667969 C 2.722656 -5.667969 2.191406 -5.433594 1.785156 -4.960938 C 1.375 -4.488281 1.171875 -3.871094 1.171875 -3.101562 C 1.171875 -2.339844 1.371094 -1.722656 1.765625 -1.25 C 2.164062 -0.785156 2.683594 -0.550781 3.324219 -0.550781 C 4.007812 -0.550781 4.546875 -0.773438 4.941406 -1.21875 C 5.332031 -1.664062 5.53125 -2.289062 5.53125 -3.089844 C 5.53125 -3.914062 5.339844 -4.550781 4.957031 -4.996094 C 4.574219 -5.445312 4.046875 -5.667969 3.375 -5.667969 Z "/>
</g>
<g id="glyph-0-1">
<path d="M 4.3125 0 L 3.601562 0 L 3.601562 -0.703125 L 3.585938 -0.703125 C 3.289062 -0.164062 2.832031 0.105469 2.214844 0.105469 C 1.15625 0.105469 0.625 -0.527344 0.625 -1.789062 L 0.625 -4.445312 L 1.332031 -4.445312 L 1.332031 -1.902344 C 1.332031 -0.964844 1.691406 -0.496094 2.410156 -0.496094 C 2.757812 -0.496094 3.042969 -0.621094 3.265625 -0.878906 C 3.492188 -1.136719 3.601562 -1.46875 3.601562 -1.882812 L 3.601562 -4.445312 L 4.3125 -4.445312 Z "/>
</g>
<g id="glyph-0-2">
<path d="M 3.902344 0 L 3.191406 0 L 3.191406 -0.695312 L 3.171875 -0.695312 C 2.863281 -0.160156 2.40625 0.105469 1.804688 0.105469 C 1.363281 0.105469 1.015625 -0.0117188 0.765625 -0.246094 C 0.515625 -0.480469 0.390625 -0.792969 0.390625 -1.179688 C 0.390625 -2.011719 0.878906 -2.496094 1.859375 -2.628906 L 3.191406 -2.816406 C 3.191406 -3.570312 2.886719 -3.949219 2.273438 -3.949219 C 1.738281 -3.949219 1.253906 -3.765625 0.824219 -3.402344 L 0.824219 -4.132812 C 1.261719 -4.410156 1.765625 -4.550781 2.335938 -4.550781 C 3.378906 -4.550781 3.902344 -3.996094 3.902344 -2.890625 L 3.902344 0 M 3.191406 -2.25 L 2.117188 -2.101562 C 1.789062 -2.054688 1.539062 -1.972656 1.371094 -1.855469 C 1.203125 -1.738281 1.121094 -1.53125 1.121094 -1.234375 C 1.121094 -1.015625 1.195312 -0.839844 1.351562 -0.699219 C 1.507812 -0.5625 1.714844 -0.496094 1.96875 -0.496094 C 2.324219 -0.496094 2.613281 -0.617188 2.84375 -0.867188 C 3.074219 -1.113281 3.191406 -1.425781 3.191406 -1.804688 Z "/>
</g>
<g id="glyph-0-3">
</g>
<g id="glyph-0-4">
<path d="M 3.75 -0.203125 C 3.410156 0 3.003906 0.105469 2.535156 0.105469 C 1.902344 0.105469 1.390625 -0.101562 1 -0.515625 C 0.609375 -0.925781 0.417969 -1.460938 0.417969 -2.117188 C 0.417969 -2.851562 0.625 -3.4375 1.046875 -3.882812 C 1.464844 -4.328125 2.027344 -4.550781 2.726562 -4.550781 C 3.117188 -4.550781 3.460938 -4.476562 3.757812 -4.332031 L 3.757812 -3.601562 C 3.429688 -3.835938 3.074219 -3.949219 2.699219 -3.949219 C 2.246094 -3.949219 1.871094 -3.785156 1.582031 -3.460938 C 1.292969 -3.136719 1.144531 -2.707031 1.144531 -2.179688 C 1.144531 -1.65625 1.28125 -1.246094 1.554688 -0.945312 C 1.828125 -0.644531 2.195312 -0.496094 2.65625 -0.496094 C 3.042969 -0.496094 3.410156 -0.625 3.75 -0.882812 Z "/>
</g>
<g id="glyph-0-5">
<path d="M 3.902344 0 L 3.191406 0 L 3.191406 -0.695312 L 3.171875 -0.695312 C 2.863281 -0.160156 2.40625 0.105469 1.804688 0.105469 C 1.363281 0.105469 1.015625 -0.0117188 0.765625 -0.246094 C 0.515625 -0.480469 0.390625 -0.792969 0.390625 -1.179688 C 0.390625 -2.011719 0.878906 -2.496094 1.859375 -2.628906 L 3.191406 -2.816406 C 3.191406 -3.570312 2.886719 -3.949219 2.273438 -3.949219 C 1.738281 -3.949219 1.253906 -3.765625 0.824219 -3.402344 L 0.824219 -4.132812 C 1.261719 -4.410156 1.765625 -4.550781 2.335938 -4.550781 C 3.378906 -4.550781 3.902344 -3.996094 3.902344 -2.890625 L 3.902344 0 M 3.191406 -2.25 L 2.117188 -2.101562 C 1.789062 -2.054688 1.539062 -1.972656 1.371094 -1.855469 C 1.203125 -1.738281 1.121094 -1.53125 1.121094 -1.234375 C 1.121094 -1.015625 1.195312 -0.839844 1.351562 -0.699219 C 1.507812 -0.5625 1.714844 -0.496094 1.96875 -0.496094 C 2.324219 -0.496094 2.613281 -0.617188 2.84375 -0.867188 C 3.074219 -1.113281 3.191406 -1.425781 3.191406 -1.804688 L 3.191406 -2.25 M 3.5 -5.285156 L 2.96875 -5.285156 L 2.257812 -6.285156 L 1.539062 -5.285156 L 1.050781 -5.285156 L 1.984375 -6.726562 L 2.5625 -6.726562 Z "/>
</g>
<g id="glyph-0-6">
<path d="M 4.410156 0 L 3.699219 0 L 3.699219 -2.5625 C 3.699219 -3.488281 3.355469 -3.949219 2.664062 -3.949219 C 2.316406 -3.949219 2.027344 -3.816406 1.789062 -3.546875 C 1.550781 -3.28125 1.433594 -2.9375 1.433594 -2.515625 L 1.433594 0 L 0.71875 0 L 0.71875 -6.582031 L 1.433594 -6.582031 L 1.433594 -3.707031 L 1.449219 -3.707031 C 1.792969 -4.269531 2.277344 -4.550781 2.90625 -4.550781 C 3.910156 -4.550781 4.410156 -3.945312 4.410156 -2.738281 Z "/>
</g>
<g id="glyph-0-7">
<path d="M 4.257812 -4.445312 L 2.214844 0.710938 C 1.847656 1.632812 1.335938 2.09375 0.675781 2.09375 C 0.492188 2.09375 0.335938 2.074219 0.210938 2.035156 L 0.210938 1.398438 C 0.367188 1.449219 0.507812 1.476562 0.632812 1.476562 C 0.992188 1.476562 1.261719 1.261719 1.441406 0.832031 L 1.796875 -0.0078125 L 0.0625 -4.445312 L 0.851562 -4.445312 L 2.054688 -1.023438 C 2.066406 -0.980469 2.097656 -0.867188 2.144531 -0.6875 L 2.171875 -0.6875 C 2.183594 -0.753906 2.214844 -0.863281 2.257812 -1.015625 L 3.519531 -4.445312 Z "/>
</g>
<g id="glyph-0-8">
<path d="M 4.292969 -2.042969 L 1.15625 -2.042969 C 1.167969 -1.550781 1.300781 -1.167969 1.554688 -0.898438 C 1.808594 -0.628906 2.160156 -0.496094 2.605469 -0.496094 C 3.105469 -0.496094 3.566406 -0.660156 3.984375 -0.988281 L 3.984375 -0.320312 C 3.59375 -0.0390625 3.078125 0.105469 2.433594 0.105469 C 1.808594 0.105469 1.3125 -0.0976562 0.953125 -0.5 C 0.597656 -0.90625 0.417969 -1.472656 0.417969 -2.203125 C 0.417969 -2.898438 0.613281 -3.460938 1.003906 -3.894531 C 1.398438 -4.332031 1.882812 -4.550781 2.464844 -4.550781 C 3.046875 -4.550781 3.496094 -4.359375 3.816406 -3.984375 C 4.132812 -3.609375 4.292969 -3.085938 4.292969 -2.417969 L 4.292969 -2.042969 M 3.5625 -2.648438 C 3.5625 -3.058594 3.460938 -3.378906 3.265625 -3.605469 C 3.070312 -3.835938 2.800781 -3.949219 2.453125 -3.949219 C 2.117188 -3.949219 1.832031 -3.828125 1.597656 -3.589844 C 1.363281 -3.347656 1.21875 -3.035156 1.164062 -2.648438 L 3.5625 -2.648438 M 3.628906 -5.285156 L 3.097656 -5.285156 L 2.386719 -6.285156 L 1.671875 -5.285156 L 1.179688 -5.285156 L 2.113281 -6.726562 L 2.691406 -6.726562 L 3.628906 -5.285156 M 2.515625 1.363281 C 2.398438 1.363281 2.296875 1.320312 2.214844 1.238281 C 2.128906 1.152344 2.085938 1.050781 2.085938 0.933594 C 2.085938 0.816406 2.132812 0.714844 2.21875 0.636719 C 2.304688 0.554688 2.40625 0.515625 2.515625 0.515625 C 2.636719 0.515625 2.738281 0.554688 2.820312 0.636719 C 2.90625 0.714844 2.945312 0.816406 2.945312 0.933594 C 2.945312 1.050781 2.90625 1.152344 2.820312 1.238281 C 2.738281 1.320312 2.636719 1.363281 2.515625 1.363281 Z "/>
</g>
<g id="glyph-0-9">
<path d="M 4.410156 0 L 3.699219 0 L 3.699219 -2.535156 C 3.699219 -3.476562 3.355469 -3.949219 2.664062 -3.949219 C 2.308594 -3.949219 2.015625 -3.816406 1.78125 -3.546875 C 1.550781 -3.28125 1.433594 -2.941406 1.433594 -2.535156 L 1.433594 0 L 0.71875 0 L 0.71875 -4.445312 L 1.433594 -4.445312 L 1.433594 -3.707031 L 1.449219 -3.707031 C 1.785156 -4.269531 2.273438 -4.550781 2.90625 -4.550781 C 3.394531 -4.550781 3.765625 -4.390625 4.023438 -4.078125 C 4.28125 -3.765625 4.410156 -3.308594 4.410156 -2.71875 Z "/>
</g>
<g id="glyph-0-10">
<path d="M 3.902344 0 L 3.191406 0 L 3.191406 -0.695312 L 3.171875 -0.695312 C 2.863281 -0.160156 2.40625 0.105469 1.804688 0.105469 C 1.363281 0.105469 1.015625 -0.0117188 0.765625 -0.246094 C 0.515625 -0.480469 0.390625 -0.792969 0.390625 -1.179688 C 0.390625 -2.011719 0.878906 -2.496094 1.859375 -2.628906 L 3.191406 -2.816406 C 3.191406 -3.570312 2.886719 -3.949219 2.273438 -3.949219 C 1.738281 -3.949219 1.253906 -3.765625 0.824219 -3.402344 L 0.824219 -4.132812 C 1.261719 -4.410156 1.765625 -4.550781 2.335938 -4.550781 C 3.378906 -4.550781 3.902344 -3.996094 3.902344 -2.890625 L 3.902344 0 M 3.191406 -2.25 L 2.117188 -2.101562 C 1.789062 -2.054688 1.539062 -1.972656 1.371094 -1.855469 C 1.203125 -1.738281 1.121094 -1.53125 1.121094 -1.234375 C 1.121094 -1.015625 1.195312 -0.839844 1.351562 -0.699219 C 1.507812 -0.5625 1.714844 -0.496094 1.96875 -0.496094 C 2.324219 -0.496094 2.613281 -0.617188 2.84375 -0.867188 C 3.074219 -1.113281 3.191406 -1.425781 3.191406 -1.804688 L 3.191406 -2.25 M 2.925781 -5.285156 L 2.375 -5.285156 L 1.238281 -6.710938 L 1.964844 -6.710938 Z "/>
</g>
<g id="glyph-0-11">
<path d="M 1.371094 -0.988281 L 0.675781 1.144531 L 0.167969 1.144531 L 0.675781 -0.988281 Z "/>
</g>
<g id="glyph-0-12">
<path d="M 2.78125 -0.0429688 C 2.613281 0.0507812 2.394531 0.09375 2.117188 0.09375 C 1.339844 0.09375 0.949219 -0.339844 0.949219 -1.207031 L 0.949219 -3.835938 L 0.1875 -3.835938 L 0.1875 -4.445312 L 0.949219 -4.445312 L 0.949219 -5.53125 L 1.664062 -5.761719 L 1.664062 -4.445312 L 2.78125 -4.445312 L 2.78125 -3.835938 L 1.664062 -3.835938 L 1.664062 -1.332031 C 1.664062 -1.035156 1.714844 -0.820312 1.8125 -0.695312 C 1.914062 -0.566406 2.082031 -0.503906 2.316406 -0.503906 C 2.496094 -0.503906 2.652344 -0.550781 2.78125 -0.652344 Z "/>
</g>
<g id="glyph-0-13">
<path d="M 3.902344 0 L 3.191406 0 L 3.191406 -0.695312 L 3.171875 -0.695312 C 2.863281 -0.160156 2.40625 0.105469 1.804688 0.105469 C 1.363281 0.105469 1.015625 -0.0117188 0.765625 -0.246094 C 0.515625 -0.480469 0.390625 -0.792969 0.390625 -1.179688 C 0.390625 -2.011719 0.878906 -2.496094 1.859375 -2.628906 L 3.191406 -2.816406 C 3.191406 -3.570312 2.886719 -3.949219 2.273438 -3.949219 C 1.738281 -3.949219 1.253906 -3.765625 0.824219 -3.402344 L 0.824219 -4.132812 C 1.261719 -4.410156 1.765625 -4.550781 2.335938 -4.550781 C 3.378906 -4.550781 3.902344 -3.996094 3.902344 -2.890625 L 3.902344 0 M 3.191406 -2.25 L 2.117188 -2.101562 C 1.789062 -2.054688 1.539062 -1.972656 1.371094 -1.855469 C 1.203125 -1.738281 1.121094 -1.53125 1.121094 -1.234375 C 1.121094 -1.015625 1.195312 -0.839844 1.351562 -0.699219 C 1.507812 -0.5625 1.714844 -0.496094 1.96875 -0.496094 C 2.324219 -0.496094 2.613281 -0.617188 2.84375 -0.867188 C 3.074219 -1.113281 3.191406 -1.425781 3.191406 -1.804688 L 3.191406 -2.25 M 3.289062 -5.945312 L 4.070312 -7.015625 L 4.800781 -7.015625 L 3.839844 -5.945312 L 3.289062 -5.945312 M 3.578125 -5.285156 L 3.050781 -5.285156 L 2.339844 -5.929688 L 1.617188 -5.285156 L 1.128906 -5.285156 L 2.066406 -6.371094 L 2.640625 -6.371094 Z "/>
</g>
<g id="glyph-0-14">
<path d="M 3.039062 -3.722656 C 2.914062 -3.820312 2.734375 -3.867188 2.5 -3.867188 C 2.195312 -3.867188 1.941406 -3.722656 1.738281 -3.4375 C 1.535156 -3.152344 1.433594 -2.761719 1.433594 -2.265625 L 1.433594 0 L 0.71875 0 L 0.71875 -4.445312 L 1.433594 -4.445312 L 1.433594 -3.527344 L 1.449219 -3.527344 C 1.550781 -3.839844 1.707031 -4.085938 1.914062 -4.261719 C 2.121094 -4.433594 2.355469 -4.523438 2.613281 -4.523438 C 2.796875 -4.523438 2.941406 -4.503906 3.039062 -4.460938 Z "/>
</g>
<g id="glyph-0-15">
<path d="M 3.902344 0 L 3.191406 0 L 3.191406 -0.695312 L 3.171875 -0.695312 C 2.863281 -0.160156 2.40625 0.105469 1.804688 0.105469 C 1.363281 0.105469 1.015625 -0.0117188 0.765625 -0.246094 C 0.515625 -0.480469 0.390625 -0.792969 0.390625 -1.179688 C 0.390625 -2.011719 0.878906 -2.496094 1.859375 -2.628906 L 3.191406 -2.816406 C 3.191406 -3.570312 2.886719 -3.949219 2.273438 -3.949219 C 1.738281 -3.949219 1.253906 -3.765625 0.824219 -3.402344 L 0.824219 -4.132812 C 1.261719 -4.410156 1.765625 -4.550781 2.335938 -4.550781 C 3.378906 -4.550781 3.902344 -3.996094 3.902344 -2.890625 L 3.902344 0 M 3.191406 -2.25 L 2.117188 -2.101562 C 1.789062 -2.054688 1.539062 -1.972656 1.371094 -1.855469 C 1.203125 -1.738281 1.121094 -1.53125 1.121094 -1.234375 C 1.121094 -1.015625 1.195312 -0.839844 1.351562 -0.699219 C 1.507812 -0.5625 1.714844 -0.496094 1.96875 -0.496094 C 2.324219 -0.496094 2.613281 -0.617188 2.84375 -0.867188 C 3.074219 -1.113281 3.191406 -1.425781 3.191406 -1.804688 L 3.191406 -2.25 M 2.84375 -6.292969 L 2.292969 -6.292969 L 1.332031 -7.363281 L 2.0625 -7.363281 L 2.84375 -6.292969 M 1.238281 -6.378906 L 1.679688 -6.378906 C 1.726562 -5.992188 1.976562 -5.800781 2.433594 -5.800781 C 2.902344 -5.800781 3.152344 -5.992188 3.179688 -6.378906 L 3.617188 -6.378906 C 3.605469 -6.050781 3.488281 -5.785156 3.273438 -5.585938 C 3.054688 -5.386719 2.78125 -5.285156 2.445312 -5.285156 C 2.121094 -5.285156 1.84375 -5.386719 1.617188 -5.589844 C 1.394531 -5.792969 1.265625 -6.054688 1.238281 -6.378906 Z "/>
</g>
<g id="glyph-0-16">
<path d="M 4.515625 -0.355469 C 4.515625 1.277344 3.734375 2.09375 2.171875 2.09375 C 1.621094 2.09375 1.140625 1.988281 0.730469 1.78125 L 0.730469 1.066406 C 1.230469 1.34375 1.707031 1.484375 2.160156 1.484375 C 3.253906 1.484375 3.800781 0.902344 3.800781 -0.261719 L 3.800781 -0.746094 L 3.785156 -0.746094 C 3.445312 -0.179688 2.9375 0.105469 2.257812 0.105469 C 1.703125 0.105469 1.257812 -0.09375 0.921875 -0.488281 C 0.585938 -0.882812 0.417969 -1.414062 0.417969 -2.078125 C 0.417969 -2.835938 0.597656 -3.433594 0.960938 -3.878906 C 1.324219 -4.324219 1.820312 -4.550781 2.453125 -4.550781 C 3.050781 -4.550781 3.496094 -4.308594 3.785156 -3.828125 L 3.800781 -3.828125 L 3.800781 -4.445312 L 4.515625 -4.445312 L 4.515625 -0.355469 M 3.800781 -2.007812 L 3.800781 -2.664062 C 3.800781 -3.019531 3.683594 -3.320312 3.445312 -3.570312 C 3.207031 -3.824219 2.90625 -3.949219 2.550781 -3.949219 C 2.113281 -3.949219 1.769531 -3.789062 1.519531 -3.46875 C 1.269531 -3.152344 1.144531 -2.703125 1.144531 -2.125 C 1.144531 -1.632812 1.265625 -1.234375 1.503906 -0.941406 C 1.742188 -0.644531 2.058594 -0.496094 2.453125 -0.496094 C 2.851562 -0.496094 3.175781 -0.636719 3.425781 -0.921875 C 3.675781 -1.203125 3.800781 -1.566406 3.800781 -2.007812 Z "/>
</g>
</g>
</defs>
<g fill="rgb(100%, 100%, 100%)" fill-opacity="1">
<use xlink:href="#glyph-0-0" x="30" y="29.591797"/>
<use xlink:href="#glyph-0-1" x="37" y="29.591797"/>
<use xlink:href="#glyph-0-2" x="42" y="29.591797"/>
<use xlink:href="#glyph-0-3" x="47" y="29.591797"/>
<use xlink:href="#glyph-0-4" x="49" y="29.591797"/>
<use xlink:href="#glyph-0-5" x="53" y="29.591797"/>
<use xlink:href="#glyph-0-1" x="58" y="29.591797"/>
<use xlink:href="#glyph-0-3" x="63" y="29.591797"/>
<use xlink:href="#glyph-0-4" x="65" y="29.591797"/>
<use xlink:href="#glyph-0-6" x="69" y="29.591797"/>
<use xlink:href="#glyph-0-1" x="74" y="29.591797"/>
<use xlink:href="#glyph-0-7" x="79" y="29.591797"/>
<use xlink:href="#glyph-0-8" x="83" y="29.591797"/>
<use xlink:href="#glyph-0-9" x="88" y="29.591797"/>
<use xlink:href="#glyph-0-3" x="93" y="29.591797"/>
<use xlink:href="#glyph-0-9" x="95" y="29.591797"/>
<use xlink:href="#glyph-0-10" x="100" y="29.591797"/>
<use xlink:href="#glyph-0-7" x="105" y="29.591797"/>
<use xlink:href="#glyph-0-11" x="109" y="29.591797"/>
<use xlink:href="#glyph-0-3" x="111" y="29.591797"/>
<use xlink:href="#glyph-0-12" x="113" y="29.591797"/>
<use xlink:href="#glyph-0-2" x="116" y="29.591797"/>
<use xlink:href="#glyph-0-3" x="121" y="29.591797"/>
<use xlink:href="#glyph-0-12" x="123" y="29.591797"/>
<use xlink:href="#glyph-0-6" x="126" y="29.591797"/>
<use xlink:href="#glyph-0-13" x="131" y="29.591797"/>
<use xlink:href="#glyph-0-7" x="136" y="29.591797"/>
<use xlink:href="#glyph-0-3" x="140" y="29.591797"/>
<use xlink:href="#glyph-0-14" x="142" y="29.591797"/>
<use xlink:href="#glyph-0-15" x="145" y="29.591797"/>
<use xlink:href="#glyph-0-9" x="150" y="29.591797"/>
<use xlink:href="#glyph-0-16" x="155" y="29.591797"/>
</g>
</svg>
