<?xml version="1.0" encoding="UTF-8"?>
<svg xmlns="http://www.w3.org/2000/svg" xmlns:xlink="http://www.w3.org/1999/xlink" width="1080" height="1920" viewBox="0 0 1080 1920">
<defs>
<g>
<g id="glyph-0-0">
<path d="M 5.101562 -5.835938 L 2.941406 0 L 2.1875 0 L 0.0742188 -5.835938 L 0.835938 -5.835938 L 2.449219 -1.207031 C 2.5 -1.058594 2.539062 -0.886719 2.566406 -0.691406 L 2.582031 -0.691406 C 2.605469 -0.855469 2.648438 -1.03125 2.71875 -1.214844 L 4.367188 -5.835938 Z "/>
</g>
<g id="glyph-0-1">
<path d="M 4.042969 0 L 3.378906 0 L 3.378906 -0.660156 L 3.359375 -0.660156 C 3.085938 -0.15625 2.65625 0.0976562 2.074219 0.0976562 C 1.082031 0.0976562 0.585938 -0.492188 0.585938 -1.675781 L 0.585938 -4.167969 L 1.25 -4.167969 L 1.25 -1.78125 C 1.25 -0.902344 1.585938 -0.464844 2.257812 -0.464844 C 2.582031 -0.464844 2.851562 -0.582031 3.0625 -0.824219 C 3.273438 -1.0625 3.378906 -1.378906 3.378906 -1.765625 L 3.378906 -4.167969 L 4.042969 -4.167969 L 4.042969 0 M 2.867188 -4.957031 L 2.351562 -4.957031 L 1.285156 -6.289062 L 1.96875 -6.289062 Z "/>
</g>
<g id="glyph-0-2">
<path d="M 4.132812 0 L 3.464844 0 L 3.464844 -2.375 C 3.464844 -3.261719 3.144531 -3.703125 2.5 -3.703125 C 2.164062 -3.703125 1.890625 -3.578125 1.671875 -3.328125 C 1.453125 -3.074219 1.34375 -2.757812 1.34375 -2.375 L 1.34375 0 L 0.675781 0 L 0.675781 -4.167969 L 1.34375 -4.167969 L 1.34375 -3.476562 L 1.359375 -3.476562 C 1.671875 -4 2.128906 -4.265625 2.726562 -4.265625 C 3.183594 -4.265625 3.53125 -4.117188 3.773438 -3.824219 C 4.011719 -3.527344 4.132812 -3.101562 4.132812 -2.546875 Z "/>
</g>
<g id="glyph-0-3">
<path d="M 4.230469 -0.332031 C 4.230469 1.195312 3.5 1.960938 2.035156 1.960938 C 1.519531 1.960938 1.070312 1.863281 0.683594 1.667969 L 0.683594 1 C 1.152344 1.261719 1.601562 1.390625 2.027344 1.390625 C 3.050781 1.390625 3.5625 0.847656 3.5625 -0.242188 L 3.5625 -0.699219 L 3.546875 -0.699219 C 3.230469 -0.167969 2.753906 0.0976562 2.117188 0.0976562 C 1.597656 0.0976562 1.179688 -0.0859375 0.863281 -0.457031 C 0.546875 -0.828125 0.390625 -1.324219 0.390625 -1.949219 C 0.390625 -2.65625 0.5625 -3.21875 0.902344 -3.636719 C 1.242188 -4.054688 1.707031 -4.265625 2.300781 -4.265625 C 2.859375 -4.265625 3.277344 -4.039062 3.546875 -3.589844 L 3.5625 -3.589844 L 3.5625 -4.167969 L 4.230469 -4.167969 L 4.230469 -0.332031 M 3.5625 -1.882812 L 3.5625 -2.5 C 3.5625 -2.828125 3.453125 -3.113281 3.230469 -3.347656 C 3.003906 -3.585938 2.726562 -3.703125 2.390625 -3.703125 C 1.980469 -3.703125 1.65625 -3.554688 1.425781 -3.253906 C 1.191406 -2.953125 1.074219 -2.535156 1.074219 -1.992188 C 1.074219 -1.53125 1.1875 -1.160156 1.410156 -0.882812 C 1.632812 -0.601562 1.929688 -0.464844 2.300781 -0.464844 C 2.671875 -0.464844 2.976562 -0.597656 3.210938 -0.863281 C 3.445312 -1.128906 3.5625 -1.46875 3.5625 -1.882812 Z "/>
</g>
<g id="glyph-0-4">
</g>
<g id="glyph-0-5">
<path d="M 0.765625 0 L 0.765625 -5.835938 L 2.375 -5.835938 C 4.433594 -5.835938 5.460938 -4.886719 5.460938 -2.992188 C 5.460938 -2.089844 5.175781 -1.367188 4.605469 -0.820312 C 4.03125 -0.273438 3.269531 0 2.3125 0 L 0.765625 0 M 1.449219 -5.214844 L 1.449219 -0.617188 L 2.320312 -0.617188 C 3.085938 -0.617188 3.679688 -0.824219 4.105469 -1.234375 C 4.53125 -1.640625 4.746094 -2.222656 4.746094 -2.972656 C 4.746094 -4.46875 3.949219 -5.214844 2.359375 -5.214844 Z "/>
</g>
<g id="glyph-0-6">
<path d="M 4.042969 0 L 3.378906 0 L 3.378906 -0.660156 L 3.359375 -0.660156 C 3.085938 -0.15625 2.65625 0.0976562 2.074219 0.0976562 C 1.082031 0.0976562 0.585938 -0.492188 0.585938 -1.675781 L 0.585938 -4.167969 L 1.25 -4.167969 L 1.25 -1.78125 C 1.25 -0.902344 1.585938 -0.464844 2.257812 -0.464844 C 2.582031 -0.464844 2.851562 -0.582031 3.0625 -0.824219 C 3.273438 -1.0625 3.378906 -1.378906 3.378906 -1.765625 L 3.378906 -4.167969 L 3.875 -4.167969 C 4.035156 -4.167969 4.167969 -4.214844 4.273438 -4.3125 C 4.382812 -4.40625 4.433594 -4.523438 4.433594 -4.660156 C 4.433594 -4.855469 4.40625 -5.035156 4.355469 -5.191406 L 4.898438 -5.191406 C 4.949219 -5.039062 4.976562 -4.855469 4.976562 -4.636719 C 4.976562 -4.101562 4.664062 -3.785156 4.042969 -3.6875 Z "/>
</g>
<g id="glyph-0-7">
<path d="M 4.230469 -5.191406 L 4.777344 -5.191406 C 4.828125 -5.039062 4.855469 -4.855469 4.855469 -4.636719 C 4.855469 -4.117188 4.558594 -3.804688 3.964844 -3.695312 C 4.316406 -3.3125 4.492188 -2.78125 4.492188 -2.097656 C 4.492188 -1.433594 4.304688 -0.902344 3.929688 -0.503906 C 3.554688 -0.101562 3.050781 0.0976562 2.417969 0.0976562 C 1.800781 0.0976562 1.308594 -0.0976562 0.941406 -0.484375 C 0.574219 -0.875 0.390625 -1.390625 0.390625 -2.035156 C 0.390625 -2.734375 0.582031 -3.28125 0.964844 -3.675781 C 1.347656 -4.066406 1.863281 -4.265625 2.515625 -4.265625 C 2.644531 -4.265625 2.828125 -4.246094 3.058594 -4.207031 C 3.226562 -4.179688 3.457031 -4.167969 3.75 -4.167969 C 3.910156 -4.167969 4.046875 -4.214844 4.152344 -4.3125 C 4.257812 -4.40625 4.3125 -4.523438 4.3125 -4.660156 C 4.3125 -4.855469 4.285156 -5.035156 4.230469 -5.191406 M 2.464844 -3.703125 C 2.039062 -3.703125 1.699219 -3.558594 1.449219 -3.265625 C 1.199219 -2.972656 1.074219 -2.570312 1.074219 -2.058594 C 1.074219 -1.566406 1.199219 -1.175781 1.453125 -0.890625 C 1.703125 -0.605469 2.042969 -0.464844 2.464844 -0.464844 C 2.898438 -0.464844 3.230469 -0.605469 3.460938 -0.882812 C 3.691406 -1.164062 3.808594 -1.558594 3.808594 -2.074219 C 3.808594 -2.597656 3.691406 -2.996094 3.460938 -3.28125 C 3.230469 -3.5625 2.898438 -3.703125 2.464844 -3.703125 M 3.570312 -6.289062 L 2.503906 -4.957031 L 1.984375 -4.957031 L 2.894531 -6.289062 Z "/>
</g>
<g id="glyph-0-8">
<path d="M 1.015625 -5.222656 C 0.898438 -5.222656 0.796875 -5.265625 0.710938 -5.347656 C 0.628906 -5.429688 0.585938 -5.53125 0.585938 -5.65625 C 0.585938 -5.78125 0.628906 -5.882812 0.710938 -5.96875 C 0.796875 -6.050781 0.898438 -6.089844 1.015625 -6.089844 C 1.140625 -6.089844 1.242188 -6.050781 1.328125 -5.96875 C 1.414062 -5.882812 1.457031 -5.78125 1.457031 -5.65625 C 1.457031 -5.535156 1.414062 -5.433594 1.328125 -5.351562 C 1.242188 -5.265625 1.140625 -5.222656 1.015625 -5.222656 M 1.34375 0 L 0.675781 0 L 0.675781 -4.167969 L 1.34375 -4.167969 Z "/>
</g>
<g id="glyph-0-9">
<path d="M 2.425781 1.328125 L 1.832031 1.328125 C 0.988281 0.367188 0.570312 -0.816406 0.570312 -2.226562 C 0.570312 -3.640625 0.988281 -4.84375 1.832031 -5.835938 L 2.433594 -5.835938 C 1.582031 -4.804688 1.15625 -3.605469 1.15625 -2.234375 C 1.15625 -0.875 1.578125 0.3125 2.425781 1.328125 Z "/>
</g>
<g id="glyph-0-10">
<path d="M 4.558594 -5.835938 L 2.632812 -2.15625 L 2.632812 0 L 1.949219 0 L 1.949219 -2.140625 L 0.0742188 -5.835938 L 0.851562 -5.835938 L 2.15625 -3.199219 C 2.171875 -3.164062 2.21875 -3.046875 2.300781 -2.839844 L 2.3125 -2.839844 C 2.339844 -2.933594 2.390625 -3.050781 2.464844 -3.199219 L 3.832031 -5.835938 Z "/>
</g>
<g id="glyph-0-11">
<path d="M 4.769531 -3.027344 L 0.945312 -3.027344 L 0.945312 -3.5625 L 4.769531 -3.5625 L 4.769531 -3.027344 M 4.769531 -1.292969 L 0.945312 -1.292969 L 0.945312 -1.832031 L 4.769531 -1.832031 Z "/>
</g>
<g id="glyph-0-12">
<path d="M 2.808594 -2.058594 L 0.585938 -2.058594 L 0.585938 -2.582031 L 2.808594 -2.582031 Z "/>
</g>
<g id="glyph-0-13">
<path d="M 3.140625 -4.304688 C 3.140625 -4.484375 3.113281 -4.640625 3.058594 -4.773438 C 3.003906 -4.90625 2.925781 -5.015625 2.828125 -5.105469 C 2.734375 -5.191406 2.621094 -5.257812 2.488281 -5.300781 C 2.359375 -5.34375 2.21875 -5.367188 2.066406 -5.367188 C 1.9375 -5.367188 1.808594 -5.347656 1.683594 -5.3125 C 1.558594 -5.277344 1.4375 -5.230469 1.320312 -5.167969 C 1.203125 -5.105469 1.089844 -5.03125 0.980469 -4.945312 C 0.867188 -4.855469 0.765625 -4.761719 0.671875 -4.65625 L 0.671875 -5.371094 C 0.859375 -5.554688 1.066406 -5.691406 1.300781 -5.789062 C 1.53125 -5.882812 1.816406 -5.933594 2.148438 -5.933594 C 2.386719 -5.933594 2.609375 -5.898438 2.8125 -5.828125 C 3.015625 -5.757812 3.191406 -5.660156 3.339844 -5.527344 C 3.488281 -5.394531 3.605469 -5.230469 3.691406 -5.035156 C 3.777344 -4.839844 3.820312 -4.613281 3.820312 -4.363281 C 3.820312 -4.132812 3.792969 -3.921875 3.742188 -3.734375 C 3.6875 -3.546875 3.609375 -3.371094 3.5 -3.207031 C 3.394531 -3.039062 3.257812 -2.882812 3.097656 -2.730469 C 2.933594 -2.578125 2.742188 -2.421875 2.523438 -2.265625 C 2.25 -2.070312 2.023438 -1.902344 1.84375 -1.765625 C 1.667969 -1.628906 1.527344 -1.5 1.421875 -1.378906 C 1.316406 -1.257812 1.246094 -1.136719 1.203125 -1.015625 C 1.160156 -0.894531 1.140625 -0.753906 1.140625 -0.597656 L 4.042969 -0.597656 L 4.042969 0 L 0.445312 0 L 0.445312 -0.289062 C 0.445312 -0.539062 0.46875 -0.757812 0.523438 -0.949219 C 0.578125 -1.136719 0.667969 -1.316406 0.792969 -1.488281 C 0.917969 -1.660156 1.082031 -1.832031 1.285156 -2 C 1.484375 -2.171875 1.734375 -2.367188 2.027344 -2.578125 C 2.238281 -2.730469 2.414062 -2.875 2.558594 -3.015625 C 2.699219 -3.152344 2.8125 -3.292969 2.902344 -3.429688 C 2.988281 -3.570312 3.050781 -3.707031 3.085938 -3.851562 C 3.121094 -3.992188 3.140625 -4.144531 3.140625 -4.304688 Z "/>
</g>
<g id="glyph-0-14">
<path d="M 0.90625 0.0898438 C 0.78125 0.0898438 0.675781 0.0429688 0.589844 -0.0429688 C 0.5 -0.132812 0.457031 -0.242188 0.457031 -0.367188 C 0.457031 -0.492188 0.5 -0.597656 0.589844 -0.691406 C 0.675781 -0.78125 0.78125 -0.824219 0.90625 -0.824219 C 1.035156 -0.824219 1.144531 -0.78125 1.234375 -0.691406 C 1.324219 -0.597656 1.367188 -0.492188 1.367188 -0.367188 C 1.367188 -0.242188 1.324219 -0.132812 1.234375 -0.0429688 C 1.144531 0.0429688 1.035156 0.0898438 0.90625 0.0898438 Z "/>
</g>
<g id="glyph-0-15">
<path d="M 3.941406 -1.78125 C 3.941406 -1.496094 3.894531 -1.238281 3.796875 -1.007812 C 3.699219 -0.777344 3.558594 -0.582031 3.378906 -0.414062 C 3.199219 -0.25 2.980469 -0.121094 2.726562 -0.03125 C 2.472656 0.0585938 2.1875 0.101562 1.875 0.101562 C 1.332031 0.101562 0.929688 0.0195312 0.667969 -0.140625 L 0.667969 -0.851562 C 1.0625 -0.59375 1.46875 -0.46875 1.882812 -0.46875 C 2.09375 -0.46875 2.285156 -0.5 2.457031 -0.5625 C 2.625 -0.625 2.769531 -0.710938 2.890625 -0.820312 C 3.007812 -0.933594 3.101562 -1.066406 3.164062 -1.226562 C 3.226562 -1.382812 3.257812 -1.554688 3.257812 -1.742188 C 3.257812 -2.121094 3.132812 -2.417969 2.875 -2.632812 C 2.621094 -2.851562 2.25 -2.957031 1.765625 -2.957031 C 1.6875 -2.957031 1.605469 -2.957031 1.519531 -2.953125 C 1.429688 -2.953125 1.34375 -2.949219 1.257812 -2.945312 C 1.171875 -2.941406 1.085938 -2.933594 1.003906 -2.929688 C 0.921875 -2.925781 0.84375 -2.917969 0.777344 -2.910156 L 0.976562 -5.835938 L 3.675781 -5.835938 L 3.675781 -5.234375 L 1.554688 -5.234375 L 1.4375 -3.519531 C 1.523438 -3.523438 1.617188 -3.53125 1.714844 -3.535156 C 1.8125 -3.539062 1.898438 -3.539062 1.972656 -3.539062 C 2.28125 -3.539062 2.558594 -3.5 2.804688 -3.417969 C 3.046875 -3.335938 3.253906 -3.21875 3.425781 -3.070312 C 3.59375 -2.917969 3.722656 -2.734375 3.8125 -2.515625 C 3.898438 -2.296875 3.941406 -2.054688 3.941406 -1.78125 Z "/>
</g>
<g id="glyph-0-16">
<path d="M 0.691406 1.328125 L 0.0976562 1.328125 C 0.945312 0.3125 1.367188 -0.875 1.367188 -2.234375 C 1.367188 -3.605469 0.941406 -4.804688 0.0898438 -5.835938 L 0.691406 -5.835938 C 1.539062 -4.84375 1.960938 -3.640625 1.960938 -2.226562 C 1.960938 -0.816406 1.539062 0.367188 0.691406 1.328125 Z "/>
</g>
</g>
</defs>
<g fill="rgb(100%, 98.039216%, 39.607843%)" fill-opacity="1">
<use xlink:href="#glyph-0-0" x="30" y="28.992188"/>
<use xlink:href="#glyph-0-1" x="35" y="28.992188"/>
<use xlink:href="#glyph-0-2" x="40" y="28.992188"/>
<use xlink:href="#glyph-0-3" x="45" y="28.992188"/>
<use xlink:href="#glyph-0-4" x="50" y="28.992188"/>
<use xlink:href="#glyph-0-5" x="52" y="28.992188"/>
<use xlink:href="#glyph-0-6" x="58" y="28.992188"/>
<use xlink:href="#glyph-0-7" x="63" y="28.992188"/>
<use xlink:href="#glyph-0-8" x="68" y="28.992188"/>
<use xlink:href="#glyph-0-4" x="70" y="28.992188"/>
<use xlink:href="#glyph-0-9" x="72" y="28.992188"/>
<use xlink:href="#glyph-0-10" x="75" y="28.992188"/>
<use xlink:href="#glyph-0-11" x="80" y="28.992188"/>
<use xlink:href="#glyph-0-12" x="86" y="28.992188"/>
<use xlink:href="#glyph-0-13" x="89" y="28.992188"/>
<use xlink:href="#glyph-0-14" x="93" y="28.992188"/>
<use xlink:href="#glyph-0-15" x="95" y="28.992188"/>
<use xlink:href="#glyph-0-16" x="99" y="28.992188"/>
</g>
</svg>
