<?xml version="1.0" encoding="UTF-8"?>
<svg xmlns="http://www.w3.org/2000/svg" xmlns:xlink="http://www.w3.org/1999/xlink" width="1080" height="1920" viewBox="0 0 1080 1920">
<defs>
<g>
<g id="glyph-0-0">
<path d="M 0.636719 -0.359375 L 0.636719 -2.441406 C 1.015625 -2.125 1.425781 -1.886719 1.867188 -1.726562 C 2.3125 -1.570312 2.757812 -1.492188 3.210938 -1.492188 C 3.472656 -1.492188 3.707031 -1.515625 3.902344 -1.5625 C 4.101562 -1.609375 4.265625 -1.675781 4.398438 -1.761719 C 4.53125 -1.84375 4.628906 -1.945312 4.695312 -2.0625 C 4.757812 -2.175781 4.792969 -2.300781 4.792969 -2.433594 C 4.792969 -2.617188 4.738281 -2.78125 4.636719 -2.921875 C 4.53125 -3.066406 4.390625 -3.199219 4.210938 -3.320312 C 4.027344 -3.441406 3.816406 -3.558594 3.566406 -3.671875 C 3.320312 -3.785156 3.054688 -3.898438 2.765625 -4.015625 C 2.039062 -4.320312 1.492188 -4.691406 1.136719 -5.128906 C 0.777344 -5.570312 0.597656 -6.097656 0.597656 -6.71875 C 0.597656 -7.203125 0.695312 -7.621094 0.890625 -7.972656 C 1.085938 -8.320312 1.351562 -8.609375 1.6875 -8.835938 C 2.027344 -9.058594 2.414062 -9.226562 2.859375 -9.332031 C 3.300781 -9.4375 3.769531 -9.492188 4.265625 -9.492188 C 4.75 -9.492188 5.179688 -9.460938 5.554688 -9.40625 C 5.933594 -9.34375 6.277344 -9.253906 6.59375 -9.132812 L 6.59375 -7.1875 C 6.4375 -7.296875 6.269531 -7.390625 6.082031 -7.472656 C 5.898438 -7.554688 5.710938 -7.625 5.515625 -7.679688 C 5.320312 -7.734375 5.125 -7.773438 4.929688 -7.800781 C 4.738281 -7.824219 4.554688 -7.839844 4.382812 -7.839844 C 4.144531 -7.839844 3.925781 -7.816406 3.730469 -7.769531 C 3.535156 -7.722656 3.371094 -7.660156 3.234375 -7.578125 C 3.101562 -7.496094 2.996094 -7.398438 2.921875 -7.28125 C 2.847656 -7.167969 2.8125 -7.039062 2.8125 -6.894531 C 2.8125 -6.738281 2.855469 -6.597656 2.9375 -6.472656 C 3.019531 -6.351562 3.136719 -6.234375 3.289062 -6.121094 C 3.441406 -6.011719 3.625 -5.902344 3.839844 -5.796875 C 4.058594 -5.691406 4.304688 -5.582031 4.578125 -5.46875 C 4.949219 -5.3125 5.285156 -5.144531 5.582031 -4.96875 C 5.878906 -4.796875 6.136719 -4.597656 6.347656 -4.375 C 6.558594 -4.152344 6.722656 -3.902344 6.835938 -3.617188 C 6.949219 -3.332031 7.003906 -3 7.003906 -2.625 C 7.003906 -2.101562 6.90625 -1.664062 6.707031 -1.3125 C 6.511719 -0.957031 6.242188 -0.671875 5.90625 -0.453125 C 5.566406 -0.234375 5.171875 -0.0742188 4.722656 0.0195312 C 4.273438 0.113281 3.800781 0.164062 3.300781 0.164062 C 2.789062 0.164062 2.300781 0.121094 1.839844 0.03125 C 1.375 -0.0546875 0.976562 -0.183594 0.636719 -0.359375 Z "/>
</g>
<g id="glyph-0-1">
<path d="M 3.171875 -3.214844 L 3.171875 0 L 1.066406 0 L 1.066406 -9.335938 L 4.363281 -9.335938 C 6.714844 -9.335938 7.890625 -8.34375 7.890625 -6.359375 C 7.890625 -5.421875 7.554688 -4.664062 6.878906 -4.085938 C 6.203125 -3.503906 5.300781 -3.214844 4.171875 -3.214844 L 3.171875 -3.214844 M 3.171875 -7.722656 L 3.171875 -4.8125 L 3.996094 -4.8125 C 5.117188 -4.8125 5.675781 -5.300781 5.675781 -6.28125 C 5.675781 -7.242188 5.117188 -7.722656 3.996094 -7.722656 Z "/>
</g>
<g id="glyph-0-2">
<path d="M 9.277344 0 L 6.984375 0 L 6.320312 -2.078125 L 3 -2.078125 L 2.34375 0 L 0.0664062 0 L 3.464844 -9.335938 L 5.957031 -9.335938 L 9.277344 0 M 5.839844 -3.691406 L 4.835938 -6.828125 C 4.761719 -7.0625 4.710938 -7.34375 4.679688 -7.667969 L 4.628906 -7.667969 C 4.605469 -7.394531 4.554688 -7.125 4.464844 -6.855469 L 3.449219 -3.691406 Z "/>
</g>
<g id="glyph-0-3">
<path d="M 11.707031 0 L 9.628906 0 L 9.628906 -5.585938 C 9.628906 -6.1875 9.65625 -6.855469 9.707031 -7.585938 L 9.65625 -7.585938 C 9.546875 -7.011719 9.449219 -6.597656 9.363281 -6.347656 L 7.175781 0 L 5.457031 0 L 3.230469 -6.28125 C 3.167969 -6.453125 3.070312 -6.886719 2.9375 -7.585938 L 2.878906 -7.585938 C 2.933594 -6.664062 2.960938 -5.855469 2.960938 -5.164062 L 2.960938 0 L 1.066406 0 L 1.066406 -9.335938 L 4.148438 -9.335938 L 6.054688 -3.800781 C 6.207031 -3.359375 6.316406 -2.914062 6.386719 -2.46875 L 6.425781 -2.46875 C 6.542969 -2.984375 6.667969 -3.433594 6.796875 -3.816406 L 8.703125 -9.335938 L 11.707031 -9.335938 Z "/>
</g>
</g>
</defs>
<g fill="rgb(100%, 30.196078%, 30.196078%)" fill-opacity="1">
<use xlink:href="#glyph-0-0" x="30" y="34.387695"/>
<use xlink:href="#glyph-0-1" x="37" y="34.387695"/>
<use xlink:href="#glyph-0-2" x="44" y="34.387695"/>
<use xlink:href="#glyph-0-3" x="53" y="34.387695"/>
</g>
</svg>
