<?xml version="1.0" encoding="UTF-8"?>
<svg xmlns="http://www.w3.org/2000/svg" xmlns:xlink="http://www.w3.org/1999/xlink" width="1080" height="1920" viewBox="0 0 1080 1920">
<defs>
<g>
<g id="glyph-0-0">
<path d="M 8.886719 -15.753906 L 8.886719 -10.9375 L 6.359375 -10.9375 L 6.359375 -15.753906 L 8.886719 -15.753906 M 4.589844 -15.753906 L 4.589844 -10.960938 L 2.074219 -10.960938 L 2.074219 -15.753906 Z "/>
</g>
<g id="glyph-0-1">
<path d="M 8.691406 -13.824219 C 8.25 -13.996094 7.828125 -14.085938 7.421875 -14.085938 C 6.324219 -14.085938 5.773438 -13.488281 5.773438 -12.292969 L 5.773438 -11.109375 L 8.3125 -11.109375 L 8.3125 -8.582031 L 5.773438 -8.582031 L 5.773438 0 L 2.355469 0 L 2.355469 -8.582031 L 0.488281 -8.582031 L 0.488281 -11.109375 L 2.355469 -11.109375 L 2.355469 -12.488281 C 2.355469 -13.753906 2.765625 -14.773438 3.589844 -15.550781 C 4.417969 -16.324219 5.539062 -16.710938 6.957031 -16.710938 C 7.648438 -16.710938 8.230469 -16.636719 8.691406 -16.492188 Z "/>
</g>
<g id="glyph-0-2">
<path d="M 8.691406 -8.019531 C 8.277344 -8.242188 7.796875 -8.355469 7.25 -8.355469 C 6.503906 -8.355469 5.921875 -8.082031 5.5 -7.535156 C 5.082031 -6.988281 4.871094 -6.246094 4.871094 -5.304688 L 4.871094 0 L 1.441406 0 L 1.441406 -11.109375 L 4.871094 -11.109375 L 4.871094 -9.050781 L 4.914062 -9.050781 C 5.457031 -10.554688 6.433594 -11.308594 7.84375 -11.308594 C 8.207031 -11.308594 8.488281 -11.261719 8.691406 -11.175781 Z "/>
</g>
<g id="glyph-0-3">
<path d="M 11.871094 -0.488281 C 11.015625 0.03125 9.902344 0.292969 8.527344 0.292969 C 6.902344 0.292969 5.574219 -0.15625 4.546875 -1.058594 C 3.519531 -1.957031 2.839844 -3.246094 2.507812 -4.914062 L 1.183594 -4.914062 L 1.183594 -6.976562 L 2.222656 -6.976562 C 2.210938 -7.15625 2.203125 -7.371094 2.203125 -7.617188 C 2.203125 -7.746094 2.21875 -8.042969 2.246094 -8.507812 L 1.183594 -8.507812 L 1.183594 -10.535156 L 2.5625 -10.535156 C 2.957031 -12.207031 3.710938 -13.503906 4.816406 -14.433594 C 5.925781 -15.359375 7.300781 -15.820312 8.953125 -15.820312 C 10.160156 -15.820312 11.132812 -15.621094 11.871094 -15.222656 L 11.871094 -12.402344 C 11.0625 -13.039062 10.140625 -13.359375 9.113281 -13.359375 C 8.320312 -13.359375 7.621094 -13.101562 7.015625 -12.585938 C 6.410156 -12.074219 5.984375 -11.390625 5.730469 -10.535156 L 10.351562 -10.535156 L 10.351562 -8.507812 L 5.402344 -8.507812 C 5.375 -8.082031 5.359375 -7.785156 5.359375 -7.617188 C 5.359375 -7.421875 5.367188 -7.207031 5.382812 -6.976562 L 10.351562 -6.976562 L 10.351562 -4.914062 L 5.707031 -4.914062 C 6.25 -3.09375 7.332031 -2.179688 8.953125 -2.179688 C 9.972656 -2.179688 10.945312 -2.507812 11.871094 -3.15625 Z "/>
</g>
</g>
</defs>
<g fill="rgb(100%, 30.196078%, 30.196078%)" fill-opacity="1">
<use xlink:href="#glyph-0-0" x="30" y="43.980469"/>
<use xlink:href="#glyph-0-1" x="41" y="43.980469"/>
<use xlink:href="#glyph-0-2" x="50" y="43.980469"/>
<use xlink:href="#glyph-0-3" x="59" y="43.980469"/>
<use xlink:href="#glyph-0-3" x="72" y="43.980469"/>
<use xlink:href="#glyph-0-0" x="85" y="43.980469"/>
</g>
</svg>
