<?xml version="1.0" encoding="UTF-8"?>
<svg xmlns="http://www.w3.org/2000/svg" xmlns:xlink="http://www.w3.org/1999/xlink" width="1080" height="1920" viewBox="0 0 1080 1920">
<defs>
<g>
<g id="glyph-0-0">
<path d="M 7.597656 -8.753906 L 4.75 -3.113281 L 4.75 0 L 2.777344 0 L 2.777344 -3.078125 L 0 -8.753906 L 2.253906 -8.753906 L 3.664062 -5.488281 C 3.6875 -5.425781 3.753906 -5.1875 3.863281 -4.773438 L 3.886719 -4.773438 C 3.941406 -5.066406 4.003906 -5.296875 4.078125 -5.460938 L 5.511719 -8.753906 L 7.597656 -8.753906 M 5.511719 -11.335938 L 3.601562 -9.363281 L 2.210938 -9.363281 L 3.796875 -11.335938 Z "/>
</g>
<g id="glyph-0-1">
</g>
<g id="glyph-0-2">
<path d="M 7.148438 -7.148438 L 4.652344 -7.148438 L 4.652344 0 L 2.671875 0 L 2.671875 -7.148438 L 0.1875 -7.148438 L 0.1875 -8.753906 L 7.148438 -8.753906 Z "/>
</g>
<g id="glyph-0-3">
<path d="M 8.136719 -7.867188 L 8.136719 -3.789062 C 8.136719 -1.160156 6.910156 0.152344 4.460938 0.152344 C 2.085938 0.152344 0.898438 -1.132812 0.898438 -3.699219 L 0.898438 -8.753906 L 2.875 -8.753906 L 2.875 -3.675781 C 2.875 -2.257812 3.429688 -1.550781 4.535156 -1.550781 C 5.621094 -1.550781 6.164062 -2.234375 6.164062 -3.601562 L 6.164062 -8.753906 L 8 -8.753906 C 8.261719 -8.753906 8.472656 -8.835938 8.632812 -9.007812 C 8.792969 -9.179688 8.875 -9.394531 8.875 -9.648438 C 8.875 -9.828125 8.835938 -10.042969 8.765625 -10.289062 L 9.925781 -10.289062 C 10 -10.058594 10.039062 -9.816406 10.039062 -9.5625 C 10.039062 -9.074219 9.871094 -8.675781 9.535156 -8.367188 C 9.199219 -8.058594 8.734375 -7.890625 8.136719 -7.867188 Z "/>
</g>
<g id="glyph-0-4">
<path d="M 8.097656 -7.398438 C 8.71875 -6.605469 9.027344 -5.617188 9.027344 -4.4375 C 9.027344 -3.0625 8.628906 -1.953125 7.828125 -1.109375 C 7.027344 -0.269531 5.984375 0.152344 4.699219 0.152344 C 3.445312 0.152344 2.425781 -0.253906 1.636719 -1.070312 C 0.847656 -1.886719 0.453125 -2.949219 0.453125 -4.261719 C 0.453125 -5.644531 0.851562 -6.761719 1.652344 -7.617188 C 2.457031 -8.472656 3.519531 -8.898438 4.839844 -8.898438 C 5.644531 -8.898438 6.359375 -8.722656 6.984375 -8.367188 C 7.21875 -8.3125 7.402344 -8.28125 7.539062 -8.28125 C 8.316406 -8.28125 8.703125 -8.550781 8.703125 -9.082031 C 8.703125 -9.285156 8.667969 -9.511719 8.59375 -9.757812 L 9.765625 -9.757812 C 9.859375 -9.480469 9.90625 -9.203125 9.90625 -8.9375 C 9.90625 -8.445312 9.769531 -8.066406 9.492188 -7.792969 C 9.21875 -7.523438 8.828125 -7.386719 8.320312 -7.386719 C 8.292969 -7.386719 8.257812 -7.386719 8.210938 -7.390625 L 8.097656 -7.398438 M 4.785156 -7.203125 C 4.09375 -7.203125 3.542969 -6.941406 3.136719 -6.425781 C 2.730469 -5.90625 2.527344 -5.21875 2.527344 -4.363281 C 2.527344 -3.496094 2.730469 -2.8125 3.136719 -2.308594 C 3.542969 -1.800781 4.078125 -1.550781 4.734375 -1.550781 C 5.414062 -1.550781 5.953125 -1.796875 6.355469 -2.285156 C 6.753906 -2.777344 6.953125 -3.457031 6.953125 -4.328125 C 6.953125 -5.234375 6.757812 -5.941406 6.371094 -6.445312 C 5.984375 -6.949219 5.457031 -7.203125 4.785156 -7.203125 M 5.273438 -9.863281 L 5.273438 -9.5625 L 4.417969 -9.5625 L 4.417969 -10.320312 C 4.902344 -10.347656 5.144531 -10.480469 5.144531 -10.710938 C 5.144531 -10.933594 4.976562 -11.046875 4.644531 -11.046875 C 4.488281 -11.046875 4.332031 -11.027344 4.167969 -10.984375 L 4.167969 -11.699219 C 4.535156 -11.726562 4.769531 -11.738281 4.871094 -11.738281 C 5.722656 -11.738281 6.144531 -11.414062 6.144531 -10.773438 C 6.144531 -10.269531 5.855469 -9.964844 5.273438 -9.863281 Z "/>
</g>
<g id="glyph-0-5">
<path d="M 8.875 0 L 6.882812 0 L 3.277344 -5.5 C 3.066406 -5.820312 2.917969 -6.0625 2.839844 -6.226562 L 2.8125 -6.226562 C 2.847656 -5.917969 2.863281 -5.445312 2.863281 -4.808594 L 2.863281 0 L 1 0 L 1 -8.753906 L 3.125 -8.753906 L 6.597656 -3.425781 C 6.757812 -3.183594 6.902344 -2.945312 7.039062 -2.710938 L 7.0625 -2.710938 C 7.027344 -2.914062 7.011719 -3.3125 7.011719 -3.914062 L 7.011719 -8.753906 L 8.875 -8.753906 Z "/>
</g>
<g id="glyph-0-6">
<path d="M 8.183594 -0.585938 C 7.332031 -0.09375 6.269531 0.152344 5 0.152344 C 3.589844 0.152344 2.480469 -0.238281 1.667969 -1.015625 C 0.859375 -1.796875 0.453125 -2.867188 0.453125 -4.234375 C 0.453125 -5.609375 0.894531 -6.730469 1.78125 -7.597656 C 2.667969 -8.464844 3.847656 -8.898438 5.320312 -8.898438 C 6.25 -8.898438 7.066406 -8.769531 7.777344 -8.515625 L 7.777344 -6.664062 C 7.101562 -7.054688 6.273438 -7.25 5.296875 -7.25 C 4.480469 -7.25 3.8125 -6.984375 3.300781 -6.453125 C 2.785156 -5.921875 2.527344 -5.214844 2.527344 -4.328125 C 2.527344 -3.429688 2.757812 -2.730469 3.21875 -2.238281 C 3.679688 -1.746094 4.304688 -1.5 5.089844 -1.5 C 5.5625 -1.5 5.9375 -1.570312 6.214844 -1.703125 L 6.214844 -3.410156 L 4.460938 -3.410156 L 4.460938 -4.988281 L 8.183594 -4.988281 Z "/>
</g>
<g id="glyph-1-0">
<path d="M 2.972656 -3.015625 L 2.972656 0 L 1 0 L 1 -8.753906 L 4.089844 -8.753906 C 6.292969 -8.753906 7.398438 -7.824219 7.398438 -5.964844 C 7.398438 -5.085938 7.082031 -4.375 6.449219 -3.828125 C 5.816406 -3.285156 4.96875 -3.015625 3.914062 -3.015625 L 2.972656 -3.015625 M 2.972656 -7.238281 L 2.972656 -4.511719 L 3.746094 -4.511719 C 4.796875 -4.511719 5.320312 -4.96875 5.320312 -5.890625 C 5.320312 -6.789062 4.796875 -7.238281 3.746094 -7.238281 Z "/>
</g>
<g id="glyph-1-1">
<path d="M 8.574219 0 L 6.597656 0 L 6.597656 -3.5625 L 2.972656 -3.5625 L 2.972656 0 L 1 0 L 1 -8.753906 L 2.972656 -8.753906 L 2.972656 -5.261719 L 6.597656 -5.261719 L 6.597656 -8.753906 L 8.574219 -8.753906 Z "/>
</g>
<g id="glyph-1-2">
<path d="M 8.699219 0 L 6.550781 0 L 5.925781 -1.945312 L 2.8125 -1.945312 L 2.195312 0 L 0.0625 0 L 3.246094 -8.753906 L 5.585938 -8.753906 L 8.699219 0 M 5.476562 -3.460938 L 4.535156 -6.402344 C 4.464844 -6.621094 4.417969 -6.882812 4.386719 -7.191406 L 4.339844 -7.191406 C 4.320312 -6.933594 4.269531 -6.679688 4.1875 -6.425781 L 3.234375 -3.460938 L 5.476562 -3.460938 M 6.578125 -9.5625 L 5.316406 -9.5625 L 4.351562 -10.710938 L 3.453125 -9.5625 L 2.191406 -9.5625 L 3.625 -11.546875 L 5.140625 -11.546875 Z "/>
</g>
<g id="glyph-1-3">
<path d="M 8.875 0 L 6.882812 0 L 3.277344 -5.5 C 3.066406 -5.820312 2.917969 -6.0625 2.839844 -6.226562 L 2.8125 -6.226562 C 2.847656 -5.917969 2.863281 -5.445312 2.863281 -4.808594 L 2.863281 0 L 1 0 L 1 -8.753906 L 3.125 -8.753906 L 6.597656 -3.425781 C 6.757812 -3.183594 6.902344 -2.945312 7.039062 -2.710938 L 7.0625 -2.710938 C 7.027344 -2.914062 7.011719 -3.3125 7.011719 -3.914062 L 7.011719 -8.753906 L 8.875 -8.753906 Z "/>
</g>
<g id="glyph-1-4">
</g>
<g id="glyph-1-5">
<path d="M 7.148438 -7.148438 L 4.652344 -7.148438 L 4.652344 0 L 2.671875 0 L 2.671875 -7.148438 L 0.1875 -7.148438 L 0.1875 -8.753906 L 7.148438 -8.753906 Z "/>
</g>
<g id="glyph-1-6">
<path d="M 2.972656 0 L 1 0 L 1 -8.753906 L 2.972656 -8.753906 L 2.972656 0 M 3.972656 -11.535156 L 2.0625 -9.5625 L 0.671875 -9.5625 L 2.257812 -11.535156 Z "/>
</g>
<g id="glyph-1-7">
<path d="M 7.273438 -0.3125 C 6.636719 -0.00390625 5.800781 0.152344 4.773438 0.152344 C 3.429688 0.152344 2.375 -0.242188 1.605469 -1.03125 C 0.835938 -1.820312 0.453125 -2.871094 0.453125 -4.1875 C 0.453125 -5.585938 0.882812 -6.722656 1.75 -7.59375 C 2.613281 -8.464844 3.734375 -8.898438 5.113281 -8.898438 C 5.96875 -8.898438 6.6875 -8.792969 7.273438 -8.574219 L 7.273438 -6.675781 C 6.6875 -7.027344 6.023438 -7.203125 5.273438 -7.203125 C 4.453125 -7.203125 3.789062 -6.945312 3.285156 -6.425781 C 2.777344 -5.910156 2.527344 -5.210938 2.527344 -4.328125 C 2.527344 -3.480469 2.765625 -2.804688 3.242188 -2.304688 C 3.71875 -1.800781 4.359375 -1.550781 5.164062 -1.550781 C 5.933594 -1.550781 6.636719 -1.738281 7.273438 -2.113281 Z "/>
</g>
<g id="glyph-1-8">
<path d="M 8.136719 -7.867188 L 8.136719 -3.789062 C 8.136719 -1.160156 6.910156 0.152344 4.460938 0.152344 C 2.085938 0.152344 0.898438 -1.132812 0.898438 -3.699219 L 0.898438 -8.753906 L 2.875 -8.753906 L 2.875 -3.675781 C 2.875 -2.257812 3.429688 -1.550781 4.535156 -1.550781 C 5.621094 -1.550781 6.164062 -2.234375 6.164062 -3.601562 L 6.164062 -8.753906 L 8 -8.753906 C 8.261719 -8.753906 8.472656 -8.835938 8.632812 -9.007812 C 8.792969 -9.179688 8.875 -9.394531 8.875 -9.648438 C 8.875 -9.828125 8.835938 -10.042969 8.765625 -10.289062 L 9.925781 -10.289062 C 10 -10.058594 10.039062 -9.816406 10.039062 -9.5625 C 10.039062 -9.074219 9.871094 -8.675781 9.535156 -8.367188 C 9.199219 -8.058594 8.734375 -7.890625 8.136719 -7.867188 M 5.890625 -9.367188 L 4.503906 -9.367188 L 2.585938 -11.339844 L 4.304688 -11.339844 Z "/>
</g>
</g>
</defs>
<g fill="rgb(100%, 100%, 100%)" fill-opacity="1">
<use xlink:href="#glyph-0-0" x="30" y="33.489258"/>
<use xlink:href="#glyph-0-1" x="38" y="33.489258"/>
<use xlink:href="#glyph-0-2" x="41" y="33.489258"/>
<use xlink:href="#glyph-0-3" x="48" y="33.489258"/>
<use xlink:href="#glyph-0-4" x="58" y="33.489258"/>
<use xlink:href="#glyph-0-5" x="68" y="33.489258"/>
<use xlink:href="#glyph-0-6" x="78" y="33.489258"/>
<use xlink:href="#glyph-0-1" x="87" y="33.489258"/>
</g>
<g fill="rgb(100%, 100%, 100%)" fill-opacity="1">
<use xlink:href="#glyph-1-0" x="30" y="45.676758"/>
<use xlink:href="#glyph-1-1" x="38" y="45.676758"/>
<use xlink:href="#glyph-1-2" x="48" y="45.676758"/>
<use xlink:href="#glyph-1-3" x="57" y="45.676758"/>
<use xlink:href="#glyph-1-4" x="67" y="45.676758"/>
<use xlink:href="#glyph-1-5" x="70" y="45.676758"/>
<use xlink:href="#glyph-1-6" x="77" y="45.676758"/>
<use xlink:href="#glyph-1-7" x="81" y="45.676758"/>
<use xlink:href="#glyph-1-1" x="89" y="45.676758"/>
<use xlink:href="#glyph-1-4" x="99" y="45.676758"/>
<use xlink:href="#glyph-1-5" x="102" y="45.676758"/>
<use xlink:href="#glyph-1-8" x="109" y="45.676758"/>
</g>
</svg>
