<?xml version="1.0" encoding="UTF-8"?>
<svg xmlns="http://www.w3.org/2000/svg" xmlns:xlink="http://www.w3.org/1999/xlink" width="1080" height="1920" viewBox="0 0 1080 1920">
<defs>
<g>
<g id="glyph-0-0">
<path d="M 5.660156 -0.242188 C 5.160156 0 4.511719 0.117188 3.710938 0.117188 C 2.667969 0.117188 1.847656 -0.1875 1.25 -0.800781 C 0.652344 -1.417969 0.351562 -2.234375 0.351562 -3.257812 C 0.351562 -4.34375 0.6875 -5.226562 1.359375 -5.90625 C 2.03125 -6.582031 2.90625 -6.921875 3.976562 -6.921875 C 4.644531 -6.921875 5.203125 -6.835938 5.660156 -6.671875 L 5.660156 -5.195312 C 5.203125 -5.464844 4.683594 -5.601562 4.101562 -5.601562 C 3.460938 -5.601562 2.945312 -5.402344 2.554688 -5 C 2.160156 -4.597656 1.964844 -4.050781 1.964844 -3.367188 C 1.964844 -2.707031 2.152344 -2.183594 2.519531 -1.792969 C 2.890625 -1.402344 3.390625 -1.207031 4.015625 -1.207031 C 4.613281 -1.207031 5.160156 -1.351562 5.660156 -1.644531 Z "/>
</g>
<g id="glyph-0-1">
<path d="M 2.949219 0.117188 C 2.136719 0.117188 1.5 -0.109375 1.039062 -0.5625 C 0.574219 -1.015625 0.34375 -1.632812 0.34375 -2.410156 C 0.34375 -3.214844 0.582031 -3.84375 1.0625 -4.296875 C 1.542969 -4.753906 2.195312 -4.980469 3.015625 -4.980469 C 3.820312 -4.980469 4.453125 -4.753906 4.914062 -4.296875 C 5.371094 -3.84375 5.601562 -3.242188 5.601562 -2.496094 C 5.601562 -1.691406 5.367188 -1.050781 4.890625 -0.582031 C 4.417969 -0.117188 3.769531 0.117188 2.949219 0.117188 M 2.984375 -3.832031 C 2.632812 -3.832031 2.355469 -3.710938 2.160156 -3.464844 C 1.964844 -3.222656 1.867188 -2.875 1.867188 -2.429688 C 1.867188 -1.496094 2.242188 -1.03125 2.996094 -1.03125 C 3.714844 -1.03125 4.074219 -1.507812 4.074219 -2.46875 C 4.074219 -3.378906 3.710938 -3.832031 2.984375 -3.832031 Z "/>
</g>
<g id="glyph-0-2">
<path d="M 8.351562 0 L 6.855469 0 L 6.855469 -2.773438 C 6.855469 -3.476562 6.597656 -3.832031 6.078125 -3.832031 C 5.828125 -3.832031 5.628906 -3.726562 5.472656 -3.511719 C 5.320312 -3.300781 5.242188 -3.035156 5.242188 -2.71875 L 5.242188 0 L 3.742188 0 L 3.742188 -2.800781 C 3.742188 -3.488281 3.484375 -3.832031 2.976562 -3.832031 C 2.71875 -3.832031 2.515625 -3.730469 2.363281 -3.527344 C 2.207031 -3.324219 2.132812 -3.050781 2.132812 -2.703125 L 2.132812 0 L 0.632812 0 L 0.632812 -4.859375 L 2.132812 -4.859375 L 2.132812 -4.101562 L 2.152344 -4.101562 C 2.304688 -4.359375 2.523438 -4.574219 2.804688 -4.734375 C 3.082031 -4.898438 3.390625 -4.980469 3.722656 -4.980469 C 4.410156 -4.980469 4.878906 -4.679688 5.132812 -4.074219 C 5.503906 -4.679688 6.046875 -4.980469 6.765625 -4.980469 C 7.820312 -4.980469 8.351562 -4.328125 8.351562 -3.023438 Z "/>
</g>
<g id="glyph-0-3">
<path d="M 5 -2.003906 L 1.828125 -2.003906 C 1.878906 -1.296875 2.324219 -0.945312 3.160156 -0.945312 C 3.695312 -0.945312 4.167969 -1.070312 4.570312 -1.324219 L 4.570312 -0.242188 C 4.121094 0 3.539062 0.117188 2.820312 0.117188 C 2.035156 0.117188 1.425781 -0.0976562 0.992188 -0.535156 C 0.558594 -0.96875 0.34375 -1.574219 0.34375 -2.355469 C 0.34375 -3.160156 0.574219 -3.800781 1.042969 -4.273438 C 1.511719 -4.746094 2.089844 -4.980469 2.773438 -4.980469 C 3.480469 -4.980469 4.03125 -4.769531 4.417969 -4.347656 C 4.804688 -3.925781 5 -3.355469 5 -2.636719 L 5 -2.003906 M 3.609375 -2.925781 C 3.609375 -3.621094 3.328125 -3.96875 2.761719 -3.96875 C 2.523438 -3.96875 2.3125 -3.867188 2.140625 -3.667969 C 1.964844 -3.46875 1.855469 -3.222656 1.816406 -2.925781 Z "/>
</g>
<g id="glyph-0-4">
<path d="M 5.328125 0 L 3.832031 0 L 3.832031 -2.703125 C 3.832031 -3.453125 3.5625 -3.832031 3.023438 -3.832031 C 2.765625 -3.832031 2.550781 -3.730469 2.382812 -3.53125 C 2.214844 -3.332031 2.132812 -3.078125 2.132812 -2.773438 L 2.132812 0 L 0.632812 0 L 0.632812 -4.859375 L 2.132812 -4.859375 L 2.132812 -4.09375 L 2.152344 -4.09375 C 2.507812 -4.683594 3.027344 -4.980469 3.710938 -4.980469 C 4.789062 -4.980469 5.328125 -4.3125 5.328125 -2.976562 Z "/>
</g>
<g id="glyph-0-5">
<path d="M 3.570312 -0.0585938 C 3.347656 0.0585938 3.015625 0.117188 2.566406 0.117188 C 1.511719 0.117188 0.984375 -0.429688 0.984375 -1.527344 L 0.984375 -3.753906 L 0.195312 -3.753906 L 0.195312 -4.859375 L 0.984375 -4.859375 L 0.984375 -5.910156 L 2.476562 -6.335938 L 2.476562 -4.859375 L 3.570312 -4.859375 L 3.570312 -3.753906 L 2.476562 -3.753906 L 2.476562 -1.789062 C 2.476562 -1.285156 2.679688 -1.03125 3.082031 -1.03125 C 3.238281 -1.03125 3.402344 -1.074219 3.570312 -1.167969 Z "/>
</g>
<g id="glyph-0-6">
</g>
<g id="glyph-0-7">
<path d="M 4.316406 -0.175781 C 3.976562 0.0195312 3.488281 0.117188 2.847656 0.117188 C 2.101562 0.117188 1.496094 -0.109375 1.035156 -0.558594 C 0.574219 -1.011719 0.34375 -1.597656 0.34375 -2.3125 C 0.34375 -3.136719 0.589844 -3.789062 1.085938 -4.265625 C 1.582031 -4.742188 2.242188 -4.980469 3.070312 -4.980469 C 3.644531 -4.980469 4.058594 -4.902344 4.316406 -4.753906 L 4.316406 -3.480469 C 4.003906 -3.714844 3.652344 -3.832031 3.265625 -3.832031 C 2.835938 -3.832031 2.496094 -3.707031 2.242188 -3.453125 C 1.992188 -3.203125 1.867188 -2.855469 1.867188 -2.410156 C 1.867188 -1.980469 1.984375 -1.644531 2.226562 -1.398438 C 2.46875 -1.152344 2.796875 -1.03125 3.21875 -1.03125 C 3.59375 -1.03125 3.957031 -1.148438 4.316406 -1.382812 Z "/>
</g>
<g id="glyph-0-8">
<path d="M 4.675781 0 L 3.257812 0 L 3.257812 -0.699219 L 3.238281 -0.699219 C 2.910156 -0.152344 2.429688 0.117188 1.789062 0.117188 C 1.316406 0.117188 0.945312 -0.015625 0.675781 -0.28125 C 0.40625 -0.550781 0.269531 -0.90625 0.269531 -1.351562 C 0.269531 -2.296875 0.828125 -2.839844 1.945312 -2.984375 L 3.265625 -3.160156 C 3.265625 -3.695312 2.976562 -3.960938 2.402344 -3.960938 C 1.824219 -3.960938 1.273438 -3.785156 0.75 -3.441406 L 0.75 -4.570312 C 0.957031 -4.679688 1.246094 -4.773438 1.605469 -4.855469 C 1.96875 -4.9375 2.300781 -4.980469 2.597656 -4.980469 C 3.984375 -4.980469 4.675781 -4.289062 4.675781 -2.90625 L 4.675781 0 M 3.265625 -1.976562 L 3.265625 -2.300781 L 2.382812 -2.1875 C 1.894531 -2.125 1.652344 -1.90625 1.652344 -1.527344 C 1.652344 -1.359375 1.710938 -1.21875 1.832031 -1.109375 C 1.949219 -1 2.109375 -0.945312 2.3125 -0.945312 C 2.59375 -0.945312 2.824219 -1.042969 3 -1.238281 C 3.175781 -1.429688 3.265625 -1.675781 3.265625 -1.976562 M 4.339844 -5.628906 L 3.355469 -5.628906 L 2.605469 -6.523438 L 1.910156 -5.628906 L 0.925781 -5.628906 L 2.042969 -7.171875 L 3.21875 -7.171875 Z "/>
</g>
<g id="glyph-0-9">
<path d="M 5.25 0 L 3.753906 0 L 3.753906 -0.742188 L 3.730469 -0.742188 C 3.359375 -0.167969 2.867188 0.117188 2.246094 0.117188 C 1.117188 0.117188 0.554688 -0.5625 0.554688 -1.925781 L 0.554688 -4.859375 L 2.050781 -4.859375 L 2.050781 -2.058594 C 2.050781 -1.375 2.324219 -1.03125 2.867188 -1.03125 C 3.136719 -1.03125 3.351562 -1.125 3.511719 -1.3125 C 3.675781 -1.5 3.753906 -1.757812 3.753906 -2.078125 L 3.753906 -4.859375 L 5.25 -4.859375 Z "/>
</g>
<g id="glyph-0-10">
<path d="M 3.800781 -3.507812 C 3.621094 -3.605469 3.410156 -3.65625 3.171875 -3.65625 C 2.84375 -3.65625 2.589844 -3.535156 2.40625 -3.296875 C 2.222656 -3.058594 2.132812 -2.734375 2.132812 -2.320312 L 2.132812 0 L 0.632812 0 L 0.632812 -4.859375 L 2.132812 -4.859375 L 2.132812 -3.960938 L 2.152344 -3.960938 C 2.386719 -4.617188 2.816406 -4.945312 3.433594 -4.945312 C 3.589844 -4.945312 3.714844 -4.929688 3.800781 -4.890625 Z "/>
</g>
<g id="glyph-0-11">
<path d="M 4.675781 0 L 3.257812 0 L 3.257812 -0.699219 L 3.238281 -0.699219 C 2.910156 -0.152344 2.429688 0.117188 1.789062 0.117188 C 1.316406 0.117188 0.945312 -0.015625 0.675781 -0.28125 C 0.40625 -0.550781 0.269531 -0.90625 0.269531 -1.351562 C 0.269531 -2.296875 0.828125 -2.839844 1.945312 -2.984375 L 3.265625 -3.160156 C 3.265625 -3.695312 2.976562 -3.960938 2.402344 -3.960938 C 1.824219 -3.960938 1.273438 -3.785156 0.75 -3.441406 L 0.75 -4.570312 C 0.957031 -4.679688 1.246094 -4.773438 1.605469 -4.855469 C 1.96875 -4.9375 2.300781 -4.980469 2.597656 -4.980469 C 3.984375 -4.980469 4.675781 -4.289062 4.675781 -2.90625 L 4.675781 0 M 3.265625 -1.976562 L 3.265625 -2.300781 L 2.382812 -2.1875 C 1.894531 -2.125 1.652344 -1.90625 1.652344 -1.527344 C 1.652344 -1.359375 1.710938 -1.21875 1.832031 -1.109375 C 1.949219 -1 2.109375 -0.945312 2.3125 -0.945312 C 2.59375 -0.945312 2.824219 -1.042969 3 -1.238281 C 3.175781 -1.429688 3.265625 -1.675781 3.265625 -1.976562 M 2.890625 -6.019531 L 2.890625 -5.785156 L 2.226562 -5.785156 L 2.226562 -6.375 C 2.601562 -6.398438 2.792969 -6.5 2.792969 -6.679688 C 2.792969 -6.855469 2.660156 -6.941406 2.402344 -6.941406 C 2.28125 -6.941406 2.160156 -6.925781 2.03125 -6.894531 L 2.03125 -7.449219 C 2.316406 -7.46875 2.5 -7.476562 2.578125 -7.476562 C 3.238281 -7.476562 3.570312 -7.226562 3.570312 -6.726562 C 3.570312 -6.335938 3.34375 -6.097656 2.890625 -6.019531 Z "/>
</g>
<g id="glyph-0-12">
<path d="M 2.132812 0 L 0.632812 0 L 0.632812 -7.195312 L 2.132812 -7.195312 Z "/>
</g>
<g id="glyph-0-13">
<path d="M 4.953125 -4.257812 C 5.386719 -3.808594 5.601562 -3.222656 5.601562 -2.496094 C 5.601562 -1.691406 5.367188 -1.050781 4.890625 -0.582031 C 4.417969 -0.117188 3.769531 0.117188 2.949219 0.117188 C 2.136719 0.117188 1.5 -0.109375 1.039062 -0.5625 C 0.574219 -1.015625 0.34375 -1.632812 0.34375 -2.410156 C 0.34375 -3.214844 0.582031 -3.84375 1.0625 -4.296875 C 1.542969 -4.753906 2.195312 -4.980469 3.015625 -4.980469 C 3.230469 -4.980469 3.472656 -4.957031 3.742188 -4.910156 C 3.921875 -4.878906 4.09375 -4.859375 4.261719 -4.859375 C 4.824219 -4.859375 5.101562 -5.085938 5.101562 -5.53125 C 5.101562 -5.6875 5.074219 -5.863281 5.019531 -6.058594 L 5.929688 -6.058594 C 6.003906 -5.839844 6.039062 -5.632812 6.039062 -5.4375 C 6.039062 -4.71875 5.675781 -4.328125 4.953125 -4.257812 M 2.984375 -3.832031 C 2.632812 -3.832031 2.355469 -3.710938 2.160156 -3.464844 C 1.964844 -3.222656 1.867188 -2.875 1.867188 -2.429688 C 1.867188 -1.496094 2.242188 -1.03125 2.996094 -1.03125 C 3.714844 -1.03125 4.074219 -1.507812 4.074219 -2.46875 C 4.074219 -3.378906 3.710938 -3.832031 2.984375 -3.832031 M 4.148438 -5.628906 L 3.070312 -5.628906 L 1.582031 -7.164062 L 2.914062 -7.164062 Z "/>
</g>
<g id="glyph-0-14">
<path d="M 1.390625 -5.628906 C 1.136719 -5.628906 0.929688 -5.707031 0.769531 -5.855469 C 0.609375 -6.007812 0.527344 -6.191406 0.527344 -6.410156 C 0.527344 -6.632812 0.609375 -6.816406 0.769531 -6.960938 C 0.929688 -7.101562 1.136719 -7.171875 1.390625 -7.171875 C 1.648438 -7.171875 1.855469 -7.101562 2.015625 -6.960938 C 2.175781 -6.816406 2.253906 -6.632812 2.253906 -6.410156 C 2.253906 -6.179688 2.175781 -5.996094 2.015625 -5.847656 C 1.855469 -5.703125 1.648438 -5.628906 1.390625 -5.628906 M 2.132812 0 L 0.632812 0 L 0.632812 -4.859375 L 2.132812 -4.859375 Z "/>
</g>
<g id="glyph-0-15">
<path d="M 5.25 0 L 3.753906 0 L 3.753906 -0.742188 L 3.730469 -0.742188 C 3.359375 -0.167969 2.867188 0.117188 2.246094 0.117188 C 1.117188 0.117188 0.554688 -0.5625 0.554688 -1.925781 L 0.554688 -4.859375 L 2.050781 -4.859375 L 2.050781 -2.058594 C 2.050781 -1.375 2.324219 -1.03125 2.867188 -1.03125 C 3.136719 -1.03125 3.351562 -1.125 3.511719 -1.3125 C 3.675781 -1.5 3.753906 -1.757812 3.753906 -2.078125 L 3.753906 -4.859375 L 5.25 -4.859375 L 5.25 0 M 3.0625 -6.019531 L 3.0625 -5.785156 L 2.398438 -5.785156 L 2.398438 -6.375 C 2.773438 -6.398438 2.960938 -6.5 2.960938 -6.679688 C 2.960938 -6.855469 2.832031 -6.941406 2.574219 -6.941406 C 2.453125 -6.941406 2.328125 -6.925781 2.203125 -6.894531 L 2.203125 -7.449219 C 2.488281 -7.46875 2.667969 -7.476562 2.75 -7.476562 C 3.410156 -7.476562 3.742188 -7.226562 3.742188 -6.726562 C 3.742188 -6.335938 3.515625 -6.097656 3.0625 -6.019531 Z "/>
</g>
<g id="glyph-0-16">
<path d="M 4.675781 0 L 3.257812 0 L 3.257812 -0.699219 L 3.238281 -0.699219 C 2.910156 -0.152344 2.429688 0.117188 1.789062 0.117188 C 1.316406 0.117188 0.945312 -0.015625 0.675781 -0.28125 C 0.40625 -0.550781 0.269531 -0.90625 0.269531 -1.351562 C 0.269531 -2.296875 0.828125 -2.839844 1.945312 -2.984375 L 3.265625 -3.160156 C 3.265625 -3.695312 2.976562 -3.960938 2.402344 -3.960938 C 1.824219 -3.960938 1.273438 -3.785156 0.75 -3.441406 L 0.75 -4.570312 C 0.957031 -4.679688 1.246094 -4.773438 1.605469 -4.855469 C 1.96875 -4.9375 2.300781 -4.980469 2.597656 -4.980469 C 3.984375 -4.980469 4.675781 -4.289062 4.675781 -2.90625 L 4.675781 0 M 3.265625 -1.976562 L 3.265625 -2.300781 L 2.382812 -2.1875 C 1.894531 -2.125 1.652344 -1.90625 1.652344 -1.527344 C 1.652344 -1.359375 1.710938 -1.21875 1.832031 -1.109375 C 1.949219 -1 2.109375 -0.945312 2.3125 -0.945312 C 2.59375 -0.945312 2.824219 -1.042969 3 -1.238281 C 3.175781 -1.429688 3.265625 -1.675781 3.265625 -1.976562 Z "/>
</g>
<g id="glyph-0-17">
<path d="M 2.152344 -0.566406 L 2.132812 -0.566406 L 2.132812 0 L 0.632812 0 L 0.632812 -7.195312 L 2.132812 -7.195312 L 2.132812 -4.128906 L 2.152344 -4.128906 C 2.519531 -4.695312 3.046875 -4.980469 3.730469 -4.980469 C 4.359375 -4.980469 4.839844 -4.765625 5.179688 -4.335938 C 5.519531 -3.902344 5.6875 -3.316406 5.6875 -2.566406 C 5.6875 -1.757812 5.488281 -1.109375 5.09375 -0.617188 C 4.699219 -0.125 4.167969 0.117188 3.507812 0.117188 C 2.910156 0.117188 2.457031 -0.109375 2.152344 -0.566406 M 2.109375 -2.617188 L 2.109375 -2.117188 C 2.109375 -1.804688 2.199219 -1.542969 2.378906 -1.339844 C 2.558594 -1.132812 2.789062 -1.03125 3.070312 -1.03125 C 3.414062 -1.03125 3.679688 -1.164062 3.867188 -1.425781 C 4.054688 -1.691406 4.148438 -2.066406 4.148438 -2.550781 C 4.148438 -2.953125 4.0625 -3.265625 3.890625 -3.492188 C 3.71875 -3.71875 3.472656 -3.832031 3.152344 -3.832031 C 2.851562 -3.832031 2.601562 -3.71875 2.40625 -3.492188 C 2.207031 -3.269531 2.109375 -2.976562 2.109375 -2.617188 Z "/>
</g>
<g id="glyph-0-18">
<path d="M 4.675781 0 L 3.257812 0 L 3.257812 -0.699219 L 3.238281 -0.699219 C 2.910156 -0.152344 2.429688 0.117188 1.789062 0.117188 C 1.316406 0.117188 0.945312 -0.015625 0.675781 -0.28125 C 0.40625 -0.550781 0.269531 -0.90625 0.269531 -1.351562 C 0.269531 -2.296875 0.828125 -2.839844 1.945312 -2.984375 L 3.265625 -3.160156 C 3.265625 -3.695312 2.976562 -3.960938 2.402344 -3.960938 C 1.824219 -3.960938 1.273438 -3.785156 0.75 -3.441406 L 0.75 -4.570312 C 0.957031 -4.679688 1.246094 -4.773438 1.605469 -4.855469 C 1.96875 -4.9375 2.300781 -4.980469 2.597656 -4.980469 C 3.984375 -4.980469 4.675781 -4.289062 4.675781 -2.90625 L 4.675781 0 M 3.265625 -1.976562 L 3.265625 -2.300781 L 2.382812 -2.1875 C 1.894531 -2.125 1.652344 -1.90625 1.652344 -1.527344 C 1.652344 -1.359375 1.710938 -1.21875 1.832031 -1.109375 C 1.949219 -1 2.109375 -0.945312 2.3125 -0.945312 C 2.59375 -0.945312 2.824219 -1.042969 3 -1.238281 C 3.175781 -1.429688 3.265625 -1.675781 3.265625 -1.976562 M 2.574219 1.855469 C 2.359375 1.855469 2.1875 1.792969 2.046875 1.667969 C 1.910156 1.539062 1.84375 1.386719 1.84375 1.207031 C 1.84375 1.015625 1.910156 0.863281 2.050781 0.742188 C 2.191406 0.625 2.363281 0.566406 2.574219 0.566406 C 2.785156 0.566406 2.957031 0.625 3.09375 0.746094 C 3.226562 0.867188 3.292969 1.019531 3.292969 1.207031 C 3.292969 1.390625 3.226562 1.546875 3.09375 1.671875 C 2.957031 1.792969 2.785156 1.855469 2.574219 1.855469 Z "/>
</g>
<g id="glyph-0-19">
<path d="M 2.375 -6.808594 L 2.1875 -2.117188 L 0.972656 -2.117188 L 0.796875 -6.808594 L 2.375 -6.808594 M 1.59375 0.109375 C 1.34375 0.109375 1.132812 0.03125 0.96875 -0.121094 C 0.804688 -0.273438 0.722656 -0.460938 0.722656 -0.679688 C 0.722656 -0.90625 0.804688 -1.09375 0.972656 -1.238281 C 1.136719 -1.382812 1.34375 -1.457031 1.59375 -1.457031 C 1.847656 -1.457031 2.054688 -1.382812 2.21875 -1.238281 C 2.378906 -1.089844 2.460938 -0.902344 2.460938 -0.679688 C 2.460938 -0.449219 2.378906 -0.261719 2.21875 -0.113281 C 2.058594 0.0351562 1.851562 0.109375 1.59375 0.109375 Z "/>
</g>
</g>
</defs>
<g fill="rgb(100%, 100%, 100%)" fill-opacity="1">
<use xlink:href="#glyph-0-0" x="30" y="30.492188"/>
<use xlink:href="#glyph-0-1" x="36" y="30.492188"/>
<use xlink:href="#glyph-0-2" x="42" y="30.492188"/>
<use xlink:href="#glyph-0-2" x="51" y="30.492188"/>
<use xlink:href="#glyph-0-3" x="60" y="30.492188"/>
<use xlink:href="#glyph-0-4" x="65" y="30.492188"/>
<use xlink:href="#glyph-0-5" x="71" y="30.492188"/>
<use xlink:href="#glyph-0-6" x="75" y="30.492188"/>
<use xlink:href="#glyph-0-7" x="78" y="30.492188"/>
<use xlink:href="#glyph-0-8" x="83" y="30.492188"/>
<use xlink:href="#glyph-0-9" x="88" y="30.492188"/>
<use xlink:href="#glyph-0-6" x="94" y="30.492188"/>
<use xlink:href="#glyph-0-5" x="97" y="30.492188"/>
<use xlink:href="#glyph-0-10" x="101" y="30.492188"/>
<use xlink:href="#glyph-0-11" x="105" y="30.492188"/>
<use xlink:href="#glyph-0-6" x="110" y="30.492188"/>
<use xlink:href="#glyph-0-12" x="113" y="30.492188"/>
<use xlink:href="#glyph-0-13" x="116" y="30.492188"/>
<use xlink:href="#glyph-0-14" x="122" y="30.492188"/>
<use xlink:href="#glyph-0-6" x="125" y="30.492188"/>
<use xlink:href="#glyph-0-7" x="128" y="30.492188"/>
<use xlink:href="#glyph-0-15" x="133" y="30.492188"/>
<use xlink:href="#glyph-0-16" x="139" y="30.492188"/>
<use xlink:href="#glyph-0-6" x="144" y="30.492188"/>
<use xlink:href="#glyph-0-17" x="147" y="30.492188"/>
<use xlink:href="#glyph-0-18" x="153" y="30.492188"/>
<use xlink:href="#glyph-0-4" x="158" y="30.492188"/>
<use xlink:href="#glyph-0-19" x="164" y="30.492188"/>
</g>
</svg>
